<?xml version="1.0" standalone="no"?>
<!DOCTYPE svg PUBLIC "-//W3C//DTD SVG 1.1//EN" "http://www.w3.org/Graphics/SVG/1.1/DTD/svg11.dtd" >
<svg xmlns="http://www.w3.org/2000/svg" xmlns:xlink="http://www.w3.org/1999/xlink" version="1.1">
<metadata>
Created by FontForge 20201107 at Wed Dec  9 15:39:54 2020
 By Unknown
Copyright \(c\) 2019 by Abel Martins and Joana Correia . All rights reserved.
</metadata>
<defs>
<font id="Loretta-Light" horiz-adv-x="0" >
  <font-face 
    font-family="Loretta Light"
    font-weight="300"
    font-stretch="normal"
    units-per-em="1000"
    panose-1="0 0 4 0 0 0 0 0 0 0"
    ascent="800"
    descent="-200"
    x-height="478"
    cap-height="692"
    bbox="-735 -221 1182 917"
    underline-thickness="50"
    underline-position="-100"
    stemh="40"
    stemv="70"
    unicode-range="U+0020-FB02"
  />
<missing-glyph horiz-adv-x="986" 
d="M493 -164c-263 0 -453 191 -453 453c0 263 190 453 453 453s453 -190 453 -453c0 -262 -190 -453 -453 -453zM456 148l21 9c-6 10 -10 22 -10 39c0 105 185 124 185 264c0 71 -46 131 -153 131c-82 0 -136 -32 -169 -66l6 -104h29c-7 82 47 133 130 133
c62 0 105 -34 105 -84c0 -104 -171 -125 -171 -242c0 -21 4 -55 27 -80zM469 -12c26 0 47 20 47 46c0 27 -21 47 -47 47c-24 0 -45 -20 -45 -47c0 -26 21 -46 45 -46z" />
    <glyph glyph-name="fi" unicode="fi" horiz-adv-x="551" 
d="M468 478v-398c0 -50 57 -52 70 -52v-28h-210v28c13 0 70 2 70 52v265c0 77 -28 96 -70 96h-157v-361c0 -50 74 -52 91 -52v-28h-231v28c13 0 70 2 70 52v361h-70v25l70 12v75c0 106 69 177 173 177c63 0 121 -16 160 -35v-111h-25c-38 50 -102 84 -161 84
c-61 0 -101 -38 -101 -94c0 -40 9 -71 24 -96h297z" />
    <glyph glyph-name="fl" unicode="fl" horiz-adv-x="563" 
d="M468 730v-650c0 -50 57 -52 70 -52v-28h-210v28c13 0 70 2 70 52v527c-39 35 -96 61 -150 61c-61 0 -101 -38 -101 -94c0 -40 9 -71 24 -96h105v-37h-105v-361c0 -50 74 -52 91 -52v-28h-231v28c13 0 70 2 70 52v361h-70v25l70 12v75c0 106 69 177 173 177
c42 0 82 -12 116 -28l48 28h30z" />
    <glyph glyph-name=".notdef" horiz-adv-x="986" 
d="M493 -164c-263 0 -453 191 -453 453c0 263 190 453 453 453s453 -190 453 -453c0 -262 -190 -453 -453 -453zM456 148l21 9c-6 10 -10 22 -10 39c0 105 185 124 185 264c0 71 -46 131 -153 131c-82 0 -136 -32 -169 -66l6 -104h29c-7 82 47 133 130 133
c62 0 105 -34 105 -84c0 -104 -171 -125 -171 -242c0 -21 4 -55 27 -80zM469 -12c26 0 47 20 47 46c0 27 -21 47 -47 47c-24 0 -45 -20 -45 -47c0 -26 21 -46 45 -46z" />
    <glyph glyph-name="space" unicode=" " horiz-adv-x="210" 
 />
    <glyph glyph-name="A" unicode="A" horiz-adv-x="682" 
d="M361 704l230 -615c12 -32 47 -57 76 -57v-32h-226v32c63 0 73 26 61 58l-53 150h-253l-54 -151c-11 -32 0 -57 70 -57v-32h-197v32c29 0 63 25 75 57l218 589c13 15 35 25 53 26zM320 588l-110 -308h225l-109 308h-6z" />
    <glyph glyph-name="Aacute" unicode="&#xc1;" horiz-adv-x="682" 
d="M463 865v-25l-167 -96l-21 25l96 96h92zM361 704l230 -615c12 -32 47 -57 76 -57v-32h-226v32c63 0 73 26 61 58l-53 150h-253l-54 -151c-11 -32 0 -57 70 -57v-32h-197v32c29 0 63 25 75 57l218 589c13 15 35 25 53 26zM320 588l-110 -308h225l-109 308h-6z" />
    <glyph glyph-name="Abreve" unicode="&#x102;" horiz-adv-x="682" 
d="M343 745c-80 0 -135 37 -135 120h30c0 -40 45 -59 105 -59s105 19 105 59h30c0 -85 -55 -120 -135 -120zM361 704l230 -615c12 -32 47 -57 76 -57v-32h-226v32c63 0 73 26 61 58l-53 150h-253l-54 -151c-11 -32 0 -57 70 -57v-32h-197v32c29 0 63 25 75 57l218 589
c13 15 35 25 53 26zM320 588l-110 -308h225l-109 308h-6z" />
    <glyph glyph-name="Acircumflex" unicode="&#xc2;" horiz-adv-x="682" 
d="M476 744l-123 64l-123 -64l-12 25l113 96h44l113 -96zM361 704l230 -615c12 -32 47 -57 76 -57v-32h-226v32c63 0 73 26 61 58l-53 150h-253l-54 -151c-11 -32 0 -57 70 -57v-32h-197v32c29 0 63 25 75 57l218 589c13 15 35 25 53 26zM320 588l-110 -308h225l-109 308h-6
z" />
    <glyph glyph-name="Adieresis" unicode="&#xc4;" horiz-adv-x="682" 
d="M253 761c-30 0 -56 26 -56 58c0 30 26 56 56 56c32 0 58 -26 58 -56c0 -32 -26 -58 -58 -58zM431 761c-30 0 -56 26 -56 58c0 30 26 56 56 56c32 0 58 -26 58 -56c0 -32 -26 -58 -58 -58zM361 704l230 -615c12 -32 47 -57 76 -57v-32h-226v32c63 0 73 26 61 58l-53 150
h-253l-54 -151c-11 -32 0 -57 70 -57v-32h-197v32c29 0 63 25 75 57l218 589c13 15 35 25 53 26zM320 588l-110 -308h225l-109 308h-6z" />
    <glyph glyph-name="Agrave" unicode="&#xc0;" horiz-adv-x="682" 
d="M309 870l96 -96l-21 -25l-167 96v25h92zM361 704l230 -615c12 -32 47 -57 76 -57v-32h-226v32c63 0 73 26 61 58l-53 150h-253l-54 -151c-11 -32 0 -57 70 -57v-32h-197v32c29 0 63 25 75 57l218 589c13 15 35 25 53 26zM320 588l-110 -308h225l-109 308h-6z" />
    <glyph glyph-name="Amacron" unicode="&#x100;" horiz-adv-x="682" 
d="M197 818h292v-40h-292v40zM361 704l230 -615c12 -32 47 -57 76 -57v-32h-226v32c63 0 73 26 61 58l-53 150h-253l-54 -151c-11 -32 0 -57 70 -57v-32h-197v32c29 0 63 25 75 57l218 589c13 15 35 25 53 26zM320 588l-110 -308h225l-109 308h-6z" />
    <glyph glyph-name="Aogonek" unicode="&#x104;" horiz-adv-x="682" 
d="M588 0c-76 -57 -83 -97 -83 -120c0 -31 17 -51 49 -51c26 0 55 14 89 42l9 -26c-25 -29 -65 -65 -120 -65c-56 0 -93 36 -93 85c0 44 25 89 94 135h-92v32c63 0 73 26 61 58l-53 150h-253l-54 -151c-11 -32 0 -57 70 -57v-32h-197v32c29 0 63 25 75 57l218 589
c13 15 35 25 53 26l230 -615c12 -32 47 -57 76 -57v-32h-79zM320 588l-110 -308h225l-109 308h-6z" />
    <glyph glyph-name="Aring" unicode="&#xc5;" horiz-adv-x="682" 
d="M342 718c-48 0 -84 36 -84 81c0 44 36 80 84 80c49 0 85 -36 85 -80c0 -45 -36 -81 -85 -81zM342 851c-32 0 -52 -24 -52 -52c0 -29 20 -52 52 -52c33 0 52 24 52 52s-19 52 -52 52zM361 704l230 -615c12 -32 47 -57 76 -57v-32h-226v32c63 0 73 26 61 58l-53 150h-253
l-54 -151c-11 -32 0 -57 70 -57v-32h-197v32c29 0 63 25 75 57l218 589c13 15 35 25 53 26zM320 588l-110 -308h225l-109 308h-6z" />
    <glyph glyph-name="Atilde" unicode="&#xc3;" horiz-adv-x="682" 
d="M277 760c-26 0 -43 -15 -59 -40l-22 15c32 66 63 87 98 87c47 0 104 -39 138 -39c23 0 34 9 56 39l19 -15c-32 -63 -67 -84 -94 -84c-51 0 -102 37 -136 37zM361 704l230 -615c12 -32 47 -57 76 -57v-32h-226v32c63 0 73 26 61 58l-53 150h-253l-54 -151
c-11 -32 0 -57 70 -57v-32h-197v32c29 0 63 25 75 57l218 589c13 15 35 25 53 26zM320 588l-110 -308h225l-109 308h-6z" />
    <glyph glyph-name="AE" unicode="&#xc6;" horiz-adv-x="903" 
d="M833 215h30l-30 -215h-464v32c58 0 85 29 85 63v239h-170l-129 -250c-16 -30 -12 -52 58 -52v-32h-198v32c29 0 70 22 86 52l271 524c16 30 -10 52 -126 52v32h577l30 -205h-30c-19 74 -50 165 -166 165h-128v-278h54c66 0 100 43 109 108h26v-252h-26
c-9 55 -43 104 -109 104h-54v-294h138c68 0 127 31 166 175zM448 652l-143 -278h149v278h-6z" />
    <glyph glyph-name="B" unicode="B" horiz-adv-x="648" 
d="M394 365v-6c131 -5 200 -81 200 -174c0 -86 -62 -185 -234 -185h-310v32c58 0 85 29 85 63v502c0 34 -27 63 -85 63v32h298c160 0 212 -84 212 -166c0 -71 -44 -155 -166 -161zM308 652h-98v-272h119c93 0 146 39 146 132c0 102 -60 140 -167 140zM210 40h130
c115 0 169 57 169 145c0 90 -63 155 -165 155h-134v-300z" />
    <glyph glyph-name="C" unicode="C" horiz-adv-x="660" 
d="M376 -12c-213 0 -322 154 -322 344c0 224 151 372 365 372c58 0 129 -11 187 -34v-176h-33c-13 124 -68 165 -165 165c-162 0 -264 -115 -264 -317c0 -210 111 -298 252 -298c105 0 171 49 201 86l23 -25c-36 -48 -114 -117 -244 -117z" />
    <glyph glyph-name="Cacute" unicode="&#x106;" horiz-adv-x="660" 
d="M496 840l-167 -96l-21 25l96 96h92v-25zM376 -12c-213 0 -322 154 -322 344c0 224 151 372 365 372c58 0 129 -11 187 -34v-176h-33c-13 124 -68 165 -165 165c-162 0 -264 -115 -264 -317c0 -210 111 -298 252 -298c105 0 171 49 201 86l23 -25
c-36 -48 -114 -117 -244 -117z" />
    <glyph glyph-name="Ccaron" unicode="&#x10c;" horiz-adv-x="660" 
d="M236 840l12 25l123 -64l123 64l12 -25l-113 -96h-44zM376 -12c-213 0 -322 154 -322 344c0 224 151 372 365 372c58 0 129 -11 187 -34v-176h-33c-13 124 -68 165 -165 165c-162 0 -264 -115 -264 -317c0 -210 111 -298 252 -298c105 0 171 49 201 86l23 -25
c-36 -48 -114 -117 -244 -117z" />
    <glyph glyph-name="Ccedilla" unicode="&#xc7;" horiz-adv-x="660" 
d="M376 -12h-18l-5 -34c57 -13 91 -39 91 -87c0 -51 -38 -87 -93 -87c-42 0 -73 21 -87 36l15 32c18 -19 42 -31 67 -31c27 0 42 16 42 38c0 37 -32 51 -81 54l16 82c-178 24 -269 167 -269 341c0 224 151 372 365 372c58 0 129 -11 187 -34v-176h-33
c-13 124 -68 165 -165 165c-162 0 -264 -115 -264 -317c0 -210 111 -298 252 -298c105 0 171 49 201 86l23 -25c-36 -48 -114 -117 -244 -117z" />
    <glyph glyph-name="Cdotaccent" unicode="&#x10a;" horiz-adv-x="660" 
d="M375 765c-30 0 -55 25 -55 56c0 30 25 55 55 55c31 0 56 -25 56 -55c0 -31 -25 -56 -56 -56zM376 -12c-213 0 -322 154 -322 344c0 224 151 372 365 372c58 0 129 -11 187 -34v-176h-33c-13 124 -68 165 -165 165c-162 0 -264 -115 -264 -317c0 -210 111 -298 252 -298
c105 0 171 49 201 86l23 -25c-36 -48 -114 -117 -244 -117z" />
    <glyph glyph-name="D" unicode="D" horiz-adv-x="766" 
d="M355 692c221 0 357 -127 357 -346c0 -220 -136 -346 -357 -346h-305v32c58 0 85 29 85 63v502c0 34 -27 63 -85 63v32h305zM210 40h145c177 0 272 119 272 306c0 186 -95 306 -272 306h-145v-612z" />
    <glyph glyph-name="Eth" unicode="&#xd0;" horiz-adv-x="766" 
d="M355 692c221 0 357 -127 357 -346c0 -220 -136 -346 -357 -346h-305v32c58 0 85 29 85 63v244h-100v40h100v218c0 34 -27 63 -85 63v32h305zM210 40h145c177 0 272 119 272 306c0 186 -95 306 -272 306h-145v-273h174v-40h-174v-299z" />
    <glyph glyph-name="Dcaron" unicode="&#x10e;" horiz-adv-x="766" 
d="M471 840l-113 -96h-44l-113 96l12 25l123 -64l123 64zM355 692c221 0 357 -127 357 -346c0 -220 -136 -346 -357 -346h-305v32c58 0 85 29 85 63v502c0 34 -27 63 -85 63v32h305zM210 40h145c177 0 272 119 272 306c0 186 -95 306 -272 306h-145v-612z" />
    <glyph glyph-name="Dcroat" unicode="&#x110;" horiz-adv-x="766" 
d="M355 692c221 0 357 -127 357 -346c0 -220 -136 -346 -357 -346h-305v32c58 0 85 29 85 63v244h-100v40h100v218c0 34 -27 63 -85 63v32h305zM210 40h145c177 0 272 119 272 306c0 186 -95 306 -272 306h-145v-273h174v-40h-174v-299z" />
    <glyph glyph-name="E" unicode="E" horiz-adv-x="612" 
d="M542 215h30l-30 -215h-492v32c58 0 85 29 85 63v502c0 34 -27 63 -85 63v32h482l30 -205h-30c-19 74 -50 165 -166 165h-156v-278h82c66 0 100 43 109 108h26v-252h-26c-9 55 -43 104 -109 104h-82v-294h166c68 0 127 31 166 175z" />
    <glyph glyph-name="Eacute" unicode="&#xc9;" horiz-adv-x="612" 
d="M430 865v-25l-167 -96l-21 25l96 96h92zM542 215h30l-30 -215h-492v32c58 0 85 29 85 63v502c0 34 -27 63 -85 63v32h482l30 -205h-30c-19 74 -50 165 -166 165h-156v-278h82c66 0 100 43 109 108h26v-252h-26c-9 55 -43 104 -109 104h-82v-294h166c68 0 127 31 166 175z
" />
    <glyph glyph-name="Ecaron" unicode="&#x11a;" horiz-adv-x="612" 
d="M440 840l-113 -96h-44l-113 96l12 25l123 -64l123 64zM542 215h30l-30 -215h-492v32c58 0 85 29 85 63v502c0 34 -27 63 -85 63v32h482l30 -205h-30c-19 74 -50 165 -166 165h-156v-278h82c66 0 100 43 109 108h26v-252h-26c-9 55 -43 104 -109 104h-82v-294h166
c68 0 127 31 166 175z" />
    <glyph glyph-name="Ecircumflex" unicode="&#xca;" horiz-adv-x="612" 
d="M443 744l-123 64l-123 -64l-12 25l113 96h44l113 -96zM542 215h30l-30 -215h-492v32c58 0 85 29 85 63v502c0 34 -27 63 -85 63v32h482l30 -205h-30c-19 74 -50 165 -166 165h-156v-278h82c66 0 100 43 109 108h26v-252h-26c-9 55 -43 104 -109 104h-82v-294h166
c68 0 127 31 166 175z" />
    <glyph glyph-name="Edieresis" unicode="&#xcb;" horiz-adv-x="612" 
d="M220 761c-30 0 -56 26 -56 58c0 30 26 56 56 56c32 0 58 -26 58 -56c0 -32 -26 -58 -58 -58zM398 761c-30 0 -56 26 -56 58c0 30 26 56 56 56c32 0 58 -26 58 -56c0 -32 -26 -58 -58 -58zM542 215h30l-30 -215h-492v32c58 0 85 29 85 63v502c0 34 -27 63 -85 63v32h482
l30 -205h-30c-19 74 -50 165 -166 165h-156v-278h82c66 0 100 43 109 108h26v-252h-26c-9 55 -43 104 -109 104h-82v-294h166c68 0 127 31 166 175z" />
    <glyph glyph-name="Edotaccent" unicode="&#x116;" horiz-adv-x="612" 
d="M309 765c-30 0 -55 25 -55 56c0 30 25 55 55 55c31 0 56 -25 56 -55c0 -31 -25 -56 -56 -56zM542 215h30l-30 -215h-492v32c58 0 85 29 85 63v502c0 34 -27 63 -85 63v32h482l30 -205h-30c-19 74 -50 165 -166 165h-156v-278h82c66 0 100 43 109 108h26v-252h-26
c-9 55 -43 104 -109 104h-82v-294h166c68 0 127 31 166 175z" />
    <glyph glyph-name="Egrave" unicode="&#xc8;" horiz-adv-x="612" 
d="M276 870l96 -96l-21 -25l-167 96v25h92zM542 215h30l-30 -215h-492v32c58 0 85 29 85 63v502c0 34 -27 63 -85 63v32h482l30 -205h-30c-19 74 -50 165 -166 165h-156v-278h82c66 0 100 43 109 108h26v-252h-26c-9 55 -43 104 -109 104h-82v-294h166c68 0 127 31 166 175z
" />
    <glyph glyph-name="Emacron" unicode="&#x112;" horiz-adv-x="612" 
d="M164 818h292v-40h-292v40zM542 215h30l-30 -215h-492v32c58 0 85 29 85 63v502c0 34 -27 63 -85 63v32h482l30 -205h-30c-19 74 -50 165 -166 165h-156v-278h82c66 0 100 43 109 108h26v-252h-26c-9 55 -43 104 -109 104h-82v-294h166c68 0 127 31 166 175z" />
    <glyph glyph-name="Eogonek" unicode="&#x118;" horiz-adv-x="612" 
d="M449 -171c26 0 55 14 89 42l9 -26c-25 -29 -65 -65 -120 -65c-56 0 -93 36 -93 85c0 44 25 89 94 135h-378v32c58 0 85 29 85 63v502c0 34 -27 63 -85 63v32h482l30 -205h-30c-19 74 -50 165 -166 165h-156v-278h82c66 0 100 43 109 108h26v-252h-26
c-9 55 -43 104 -109 104h-82v-294h166c68 0 127 31 166 175h30l-30 -215h-59c-76 -57 -83 -97 -83 -120c0 -31 17 -51 49 -51z" />
    <glyph glyph-name="F" unicode="F" horiz-adv-x="599" 
d="M532 692l27 -201h-30c-19 74 -47 161 -163 161h-156v-288h70c66 0 100 35 109 100h26v-237h-26c-9 55 -43 97 -109 97h-70v-229c0 -34 32 -63 102 -63v-32h-262v32c58 0 85 29 85 63v502c0 34 -27 63 -85 63v32h482z" />
    <glyph glyph-name="G" unicode="G" horiz-adv-x="747" 
d="M395 -12c-207 0 -341 139 -341 350c0 209 133 366 360 366c84 0 170 -14 212 -35v-175h-32c-16 112 -58 164 -186 164c-159 0 -264 -125 -264 -300c0 -168 60 -315 262 -315c64 0 121 22 153 56v126c0 34 -38 63 -119 63v32h273v-32c-53 0 -77 -29 -77 -63v-142
c-61 -56 -149 -95 -241 -95z" />
    <glyph glyph-name="Gbreve" unicode="&#x11e;" horiz-adv-x="747" 
d="M361 745c-80 0 -135 37 -135 120h30c0 -40 45 -59 105 -59s105 19 105 59h30c0 -85 -55 -120 -135 -120zM395 -12c-207 0 -341 139 -341 350c0 209 133 366 360 366c84 0 170 -14 212 -35v-175h-32c-16 112 -58 164 -186 164c-159 0 -264 -125 -264 -300
c0 -168 60 -315 262 -315c64 0 121 22 153 56v126c0 34 -38 63 -119 63v32h273v-32c-53 0 -77 -29 -77 -63v-142c-61 -56 -149 -95 -241 -95z" />
    <glyph glyph-name="uni0122" unicode="&#x122;" horiz-adv-x="747" 
d="M395 -12c-207 0 -341 139 -341 350c0 209 133 366 360 366c84 0 170 -14 212 -35v-175h-32c-16 112 -58 164 -186 164c-159 0 -264 -125 -264 -300c0 -168 60 -315 262 -315c64 0 121 22 153 56v126c0 34 -38 63 -119 63v32h273v-32c-53 0 -77 -29 -77 -63v-142
c-61 -56 -149 -95 -241 -95zM327 -193l-6 17c24 9 39 19 39 37c0 31 -47 25 -47 64c0 21 16 38 41 38c26 0 51 -23 51 -59c0 -54 -36 -84 -78 -97z" />
    <glyph glyph-name="Gdotaccent" unicode="&#x120;" horiz-adv-x="747" 
d="M360 765c-30 0 -55 25 -55 56c0 30 25 55 55 55c31 0 56 -25 56 -55c0 -31 -25 -56 -56 -56zM395 -12c-207 0 -341 139 -341 350c0 209 133 366 360 366c84 0 170 -14 212 -35v-175h-32c-16 112 -58 164 -186 164c-159 0 -264 -125 -264 -300c0 -168 60 -315 262 -315
c64 0 121 22 153 56v126c0 34 -38 63 -119 63v32h273v-32c-53 0 -77 -29 -77 -63v-142c-61 -56 -149 -95 -241 -95z" />
    <glyph glyph-name="H" unicode="H" horiz-adv-x="782" 
d="M732 692v-32c-58 0 -85 -29 -85 -63v-502c0 -34 27 -63 85 -63v-32h-245v32c58 0 85 29 85 63v233h-362v-233c0 -34 27 -63 85 -63v-32h-245v32c58 0 85 29 85 63v502c0 34 -27 63 -85 63v32h245v-32c-58 0 -85 -29 -85 -63v-229h362v229c0 34 -27 63 -85 63v32h245z" />
    <glyph glyph-name="Hbar" unicode="&#x126;" horiz-adv-x="782" 
d="M732 692v-32c-58 0 -85 -29 -85 -63v-80h76v-36h-76v-386c0 -34 27 -63 85 -63v-32h-245v32c58 0 85 29 85 63v233h-362v-233c0 -34 27 -63 85 -63v-32h-245v32c58 0 85 29 85 63v386h-77v36h77v80c0 34 -27 63 -85 63v32h245v-32c-58 0 -85 -29 -85 -63v-80h362v80
c0 34 -27 63 -85 63v32h245zM210 368h362v113h-362v-113z" />
    <glyph glyph-name="I" unicode="I" horiz-adv-x="345" 
d="M50 0v32c58 0 85 29 85 63v502c0 34 -27 63 -85 63v32h245v-32c-58 0 -85 -29 -85 -63v-502c0 -34 27 -63 85 -63v-32h-245z" />
    <glyph glyph-name="IJ" unicode="&#x132;" horiz-adv-x="680" 
d="M50 0v32c58 0 85 29 85 63v502c0 34 -27 63 -85 63v32h245v-32c-58 0 -85 -29 -85 -63v-502c0 -34 27 -63 85 -63v-32h-245zM358 -140l-8 31c94 30 120 86 120 215v491c0 34 -27 63 -85 63v32h245v-32c-58 0 -85 -29 -85 -63v-474c0 -187 -72 -245 -187 -263z" />
    <glyph glyph-name="Iacute" unicode="&#xcd;" horiz-adv-x="345" 
d="M293 840l-167 -96l-21 25l96 96h92v-25zM50 0v32c58 0 85 29 85 63v502c0 34 -27 63 -85 63v32h245v-32c-58 0 -85 -29 -85 -63v-502c0 -34 27 -63 85 -63v-32h-245z" />
    <glyph glyph-name="Icircumflex" unicode="&#xce;" horiz-adv-x="345" 
d="M183 808l-123 -64l-12 25l113 96h44l113 -96l-12 -25zM50 0v32c58 0 85 29 85 63v502c0 34 -27 63 -85 63v32h245v-32c-58 0 -85 -29 -85 -63v-502c0 -34 27 -63 85 -63v-32h-245z" />
    <glyph glyph-name="Idieresis" unicode="&#xcf;" horiz-adv-x="345" 
d="M83 761c-30 0 -56 26 -56 58c0 30 26 56 56 56c32 0 58 -26 58 -56c0 -32 -26 -58 -58 -58zM261 761c-30 0 -56 26 -56 58c0 30 26 56 56 56c32 0 58 -26 58 -56c0 -32 -26 -58 -58 -58zM50 0v32c58 0 85 29 85 63v502c0 34 -27 63 -85 63v32h245v-32
c-58 0 -85 -29 -85 -63v-502c0 -34 27 -63 85 -63v-32h-245z" />
    <glyph glyph-name="Idotaccent" unicode="&#x130;" horiz-adv-x="345" 
d="M172 765c-30 0 -55 25 -55 56c0 30 25 55 55 55c31 0 56 -25 56 -55c0 -31 -25 -56 -56 -56zM50 0v32c58 0 85 29 85 63v502c0 34 -27 63 -85 63v32h245v-32c-58 0 -85 -29 -85 -63v-502c0 -34 27 -63 85 -63v-32h-245z" />
    <glyph glyph-name="Igrave" unicode="&#xcc;" horiz-adv-x="345" 
d="M235 774l-21 -25l-167 96v25h92zM50 0v32c58 0 85 29 85 63v502c0 34 -27 63 -85 63v32h245v-32c-58 0 -85 -29 -85 -63v-502c0 -34 27 -63 85 -63v-32h-245z" />
    <glyph glyph-name="Imacron" unicode="&#x12a;" horiz-adv-x="345" 
d="M27 778v40h292v-40h-292zM50 0v32c58 0 85 29 85 63v502c0 34 -27 63 -85 63v32h245v-32c-58 0 -85 -29 -85 -63v-502c0 -34 27 -63 85 -63v-32h-245z" />
    <glyph glyph-name="Iogonek" unicode="&#x12e;" horiz-adv-x="345" 
d="M295 692v-32c-58 0 -85 -29 -85 -63v-502c0 -34 27 -63 85 -63v-32h-77c-76 -57 -83 -97 -83 -120c0 -31 17 -51 49 -51c26 0 55 14 89 42l9 -26c-25 -29 -65 -65 -120 -65c-56 0 -93 36 -93 85c0 44 25 89 94 135h-113v32c58 0 85 29 85 63v502c0 34 -27 63 -85 63v32
h245z" />
    <glyph glyph-name="J" unicode="J" horiz-adv-x="335" 
d="M13 -140l-8 31c94 30 120 86 120 215v491c0 34 -27 63 -85 63v32h245v-32c-58 0 -85 -29 -85 -63v-474c0 -187 -72 -245 -187 -263z" />
    <glyph glyph-name="uni004A0301" horiz-adv-x="335" 
d="M290 840l-167 -96l-21 25l96 96h92v-25zM13 -140l-8 31c94 30 120 86 120 215v491c0 34 -27 63 -85 63v32h245v-32c-58 0 -85 -29 -85 -63v-474c0 -187 -72 -245 -187 -263z" />
    <glyph glyph-name="K" unicode="K" horiz-adv-x="679" 
d="M336 404l184 -267c45 -65 104 -104 139 -105v-32h-135l-241 350l-73 -73v-182c0 -34 27 -63 85 -63v-32h-245v32c58 0 85 29 85 63v502c0 34 -27 63 -85 63v32h245v-32c-58 0 -85 -29 -85 -63v-265l224 231c34 36 46 51 46 67c0 22 -30 30 -67 30v32h223v-32
c-47 0 -82 -34 -146 -99z" />
    <glyph glyph-name="uni0136" unicode="&#x136;" horiz-adv-x="679" 
d="M336 404l184 -267c45 -65 104 -104 139 -105v-32h-135l-241 350l-73 -73v-182c0 -34 27 -63 85 -63v-32h-245v32c58 0 85 29 85 63v502c0 34 -27 63 -85 63v32h245v-32c-58 0 -85 -29 -85 -63v-265l224 231c34 36 46 51 46 67c0 22 -30 30 -67 30v32h223v-32
c-47 0 -82 -34 -146 -99zM335 -37c26 0 51 -23 51 -59c0 -54 -36 -84 -78 -97l-6 17c24 9 39 19 39 37c0 31 -47 25 -47 64c0 21 16 38 41 38z" />
    <glyph glyph-name="L" unicode="L" horiz-adv-x="598" 
d="M542 214h30l-31 -214h-491v32c58 0 85 29 85 63v502c0 34 -27 63 -85 63v32h245v-32c-58 0 -85 -29 -85 -63v-557h159c78 0 134 30 173 174z" />
    <glyph glyph-name="Lacute" unicode="&#x139;" horiz-adv-x="598" 
d="M293 917v-25l-167 -96l-21 25l96 96h92zM542 214h30l-31 -214h-491v32c58 0 85 29 85 63v502c0 34 -27 63 -85 63v32h245v-32c-58 0 -85 -29 -85 -63v-557h159c78 0 134 30 173 174z" />
    <glyph glyph-name="Lcaron" unicode="&#x13d;" horiz-adv-x="598" 
d="M542 214h30l-31 -214h-491v32c58 0 85 29 85 63v502c0 34 -27 63 -85 63v32h245v-32c-58 0 -85 -29 -85 -63v-557h159c78 0 134 30 173 174zM374 692h76c0 -62 -21 -126 -56 -188h-34c12 62 14 126 14 188z" />
    <glyph glyph-name="uni013B" unicode="&#x13b;" horiz-adv-x="598" 
d="M542 214h30l-31 -214h-491v32c58 0 85 29 85 63v502c0 34 -27 63 -85 63v32h245v-32c-58 0 -85 -29 -85 -63v-557h159c78 0 134 30 173 174zM304 -37c26 0 51 -23 51 -59c0 -54 -36 -84 -78 -97l-6 17c24 9 39 19 39 37c0 31 -47 25 -47 64c0 21 16 38 41 38z" />
    <glyph glyph-name="Ldot" unicode="&#x13f;" horiz-adv-x="598" 
d="M542 214h30l-31 -214h-491v32c58 0 85 29 85 63v502c0 34 -27 63 -85 63v32h245v-32c-58 0 -85 -29 -85 -63v-557h159c78 0 134 30 173 174zM379 290c-29 0 -55 24 -55 55s26 55 55 55s55 -24 55 -55s-26 -55 -55 -55z" />
    <glyph glyph-name="Lslash" unicode="&#x141;" horiz-adv-x="598" 
d="M542 214h30l-31 -214h-491v32c58 0 85 29 85 63v186l-79 -60l-23 31l102 78v267c0 34 -27 63 -85 63v32h245v-32c-58 0 -85 -29 -85 -63v-210l105 80l24 -31l-129 -98v-298h159c78 0 134 30 173 174z" />
    <glyph glyph-name="M" unicode="M" horiz-adv-x="971" 
d="M457 -9l-254 604h-2l-24 -470c-4 -74 16 -93 106 -93v-32h-253v32c78 2 100 33 104 103l25 433c3 50 -13 88 -84 92v32h170l252 -590h3l230 590h182v-32c-82 0 -98 -32 -95 -79l28 -446c5 -78 42 -99 96 -103v-32h-265v32c59 7 100 26 96 93l-31 470h-2l-232 -578
c-14 -16 -29 -22 -50 -26z" />
    <glyph glyph-name="N" unicode="N" horiz-adv-x="738" 
d="M723 692v-32c-58 0 -85 -29 -85 -63v-597h-40l-428 601v-506c0 -34 32 -63 102 -63v-32h-227v32c58 0 85 29 85 63v540c-24 14 -52 21 -85 25v32h163l388 -551h2v456c0 34 -32 63 -102 63v32h227z" />
    <glyph glyph-name="Nacute" unicode="&#x143;" horiz-adv-x="738" 
d="M489 917v-25l-167 -96l-21 25l96 96h92zM723 692v-32c-58 0 -85 -29 -85 -63v-597h-40l-428 601v-506c0 -34 32 -63 102 -63v-32h-227v32c58 0 85 29 85 63v540c-24 14 -52 21 -85 25v32h163l388 -551h2v456c0 34 -32 63 -102 63v32h227z" />
    <glyph glyph-name="Ncaron" unicode="&#x147;" horiz-adv-x="738" 
d="M499 892l-113 -96h-44l-113 96l12 25l123 -64l123 64zM723 692v-32c-58 0 -85 -29 -85 -63v-597h-40l-428 601v-506c0 -34 32 -63 102 -63v-32h-227v32c58 0 85 29 85 63v540c-24 14 -52 21 -85 25v32h163l388 -551h2v456c0 34 -32 63 -102 63v32h227z" />
    <glyph glyph-name="uni0145" unicode="&#x145;" horiz-adv-x="738" 
d="M723 692v-32c-58 0 -85 -29 -85 -63v-597h-40l-428 601v-506c0 -34 32 -63 102 -63v-32h-227v32c58 0 85 29 85 63v540c-24 14 -52 21 -85 25v32h163l388 -551h2v456c0 34 -32 63 -102 63v32h227zM362 -37c26 0 51 -23 51 -59c0 -54 -36 -84 -78 -97l-6 17
c24 9 39 19 39 37c0 31 -47 25 -47 64c0 21 16 38 41 38z" />
    <glyph glyph-name="Ntilde" unicode="&#xd1;" horiz-adv-x="738" 
d="M303 812c-26 0 -43 -15 -59 -40l-22 15c32 66 63 87 98 87c47 0 104 -39 138 -39c23 0 34 9 56 39l19 -15c-32 -63 -67 -84 -94 -84c-51 0 -102 37 -136 37zM723 692v-32c-58 0 -85 -29 -85 -63v-597h-40l-428 601v-506c0 -34 32 -63 102 -63v-32h-227v32
c58 0 85 29 85 63v540c-24 14 -52 21 -85 25v32h163l388 -551h2v456c0 34 -32 63 -102 63v32h227z" />
    <glyph glyph-name="O" unicode="O" horiz-adv-x="778" 
d="M389 -12c-198 0 -335 143 -335 358s137 358 335 358s335 -142 335 -358c0 -215 -137 -358 -335 -358zM397 28c165 0 237 129 237 296c0 177 -75 340 -253 340c-164 0 -237 -129 -237 -296c0 -178 74 -340 253 -340z" />
    <glyph glyph-name="Oacute" unicode="&#xd3;" horiz-adv-x="778" 
d="M509 840l-167 -96l-21 25l96 96h92v-25zM389 -12c-198 0 -335 143 -335 358s137 358 335 358s335 -142 335 -358c0 -215 -137 -358 -335 -358zM397 28c165 0 237 129 237 296c0 177 -75 340 -253 340c-164 0 -237 -129 -237 -296c0 -178 74 -340 253 -340z" />
    <glyph glyph-name="Ocircumflex" unicode="&#xd4;" horiz-adv-x="778" 
d="M399 808l-123 -64l-12 25l113 96h44l113 -96l-12 -25zM389 -12c-198 0 -335 143 -335 358s137 358 335 358s335 -142 335 -358c0 -215 -137 -358 -335 -358zM397 28c165 0 237 129 237 296c0 177 -75 340 -253 340c-164 0 -237 -129 -237 -296c0 -178 74 -340 253 -340z
" />
    <glyph glyph-name="Odieresis" unicode="&#xd6;" horiz-adv-x="778" 
d="M299 761c-30 0 -56 26 -56 58c0 30 26 56 56 56c32 0 58 -26 58 -56c0 -32 -26 -58 -58 -58zM477 761c-30 0 -56 26 -56 58c0 30 26 56 56 56c32 0 58 -26 58 -56c0 -32 -26 -58 -58 -58zM389 -12c-198 0 -335 143 -335 358s137 358 335 358s335 -142 335 -358
c0 -215 -137 -358 -335 -358zM397 28c165 0 237 129 237 296c0 177 -75 340 -253 340c-164 0 -237 -129 -237 -296c0 -178 74 -340 253 -340z" />
    <glyph glyph-name="Ograve" unicode="&#xd2;" horiz-adv-x="778" 
d="M451 774l-21 -25l-167 96v25h92zM389 -12c-198 0 -335 143 -335 358s137 358 335 358s335 -142 335 -358c0 -215 -137 -358 -335 -358zM397 28c165 0 237 129 237 296c0 177 -75 340 -253 340c-164 0 -237 -129 -237 -296c0 -178 74 -340 253 -340z" />
    <glyph glyph-name="Ohungarumlaut" unicode="&#x150;" horiz-adv-x="778" 
d="M407 845l-126 -101l-21 25l79 96h68v-20zM557 845l-126 -101l-21 25l79 96h68v-20zM389 -12c-198 0 -335 143 -335 358s137 358 335 358s335 -142 335 -358c0 -215 -137 -358 -335 -358zM397 28c165 0 237 129 237 296c0 177 -75 340 -253 340
c-164 0 -237 -129 -237 -296c0 -178 74 -340 253 -340z" />
    <glyph glyph-name="Omacron" unicode="&#x14c;" horiz-adv-x="778" 
d="M243 778v40h292v-40h-292zM389 -12c-198 0 -335 143 -335 358s137 358 335 358s335 -142 335 -358c0 -215 -137 -358 -335 -358zM397 28c165 0 237 129 237 296c0 177 -75 340 -253 340c-164 0 -237 -129 -237 -296c0 -178 74 -340 253 -340z" />
    <glyph glyph-name="Oslash" unicode="&#xd8;" horiz-adv-x="778" 
d="M679 636l-36 -43c51 -62 81 -146 81 -247c0 -215 -137 -358 -335 -358c-79 0 -148 23 -203 64l-60 -71l-27 22l60 71c-66 63 -105 157 -105 272c0 215 137 358 335 358c92 0 171 -31 229 -85l33 39zM144 368c0 -90 19 -176 61 -239l367 435c-41 61 -104 100 -191 100
c-164 0 -237 -129 -237 -296zM397 28c165 0 237 129 237 296c0 76 -14 149 -43 208l-364 -432c40 -44 96 -72 170 -72z" />
    <glyph glyph-name="Otilde" unicode="&#xd5;" horiz-adv-x="778" 
d="M264 720l-22 15c32 66 63 87 98 87c47 0 104 -39 138 -39c23 0 34 9 56 39l19 -15c-32 -63 -67 -84 -94 -84c-51 0 -102 37 -136 37c-26 0 -43 -15 -59 -40zM389 -12c-198 0 -335 143 -335 358s137 358 335 358s335 -142 335 -358c0 -215 -137 -358 -335 -358zM397 28
c165 0 237 129 237 296c0 177 -75 340 -253 340c-164 0 -237 -129 -237 -296c0 -178 74 -340 253 -340z" />
    <glyph glyph-name="OE" unicode="&#x152;" horiz-adv-x="900" 
d="M830 215h30l-30 -215h-441c-178 0 -335 131 -335 346s157 346 335 346h431l30 -205h-30c-19 74 -50 165 -166 165h-128v-278h54c66 0 100 43 109 108h26v-252h-26c-9 55 -43 104 -109 104h-54v-294h138c68 0 127 31 166 175zM397 40h54v612h-70
c-144 0 -237 -117 -237 -284c0 -178 94 -328 253 -328z" />
    <glyph glyph-name="P" unicode="P" horiz-adv-x="615" 
d="M334 692c149 0 241 -79 241 -197c0 -106 -74 -207 -256 -207h-109v-193c0 -34 32 -63 102 -63v-32h-262v32c58 0 85 29 85 63v502c0 34 -27 63 -85 63v32h284zM210 328h101c29 0 172 0 172 164c0 114 -69 160 -173 160h-100v-324z" />
    <glyph glyph-name="Thorn" unicode="&#xde;" horiz-adv-x="610" 
d="M210 552h119c170 0 241 -99 241 -192s-74 -192 -245 -192h-115v-73c0 -34 27 -63 85 -63v-32h-245v32c58 0 85 29 85 63v502c0 34 -27 63 -85 63v32h245v-32c-58 0 -85 -29 -85 -63v-45zM210 208h96c117 0 172 61 172 152c0 103 -69 152 -173 152h-95v-304z" />
    <glyph glyph-name="Q" unicode="Q" horiz-adv-x="778" 
d="M392 -12c56 -68 182 -77 240 -41l25 -7l-31 -98c-124 1 -240 47 -284 149c-172 21 -288 158 -288 355c0 215 137 358 335 358s335 -142 335 -358c0 -214 -136 -356 -332 -358zM144 368c0 -178 74 -340 253 -340c165 0 237 129 237 296c0 177 -75 340 -253 340
c-164 0 -237 -129 -237 -296z" />
    <glyph glyph-name="R" unicode="R" horiz-adv-x="668" 
d="M363 336v-6c169 -10 174 -294 280 -298v-32h-121c-91 158 -109 320 -244 320h-68v-225c0 -34 32 -63 102 -63v-32h-262v32c58 0 85 29 85 63v502c0 34 -27 63 -85 63v32h301c160 0 224 -82 224 -170c0 -105 -88 -175 -212 -186zM210 652v-292h106c116 0 167 66 167 148
s-50 144 -158 144h-115z" />
    <glyph glyph-name="Racute" unicode="&#x154;" horiz-adv-x="668" 
d="M452 865v-25l-167 -96l-21 25l96 96h92zM363 336v-6c169 -10 174 -294 280 -298v-32h-121c-91 158 -109 320 -244 320h-68v-225c0 -34 32 -63 102 -63v-32h-262v32c58 0 85 29 85 63v502c0 34 -27 63 -85 63v32h301c160 0 224 -82 224 -170c0 -105 -88 -175 -212 -186z
M210 652v-292h106c116 0 167 66 167 148s-50 144 -158 144h-115z" />
    <glyph glyph-name="Rcaron" unicode="&#x158;" horiz-adv-x="668" 
d="M462 840l-113 -96h-44l-113 96l12 25l123 -64l123 64zM363 336v-6c169 -10 174 -294 280 -298v-32h-121c-91 158 -109 320 -244 320h-68v-225c0 -34 32 -63 102 -63v-32h-262v32c58 0 85 29 85 63v502c0 34 -27 63 -85 63v32h301c160 0 224 -82 224 -170
c0 -105 -88 -175 -212 -186zM210 652v-292h106c116 0 167 66 167 148s-50 144 -158 144h-115z" />
    <glyph glyph-name="uni0156" unicode="&#x156;" horiz-adv-x="668" 
d="M363 336v-6c169 -10 174 -294 280 -298v-32h-121c-91 158 -109 320 -244 320h-68v-225c0 -34 32 -63 102 -63v-32h-262v32c58 0 85 29 85 63v502c0 34 -27 63 -85 63v32h301c160 0 224 -82 224 -170c0 -105 -88 -175 -212 -186zM210 652v-292h106c116 0 167 66 167 148
s-50 144 -158 144h-115zM355 -37c26 0 51 -23 51 -59c0 -54 -36 -84 -78 -97l-6 17c24 9 39 19 39 37c0 31 -47 25 -47 64c0 21 16 38 41 38z" />
    <glyph glyph-name="S" unicode="S" horiz-adv-x="556" 
d="M265 -12c-95 0 -176 34 -215 60l12 167h34c9 -127 69 -182 181 -182c108 0 160 52 160 128c0 207 -378 146 -378 366c0 100 79 177 223 177c67 0 123 -16 190 -47v-153h-34c-4 114 -75 157 -172 157c-88 0 -138 -43 -138 -107c0 -178 378 -123 378 -364
c0 -119 -92 -202 -241 -202z" />
    <glyph glyph-name="Sacute" unicode="&#x15a;" horiz-adv-x="556" 
d="M401 840l-167 -96l-21 25l96 96h92v-25zM265 -12c-95 0 -176 34 -215 60l12 167h34c9 -127 69 -182 181 -182c108 0 160 52 160 128c0 207 -378 146 -378 366c0 100 79 177 223 177c67 0 123 -16 190 -47v-153h-34c-4 114 -75 157 -172 157c-88 0 -138 -43 -138 -107
c0 -178 378 -123 378 -364c0 -119 -92 -202 -241 -202z" />
    <glyph glyph-name="Scaron" unicode="&#x160;" horiz-adv-x="556" 
d="M141 840l12 25l123 -64l123 64l12 -25l-113 -96h-44zM265 -12c-95 0 -176 34 -215 60l12 167h34c9 -127 69 -182 181 -182c108 0 160 52 160 128c0 207 -378 146 -378 366c0 100 79 177 223 177c67 0 123 -16 190 -47v-153h-34c-4 114 -75 157 -172 157
c-88 0 -138 -43 -138 -107c0 -178 378 -123 378 -364c0 -119 -92 -202 -241 -202z" />
    <glyph glyph-name="Scedilla" unicode="&#x15e;" horiz-adv-x="556" 
d="M506 190c0 -117 -89 -199 -233 -202l-5 -34c57 -13 91 -39 91 -87c0 -51 -38 -87 -93 -87c-42 0 -73 21 -87 36l15 32c18 -19 42 -31 67 -31c27 0 42 16 42 38c0 37 -32 51 -81 54l16 80c-83 6 -153 36 -188 59l12 167h34c9 -127 69 -182 181 -182c108 0 160 52 160 128
c0 207 -378 146 -378 366c0 100 79 177 223 177c67 0 123 -16 190 -47v-153h-34c-4 114 -75 157 -172 157c-88 0 -138 -43 -138 -107c0 -178 378 -123 378 -364z" />
    <glyph glyph-name="uni0218" unicode="&#x218;" horiz-adv-x="556" 
d="M265 -12c-95 0 -176 34 -215 60l12 167h34c9 -127 69 -182 181 -182c108 0 160 52 160 128c0 207 -378 146 -378 366c0 100 79 177 223 177c67 0 123 -16 190 -47v-153h-34c-4 114 -75 157 -172 157c-88 0 -138 -43 -138 -107c0 -178 378 -123 378 -364
c0 -119 -92 -202 -241 -202zM227 -193l-6 17c24 9 39 19 39 37c0 31 -47 25 -47 64c0 21 16 38 41 38c26 0 51 -23 51 -59c0 -54 -36 -84 -78 -97z" />
    <glyph glyph-name="uni1E9E" unicode="&#x1e9e;" horiz-adv-x="779" 
d="M432 522c0 -157 297 -133 297 -342c0 -113 -87 -192 -202 -192c-75 0 -138 33 -180 60l5 149h34c3 -109 65 -164 147 -164c83 0 128 57 128 125c0 174 -300 151 -300 345c0 64 33 109 89 149h-240v-557c0 -34 27 -63 85 -63v-32h-245v32c58 0 85 29 85 63v502
c0 34 -27 63 -85 63v32h496v-40c-62 -18 -114 -64 -114 -130z" />
    <glyph glyph-name="T" unicode="T" horiz-adv-x="637" 
d="M572 712h24l21 -230h-29c-37 144 -50 170 -93 170h-139v-557c0 -34 32 -63 102 -63v-32h-279v32c70 0 102 29 102 63v557h-139c-43 0 -56 -26 -93 -170h-29l21 230h24c19 -16 28 -20 47 -20h413c20 0 27 3 47 20z" />
    <glyph glyph-name="Tcaron" unicode="&#x164;" horiz-adv-x="637" 
d="M449 840l-113 -96h-44l-113 96l12 25l123 -64l123 64zM572 712h24l21 -230h-29c-37 144 -50 170 -93 170h-139v-557c0 -34 32 -63 102 -63v-32h-279v32c70 0 102 29 102 63v557h-139c-43 0 -56 -26 -93 -170h-29l21 230h24c19 -16 28 -20 47 -20h413c20 0 27 3 47 20z
" />
    <glyph glyph-name="uni0162" unicode="&#x162;" horiz-adv-x="637" 
d="M572 712h24l21 -230h-29c-37 144 -50 170 -93 170h-139v-557c0 -34 32 -63 102 -63v-32h-125l-7 -46c57 -13 91 -39 91 -87c0 -51 -38 -87 -93 -87c-42 0 -73 21 -87 36l15 32c18 -19 42 -31 67 -31c27 0 42 16 42 38c0 37 -32 51 -81 54l18 91h-119v32
c70 0 102 29 102 63v557h-139c-43 0 -56 -26 -93 -170h-29l21 230h24c19 -16 28 -20 47 -20h413c20 0 27 3 47 20z" />
    <glyph glyph-name="uni021A" unicode="&#x21a;" horiz-adv-x="637" 
d="M572 712h24l21 -230h-29c-37 144 -50 170 -93 170h-139v-557c0 -34 32 -63 102 -63v-32h-279v32c70 0 102 29 102 63v557h-139c-43 0 -56 -26 -93 -170h-29l21 230h24c19 -16 28 -20 47 -20h413c20 0 27 3 47 20zM312 -37c26 0 51 -23 51 -59c0 -54 -36 -84 -78 -97
l-6 17c24 9 39 19 39 37c0 31 -47 25 -47 64c0 21 16 38 41 38z" />
    <glyph glyph-name="U" unicode="U" horiz-adv-x="728" 
d="M359 -12c-131 0 -254 89 -254 273v336c0 34 -27 63 -85 63v32h250v-32c-58 0 -85 -29 -85 -63v-321c0 -169 84 -242 198 -242c122 0 190 92 190 241v322c0 34 -27 63 -85 63v32h220v-32c-58 0 -85 -29 -85 -63v-332c0 -131 -68 -277 -264 -277z" />
    <glyph glyph-name="Uacute" unicode="&#xda;" horiz-adv-x="728" 
d="M484 840l-167 -96l-21 25l96 96h92v-25zM359 -12c-131 0 -254 89 -254 273v336c0 34 -27 63 -85 63v32h250v-32c-58 0 -85 -29 -85 -63v-321c0 -169 84 -242 198 -242c122 0 190 92 190 241v322c0 34 -27 63 -85 63v32h220v-32c-58 0 -85 -29 -85 -63v-332
c0 -131 -68 -277 -264 -277z" />
    <glyph glyph-name="Ucircumflex" unicode="&#xdb;" horiz-adv-x="728" 
d="M374 808l-123 -64l-12 25l113 96h44l113 -96l-12 -25zM359 -12c-131 0 -254 89 -254 273v336c0 34 -27 63 -85 63v32h250v-32c-58 0 -85 -29 -85 -63v-321c0 -169 84 -242 198 -242c122 0 190 92 190 241v322c0 34 -27 63 -85 63v32h220v-32c-58 0 -85 -29 -85 -63v-332
c0 -131 -68 -277 -264 -277z" />
    <glyph glyph-name="Udieresis" unicode="&#xdc;" horiz-adv-x="728" 
d="M274 761c-30 0 -56 26 -56 58c0 30 26 56 56 56c32 0 58 -26 58 -56c0 -32 -26 -58 -58 -58zM452 761c-30 0 -56 26 -56 58c0 30 26 56 56 56c32 0 58 -26 58 -56c0 -32 -26 -58 -58 -58zM359 -12c-131 0 -254 89 -254 273v336c0 34 -27 63 -85 63v32h250v-32
c-58 0 -85 -29 -85 -63v-321c0 -169 84 -242 198 -242c122 0 190 92 190 241v322c0 34 -27 63 -85 63v32h220v-32c-58 0 -85 -29 -85 -63v-332c0 -131 -68 -277 -264 -277z" />
    <glyph glyph-name="Ugrave" unicode="&#xd9;" horiz-adv-x="728" 
d="M426 774l-21 -25l-167 96v25h92zM359 -12c-131 0 -254 89 -254 273v336c0 34 -27 63 -85 63v32h250v-32c-58 0 -85 -29 -85 -63v-321c0 -169 84 -242 198 -242c122 0 190 92 190 241v322c0 34 -27 63 -85 63v32h220v-32c-58 0 -85 -29 -85 -63v-332
c0 -131 -68 -277 -264 -277z" />
    <glyph glyph-name="Uhungarumlaut" unicode="&#x170;" horiz-adv-x="728" 
d="M382 845l-126 -101l-21 25l79 96h68v-20zM532 845l-126 -101l-21 25l79 96h68v-20zM359 -12c-131 0 -254 89 -254 273v336c0 34 -27 63 -85 63v32h250v-32c-58 0 -85 -29 -85 -63v-321c0 -169 84 -242 198 -242c122 0 190 92 190 241v322c0 34 -27 63 -85 63v32h220v-32
c-58 0 -85 -29 -85 -63v-332c0 -131 -68 -277 -264 -277z" />
    <glyph glyph-name="Umacron" unicode="&#x16a;" horiz-adv-x="728" 
d="M218 778v40h292v-40h-292zM359 -12c-131 0 -254 89 -254 273v336c0 34 -27 63 -85 63v32h250v-32c-58 0 -85 -29 -85 -63v-321c0 -169 84 -242 198 -242c122 0 190 92 190 241v322c0 34 -27 63 -85 63v32h220v-32c-58 0 -85 -29 -85 -63v-332c0 -131 -68 -277 -264 -277z
" />
    <glyph glyph-name="Uogonek" unicode="&#x172;" horiz-adv-x="728" 
d="M708 692v-32c-58 0 -85 -29 -85 -63v-332c0 -94 -35 -195 -127 -245c-105 -67 -117 -115 -117 -140c0 -31 17 -51 49 -51c26 0 55 14 89 42l9 -26c-25 -29 -65 -65 -120 -65c-56 0 -93 36 -93 85c0 42 24 83 85 125c-12 -1 -25 -2 -39 -2c-131 0 -254 89 -254 273v336
c0 34 -27 63 -85 63v32h250v-32c-58 0 -85 -29 -85 -63v-321c0 -169 84 -242 198 -242c122 0 190 92 190 241v322c0 34 -27 63 -85 63v32h220z" />
    <glyph glyph-name="Uring" unicode="&#x16e;" horiz-adv-x="728" 
d="M363 718c-48 0 -84 36 -84 81c0 44 36 80 84 80c49 0 85 -36 85 -80c0 -45 -36 -81 -85 -81zM363 747c33 0 52 24 52 52s-19 52 -52 52c-32 0 -52 -24 -52 -52c0 -29 20 -52 52 -52zM359 -12c-131 0 -254 89 -254 273v336c0 34 -27 63 -85 63v32h250v-32
c-58 0 -85 -29 -85 -63v-321c0 -169 84 -242 198 -242c122 0 190 92 190 241v322c0 34 -27 63 -85 63v32h220v-32c-58 0 -85 -29 -85 -63v-332c0 -131 -68 -277 -264 -277z" />
    <glyph glyph-name="V" unicode="V" horiz-adv-x="707" 
d="M334 -12l-234 615c-12 32 -50 57 -85 57v32h247v-32c-76 0 -90 -25 -78 -57l187 -504h6l178 503c12 32 0 58 -70 58v32h207v-32c-35 0 -73 -25 -85 -57l-223 -589c-14 -13 -30 -21 -50 -26z" />
    <glyph glyph-name="W" unicode="W" horiz-adv-x="1037" 
d="M303 -12l-207 614c-11 32 -46 58 -81 58v32h238v-32c-70 0 -83 -26 -72 -58l156 -477h6l146 553c24 18 48 27 72 25l178 -578h6l145 476c10 33 -4 59 -74 59v32h206v-32c-35 0 -70 -26 -80 -58l-190 -588c-15 -14 -31 -22 -50 -26l-190 600l-159 -574
c-15 -14 -31 -22 -50 -26z" />
    <glyph glyph-name="Wacute" unicode="&#x1e82;" horiz-adv-x="1037" 
d="M643 840l-167 -96l-21 25l96 96h92v-25zM303 -12l-207 614c-11 32 -46 58 -81 58v32h238v-32c-70 0 -83 -26 -72 -58l156 -477h6l146 553c24 18 48 27 72 25l178 -578h6l145 476c10 33 -4 59 -74 59v32h206v-32c-35 0 -70 -26 -80 -58l-190 -588c-15 -14 -31 -22 -50 -26
l-190 600l-159 -574c-15 -14 -31 -22 -50 -26z" />
    <glyph glyph-name="Wcircumflex" unicode="&#x174;" horiz-adv-x="1037" 
d="M533 808l-123 -64l-12 25l113 96h44l113 -96l-12 -25zM303 -12l-207 614c-11 32 -46 58 -81 58v32h238v-32c-70 0 -83 -26 -72 -58l156 -477h6l146 553c24 18 48 27 72 25l178 -578h6l145 476c10 33 -4 59 -74 59v32h206v-32c-35 0 -70 -26 -80 -58l-190 -588
c-15 -14 -31 -22 -50 -26l-190 600l-159 -574c-15 -14 -31 -22 -50 -26z" />
    <glyph glyph-name="Wdieresis" unicode="&#x1e84;" horiz-adv-x="1037" 
d="M433 761c-30 0 -56 26 -56 58c0 30 26 56 56 56c32 0 58 -26 58 -56c0 -32 -26 -58 -58 -58zM611 761c-30 0 -56 26 -56 58c0 30 26 56 56 56c32 0 58 -26 58 -56c0 -32 -26 -58 -58 -58zM303 -12l-207 614c-11 32 -46 58 -81 58v32h238v-32c-70 0 -83 -26 -72 -58
l156 -477h6l146 553c24 18 48 27 72 25l178 -578h6l145 476c10 33 -4 59 -74 59v32h206v-32c-35 0 -70 -26 -80 -58l-190 -588c-15 -14 -31 -22 -50 -26l-190 600l-159 -574c-15 -14 -31 -22 -50 -26z" />
    <glyph glyph-name="Wgrave" unicode="&#x1e80;" horiz-adv-x="1037" 
d="M585 774l-21 -25l-167 96v25h92zM303 -12l-207 614c-11 32 -46 58 -81 58v32h238v-32c-70 0 -83 -26 -72 -58l156 -477h6l146 553c24 18 48 27 72 25l178 -578h6l145 476c10 33 -4 59 -74 59v32h206v-32c-35 0 -70 -26 -80 -58l-190 -588c-15 -14 -31 -22 -50 -26
l-190 600l-159 -574c-15 -14 -31 -22 -50 -26z" />
    <glyph glyph-name="X" unicode="X" horiz-adv-x="706" 
d="M384 362l167 -234c45 -63 85 -89 140 -96v-32h-279v32c73 0 102 17 65 69l-140 198l-142 -204c-25 -36 -16 -63 70 -63v-32h-250v32c43 8 83 21 113 61l182 243l-186 262c-30 42 -50 54 -109 62v32h265v-32c-62 0 -99 -12 -47 -85l125 -176l117 176c46 69 18 85 -56 85
v32h250v-32c-30 0 -75 -6 -132 -85z" />
    <glyph glyph-name="Y" unicode="Y" horiz-adv-x="650" 
d="M199 0v32c63 0 93 29 93 63v185l-200 315c-33 52 -55 65 -82 65v32h242v-32c-95 0 -89 -28 -64 -69l157 -251h6l149 243c37 60 6 77 -61 77v32h201v-32c-22 0 -50 -20 -76 -62l-197 -313v-190c0 -34 30 -63 94 -63v-32h-262z" />
    <glyph glyph-name="Yacute" unicode="&#xdd;" horiz-adv-x="650" 
d="M445 840l-167 -96l-21 25l96 96h92v-25zM199 0v32c63 0 93 29 93 63v185l-200 315c-33 52 -55 65 -82 65v32h242v-32c-95 0 -89 -28 -64 -69l157 -251h6l149 243c37 60 6 77 -61 77v32h201v-32c-22 0 -50 -20 -76 -62l-197 -313v-190c0 -34 30 -63 94 -63v-32h-262z" />
    <glyph glyph-name="Ycircumflex" unicode="&#x176;" horiz-adv-x="650" 
d="M335 808l-123 -64l-12 25l113 96h44l113 -96l-12 -25zM199 0v32c63 0 93 29 93 63v185l-200 315c-33 52 -55 65 -82 65v32h242v-32c-95 0 -89 -28 -64 -69l157 -251h6l149 243c37 60 6 77 -61 77v32h201v-32c-22 0 -50 -20 -76 -62l-197 -313v-190c0 -34 30 -63 94 -63
v-32h-262z" />
    <glyph glyph-name="Ydieresis" unicode="&#x178;" horiz-adv-x="650" 
d="M235 761c-30 0 -56 26 -56 58c0 30 26 56 56 56c32 0 58 -26 58 -56c0 -32 -26 -58 -58 -58zM413 761c-30 0 -56 26 -56 58c0 30 26 56 56 56c32 0 58 -26 58 -56c0 -32 -26 -58 -58 -58zM199 0v32c63 0 93 29 93 63v185l-200 315c-33 52 -55 65 -82 65v32h242v-32
c-95 0 -89 -28 -64 -69l157 -251h6l149 243c37 60 6 77 -61 77v32h201v-32c-22 0 -50 -20 -76 -62l-197 -313v-190c0 -34 30 -63 94 -63v-32h-262z" />
    <glyph glyph-name="Ygrave" unicode="&#x1ef2;" horiz-adv-x="650" 
d="M387 774l-21 -25l-167 96v25h92zM199 0v32c63 0 93 29 93 63v185l-200 315c-33 52 -55 65 -82 65v32h242v-32c-95 0 -89 -28 -64 -69l157 -251h6l149 243c37 60 6 77 -61 77v32h201v-32c-22 0 -50 -20 -76 -62l-197 -313v-190c0 -34 30 -63 94 -63v-32h-262z" />
    <glyph glyph-name="Z" unicode="Z" horiz-adv-x="589" 
d="M527 210h32l-34 -210h-485l-10 23l415 629h-210c-86 0 -121 -26 -158 -170h-34l20 210h471l10 -23l-415 -629h219c107 0 146 25 179 170z" />
    <glyph glyph-name="Zacute" unicode="&#x179;" horiz-adv-x="589" 
d="M410 865v-25l-167 -96l-21 25l96 96h92zM527 210h32l-34 -210h-485l-10 23l415 629h-210c-86 0 -121 -26 -158 -170h-34l20 210h471l10 -23l-415 -629h219c107 0 146 25 179 170z" />
    <glyph glyph-name="Zcaron" unicode="&#x17d;" horiz-adv-x="589" 
d="M420 840l-113 -96h-44l-113 96l12 25l123 -64l123 64zM527 210h32l-34 -210h-485l-10 23l415 629h-210c-86 0 -121 -26 -158 -170h-34l20 210h471l10 -23l-415 -629h219c107 0 146 25 179 170z" />
    <glyph glyph-name="Zdotaccent" unicode="&#x17b;" horiz-adv-x="589" 
d="M289 765c-30 0 -55 25 -55 56c0 30 25 55 55 55c31 0 56 -25 56 -55c0 -31 -25 -56 -56 -56zM527 210h32l-34 -210h-485l-10 23l415 629h-210c-86 0 -121 -26 -158 -170h-34l20 210h471l10 -23l-415 -629h219c107 0 146 25 179 170z" />
    <glyph glyph-name="a" unicode="a" horiz-adv-x="478" 
d="M386 322v-189c0 -47 17 -76 71 -67v-29l-104 -49l-34 98h-6c-40 -72 -100 -98 -156 -98c-76 0 -124 49 -124 112c0 83 82 138 283 181v30c0 80 -36 123 -109 123c-59 0 -109 -29 -129 -97l-32 8c17 105 102 145 178 145c94 0 162 -62 162 -168zM186 48
c56 0 108 37 130 82v121c-178 -45 -206 -86 -206 -129c0 -40 23 -74 76 -74z" />
    <glyph glyph-name="aacute" unicode="&#xe1;" horiz-adv-x="478" 
d="M341 704v-20l-155 -150l-22 20l94 150h83zM386 322v-189c0 -47 17 -76 71 -67v-29l-104 -49l-34 98h-6c-40 -72 -100 -98 -156 -98c-76 0 -124 49 -124 112c0 83 82 138 283 181v30c0 80 -36 123 -109 123c-59 0 -109 -29 -129 -97l-32 8c17 105 102 145 178 145
c94 0 162 -62 162 -168zM186 48c56 0 108 37 130 82v121c-178 -45 -206 -86 -206 -129c0 -40 23 -74 76 -74z" />
    <glyph glyph-name="abreve" unicode="&#x103;" horiz-adv-x="478" 
d="M224 553c-66 0 -112 37 -112 119h28c3 -45 32 -63 84 -63c58 0 80 13 83 63h28c0 -94 -56 -119 -111 -119zM386 322v-189c0 -47 17 -76 71 -67v-29l-104 -49l-34 98h-6c-40 -72 -100 -98 -156 -98c-76 0 -124 49 -124 112c0 83 82 138 283 181v30c0 80 -36 123 -109 123
c-59 0 -109 -29 -129 -97l-32 8c17 105 102 145 178 145c94 0 162 -62 162 -168zM186 48c56 0 108 37 130 82v121c-178 -45 -206 -86 -206 -129c0 -40 23 -74 76 -74z" />
    <glyph glyph-name="acircumflex" unicode="&#xe2;" horiz-adv-x="478" 
d="M350 534l-126 99l-126 -99l-19 22l126 148h38l126 -148zM386 322v-189c0 -47 17 -76 71 -67v-29l-104 -49l-34 98h-6c-40 -72 -100 -98 -156 -98c-76 0 -124 49 -124 112c0 83 82 138 283 181v30c0 80 -36 123 -109 123c-59 0 -109 -29 -129 -97l-32 8
c17 105 102 145 178 145c94 0 162 -62 162 -168zM186 48c56 0 108 37 130 82v121c-178 -45 -206 -86 -206 -129c0 -40 23 -74 76 -74z" />
    <glyph glyph-name="adieresis" unicode="&#xe4;" horiz-adv-x="478" 
d="M137 586c-29 0 -54 25 -54 56c0 29 25 54 54 54c31 0 56 -25 56 -54c0 -31 -25 -56 -56 -56zM309 586c-29 0 -54 25 -54 56c0 29 25 54 54 54c31 0 56 -25 56 -54c0 -31 -25 -56 -56 -56zM386 322v-189c0 -47 17 -76 71 -67v-29l-104 -49l-34 98h-6
c-40 -72 -100 -98 -156 -98c-76 0 -124 49 -124 112c0 83 82 138 283 181v30c0 80 -36 123 -109 123c-59 0 -109 -29 -129 -97l-32 8c17 105 102 145 178 145c94 0 162 -62 162 -168zM186 48c56 0 108 37 130 82v121c-178 -45 -206 -86 -206 -129c0 -40 23 -74 76 -74z" />
    <glyph glyph-name="agrave" unicode="&#xe0;" horiz-adv-x="478" 
d="M166 704l94 -150l-22 -20l-155 150v20h83zM386 322v-189c0 -47 17 -76 71 -67v-29l-104 -49l-34 98h-6c-40 -72 -100 -98 -156 -98c-76 0 -124 49 -124 112c0 83 82 138 283 181v30c0 80 -36 123 -109 123c-59 0 -109 -29 -129 -97l-32 8c17 105 102 145 178 145
c94 0 162 -62 162 -168zM186 48c56 0 108 37 130 82v121c-178 -45 -206 -86 -206 -129c0 -40 23 -74 76 -74z" />
    <glyph glyph-name="amacron" unicode="&#x101;" horiz-adv-x="478" 
d="M80 636h288v-43h-288v43zM386 322v-189c0 -47 17 -76 71 -67v-29l-104 -49l-34 98h-6c-40 -72 -100 -98 -156 -98c-76 0 -124 49 -124 112c0 83 82 138 283 181v30c0 80 -36 123 -109 123c-59 0 -109 -29 -129 -97l-32 8c17 105 102 145 178 145c94 0 162 -62 162 -168z
M186 48c56 0 108 37 130 82v121c-178 -45 -206 -86 -206 -129c0 -40 23 -74 76 -74z" />
    <glyph glyph-name="aogonek" unicode="&#x105;" horiz-adv-x="478" 
d="M461 -130l9 -26c-25 -29 -65 -65 -120 -65c-56 0 -93 36 -93 85c0 44 25 89 93 134l-31 88h-6c-40 -72 -100 -98 -156 -98c-76 0 -124 49 -124 112c0 83 82 138 283 181v30c0 80 -36 123 -109 123c-59 0 -109 -29 -129 -97l-32 8c17 105 102 145 178 145
c94 0 162 -62 162 -168v-189c0 -47 17 -76 71 -67v-29c-123 -79 -134 -132 -134 -158c0 -31 17 -51 49 -51c26 0 55 14 89 42zM186 48c56 0 108 37 130 82v121c-178 -45 -206 -86 -206 -129c0 -40 23 -74 76 -74z" />
    <glyph glyph-name="aring" unicode="&#xe5;" horiz-adv-x="478" 
d="M223 544c-48 0 -84 36 -84 81c0 44 36 80 84 80c49 0 85 -36 85 -80c0 -45 -36 -81 -85 -81zM223 677c-32 0 -52 -24 -52 -52c0 -29 20 -52 52 -52c33 0 52 24 52 52s-19 52 -52 52zM386 322v-189c0 -47 17 -76 71 -67v-29l-104 -49l-34 98h-6c-40 -72 -100 -98 -156 -98
c-76 0 -124 49 -124 112c0 83 82 138 283 181v30c0 80 -36 123 -109 123c-59 0 -109 -29 -129 -97l-32 8c17 105 102 145 178 145c94 0 162 -62 162 -168zM186 48c56 0 108 37 130 82v121c-178 -45 -206 -86 -206 -129c0 -40 23 -74 76 -74z" />
    <glyph glyph-name="atilde" unicode="&#xe3;" horiz-adv-x="478" 
d="M154 603c-26 0 -43 -15 -59 -40l-22 15c32 66 63 87 98 87c47 0 88 -39 122 -39c23 0 34 9 56 39l19 -15c-32 -63 -67 -84 -94 -84c-51 0 -86 37 -120 37zM386 322v-189c0 -47 17 -76 71 -67v-29l-104 -49l-34 98h-6c-40 -72 -100 -98 -156 -98c-76 0 -124 49 -124 112
c0 83 82 138 283 181v30c0 80 -36 123 -109 123c-59 0 -109 -29 -129 -97l-32 8c17 105 102 145 178 145c94 0 162 -62 162 -168zM186 48c56 0 108 37 130 82v121c-178 -45 -206 -86 -206 -129c0 -40 23 -74 76 -74z" />
    <glyph glyph-name="ae" unicode="&#xe6;" horiz-adv-x="765" 
d="M725 267h-339v-7c0 -125 62 -210 167 -210c70 0 121 38 148 88l24 -15c-43 -89 -110 -135 -192 -135c-80 0 -156 45 -192 120c-61 -90 -129 -120 -184 -120c-76 0 -124 49 -124 112c0 83 82 138 283 181v30c0 80 -36 123 -109 123c-59 0 -109 -29 -129 -97l-32 8
c17 105 102 145 178 145c66 0 119 -30 145 -85c41 55 103 85 170 85c103 0 197 -69 186 -223zM524 446c-69 0 -122 -48 -135 -141h256c1 78 -42 141 -121 141zM186 48c56 0 108 43 130 96v107c-178 -45 -206 -86 -206 -129c0 -40 23 -74 76 -74z" />
    <glyph glyph-name="b" unicode="b" horiz-adv-x="553" 
d="M266 -12c-63 0 -127 20 -175 58v553c0 54 -12 63 -70 63v28l110 40h30v-337h1c37 58 90 97 159 97c102 0 188 -86 188 -231c0 -169 -118 -271 -243 -271zM271 40c104 0 163 82 163 202c0 125 -56 191 -136 191c-59 0 -105 -36 -137 -92v-263c27 -25 73 -38 110 -38z" />
    <glyph glyph-name="c" unicode="c" horiz-adv-x="491" 
d="M265 -12c-132 0 -221 104 -221 247c0 137 89 255 238 255c51 0 98 -14 137 -38l13 -135h-31c-24 109 -89 129 -135 129c-85 0 -147 -68 -147 -188c0 -127 65 -208 168 -208c68 0 121 39 147 88l23 -15c-33 -81 -105 -135 -192 -135z" />
    <glyph glyph-name="cacute" unicode="&#x107;" horiz-adv-x="491" 
d="M393 684l-155 -150l-22 20l94 150h83v-20zM265 -12c-132 0 -221 104 -221 247c0 137 89 255 238 255c51 0 98 -14 137 -38l13 -135h-31c-24 109 -89 129 -135 129c-85 0 -147 -68 -147 -188c0 -127 65 -208 168 -208c68 0 121 39 147 88l23 -15
c-33 -81 -105 -135 -192 -135z" />
    <glyph glyph-name="ccaron" unicode="&#x10d;" horiz-adv-x="491" 
d="M421 686l-126 -148h-38l-126 148l19 22l126 -99l126 99zM265 -12c-132 0 -221 104 -221 247c0 137 89 255 238 255c51 0 98 -14 137 -38l13 -135h-31c-24 109 -89 129 -135 129c-85 0 -147 -68 -147 -188c0 -127 65 -208 168 -208c68 0 121 39 147 88l23 -15
c-33 -81 -105 -135 -192 -135z" />
    <glyph glyph-name="ccedilla" unicode="&#xe7;" horiz-adv-x="491" 
d="M265 -12h-2l-5 -34c57 -13 91 -39 91 -87c0 -51 -38 -87 -93 -87c-42 0 -73 21 -87 36l15 32c18 -19 42 -31 67 -31c27 0 42 16 42 38c0 37 -32 51 -81 54l16 82c-111 17 -184 115 -184 244c0 137 89 255 238 255c51 0 98 -14 137 -38l13 -135h-31
c-24 109 -89 129 -135 129c-85 0 -147 -68 -147 -188c0 -127 65 -208 168 -208c68 0 121 39 147 88l23 -15c-33 -81 -105 -135 -192 -135z" />
    <glyph glyph-name="cdotaccent" unicode="&#x10b;" horiz-adv-x="491" 
d="M275 586c-30 0 -55 25 -55 56c0 30 25 55 55 55c31 0 56 -25 56 -55c0 -31 -25 -56 -56 -56zM265 -12c-132 0 -221 104 -221 247c0 137 89 255 238 255c51 0 98 -14 137 -38l13 -135h-31c-24 109 -89 129 -135 129c-85 0 -147 -68 -147 -188c0 -127 65 -208 168 -208
c68 0 121 39 147 88l23 -15c-33 -81 -105 -135 -192 -135z" />
    <glyph glyph-name="d" unicode="d" horiz-adv-x="554" 
d="M232 -12c-102 0 -188 84 -188 229c0 169 118 273 243 273c34 0 71 -8 105 -21v130c0 54 -12 63 -70 63v28l110 40h30v-594c0 -49 13 -76 71 -71v-28l-103 -49l-34 97h-5c-37 -56 -90 -97 -159 -97zM255 51c58 0 105 28 137 83v270c-33 26 -81 37 -110 37
c-104 0 -163 -81 -163 -207c0 -125 56 -183 136 -183z" />
    <glyph glyph-name="eth" unicode="&#xf0;" horiz-adv-x="519" 
d="M347 758l-70 -94c138 -82 210 -224 210 -390c0 -196 -103 -286 -226 -286c-140 0 -217 118 -217 254c0 153 97 248 219 248c49 0 95 -16 126 -47c-22 70 -64 137 -137 187l-82 -110l-29 23l79 107c-36 20 -80 37 -131 49l13 28c53 -9 100 -25 142 -45l74 99zM265 32
c89 0 146 82 146 250c0 28 -2 58 -6 87c-26 42 -79 68 -135 68c-98 0 -150 -82 -150 -199c0 -119 53 -206 145 -206z" />
    <glyph glyph-name="dcaron" unicode="&#x10f;" horiz-adv-x="649" 
d="M232 -12c-102 0 -188 84 -188 229c0 169 118 273 243 273c34 0 71 -8 105 -21v130c0 54 -12 63 -70 63v28l110 40h30v-594c0 -49 13 -76 71 -71v-28l-103 -49l-34 97h-5c-37 -56 -90 -97 -159 -97zM538 730h76c0 -62 -21 -126 -56 -188h-34c12 62 14 126 14 188zM255 51
c58 0 105 28 137 83v270c-33 26 -81 37 -110 37c-104 0 -163 -81 -163 -207c0 -125 56 -183 136 -183z" />
    <glyph glyph-name="dcroat" unicode="&#x111;" horiz-adv-x="554" 
d="M462 549v-413c0 -49 13 -76 71 -71v-28l-103 -49l-34 97h-5c-37 -56 -90 -97 -159 -97c-102 0 -188 84 -188 229c0 169 118 273 243 273c34 0 71 -8 105 -21v80h-165v36h165v14c0 54 -12 63 -70 63v28l110 40h30v-145h70v-36h-70zM392 134v270c-33 26 -81 37 -110 37
c-104 0 -163 -81 -163 -207c0 -125 56 -183 136 -183c58 0 105 28 137 83z" />
    <glyph glyph-name="e" unicode="e" horiz-adv-x="493" 
d="M453 267h-339v-7c0 -125 62 -210 167 -210c70 0 121 38 148 88l24 -15c-43 -89 -110 -135 -192 -135c-119 0 -217 98 -217 249c0 157 104 253 223 253c103 0 197 -69 186 -223zM252 446c-69 0 -122 -48 -135 -141h256c1 78 -42 141 -121 141z" />
    <glyph glyph-name="eacute" unicode="&#xe9;" horiz-adv-x="493" 
d="M380 704v-20l-155 -150l-22 20l94 150h83zM453 267h-339v-7c0 -125 62 -210 167 -210c70 0 121 38 148 88l24 -15c-43 -89 -110 -135 -192 -135c-119 0 -217 98 -217 249c0 157 104 253 223 253c103 0 197 -69 186 -223zM252 446c-69 0 -122 -48 -135 -141h256
c1 78 -42 141 -121 141z" />
    <glyph glyph-name="ecaron" unicode="&#x11b;" horiz-adv-x="493" 
d="M408 686l-126 -148h-38l-126 148l19 22l126 -99l126 99zM453 267h-339v-7c0 -125 62 -210 167 -210c70 0 121 38 148 88l24 -15c-43 -89 -110 -135 -192 -135c-119 0 -217 98 -217 249c0 157 104 253 223 253c103 0 197 -69 186 -223zM252 446c-69 0 -122 -48 -135 -141
h256c1 78 -42 141 -121 141z" />
    <glyph glyph-name="ecircumflex" unicode="&#xea;" horiz-adv-x="493" 
d="M389 534l-126 99l-126 -99l-19 22l126 148h38l126 -148zM453 267h-339v-7c0 -125 62 -210 167 -210c70 0 121 38 148 88l24 -15c-43 -89 -110 -135 -192 -135c-119 0 -217 98 -217 249c0 157 104 253 223 253c103 0 197 -69 186 -223zM252 446c-69 0 -122 -48 -135 -141
h256c1 78 -42 141 -121 141z" />
    <glyph glyph-name="edieresis" unicode="&#xeb;" horiz-adv-x="493" 
d="M176 586c-29 0 -54 25 -54 56c0 29 25 54 54 54c31 0 56 -25 56 -54c0 -31 -25 -56 -56 -56zM348 586c-29 0 -54 25 -54 56c0 29 25 54 54 54c31 0 56 -25 56 -54c0 -31 -25 -56 -56 -56zM453 267h-339v-7c0 -125 62 -210 167 -210c70 0 121 38 148 88l24 -15
c-43 -89 -110 -135 -192 -135c-119 0 -217 98 -217 249c0 157 104 253 223 253c103 0 197 -69 186 -223zM252 446c-69 0 -122 -48 -135 -141h256c1 78 -42 141 -121 141z" />
    <glyph glyph-name="edotaccent" unicode="&#x117;" horiz-adv-x="493" 
d="M262 586c-30 0 -55 25 -55 56c0 30 25 55 55 55c31 0 56 -25 56 -55c0 -31 -25 -56 -56 -56zM453 267h-339v-7c0 -125 62 -210 167 -210c70 0 121 38 148 88l24 -15c-43 -89 -110 -135 -192 -135c-119 0 -217 98 -217 249c0 157 104 253 223 253c103 0 197 -69 186 -223z
M252 446c-69 0 -122 -48 -135 -141h256c1 78 -42 141 -121 141z" />
    <glyph glyph-name="egrave" unicode="&#xe8;" horiz-adv-x="493" 
d="M205 704l94 -150l-22 -20l-155 150v20h83zM453 267h-339v-7c0 -125 62 -210 167 -210c70 0 121 38 148 88l24 -15c-43 -89 -110 -135 -192 -135c-119 0 -217 98 -217 249c0 157 104 253 223 253c103 0 197 -69 186 -223zM252 446c-69 0 -122 -48 -135 -141h256
c1 78 -42 141 -121 141z" />
    <glyph glyph-name="emacron" unicode="&#x113;" horiz-adv-x="493" 
d="M119 636h288v-43h-288v43zM453 267h-339v-7c0 -125 62 -210 167 -210c70 0 121 38 148 88l24 -15c-43 -89 -110 -135 -192 -135c-119 0 -217 98 -217 249c0 157 104 253 223 253c103 0 197 -69 186 -223zM252 446c-69 0 -122 -48 -135 -141h256c1 78 -42 141 -121 141z
" />
    <glyph glyph-name="eogonek" unicode="&#x119;" horiz-adv-x="493" 
d="M453 267h-339v-7c0 -125 62 -210 167 -210c70 0 121 38 148 88l24 -15c-32 -66 -56 -84 -87 -106c-48 -34 -93 -66 -93 -133c0 -37 17 -56 48 -56c27 0 56 14 90 42l9 -26c-25 -29 -65 -65 -121 -65c-54 0 -92 34 -92 90c0 37 16 77 67 119h-13c-119 0 -217 98 -217 249
c0 155 102 253 224 253c102 0 196 -69 185 -223zM252 446c-77 0 -125 -47 -136 -141h257c1 78 -42 141 -121 141z" />
    <glyph glyph-name="f" unicode="f" horiz-adv-x="320" 
d="M216 668c-44 0 -69 -37 -69 -94c0 -40 9 -71 24 -96h124v-38h-124v-360c0 -50 97 -52 119 -52v-28h-259v28c13 0 70 2 70 52v360h-70v25l70 13v75c0 123 63 177 141 177c29 0 48 -7 63 -15v-111h-25c-7 35 -13 64 -64 64z" />
    <glyph glyph-name="g" unicode="g" horiz-adv-x="470" 
d="M256 78c131 -25 184 -60 184 -135c0 -95 -85 -163 -215 -163c-114 0 -195 52 -195 136c0 55 34 96 94 131c-41 14 -59 31 -59 60c0 39 32 61 66 77c-50 27 -81 76 -81 140c0 100 78 166 177 166c36 0 70 -8 97 -24c16 15 23 32 23 51c0 18 -6 34 -18 45v23h78
c3 -4 10 -20 10 -38c0 -38 -24 -72 -71 -96c36 -29 58 -72 58 -125c0 -100 -75 -164 -178 -164c-21 0 -40 3 -58 8c-33 -15 -41 -27 -41 -43c0 -22 22 -28 129 -49zM218 456c-63 0 -97 -52 -97 -115c0 -69 40 -145 117 -145c63 0 95 50 95 113c0 69 -38 147 -115 147z
M244 -169c88 0 136 40 136 96c0 58 -52 72 -143 91c-30 6 -56 12 -78 18c-48 -27 -70 -57 -70 -96c0 -66 63 -109 155 -109z" />
    <glyph glyph-name="gbreve" unicode="&#x11f;" horiz-adv-x="470" 
d="M205 553c-66 0 -112 37 -112 119h28c3 -45 32 -63 84 -63c58 0 80 13 83 63h28c0 -94 -56 -119 -111 -119zM256 78c131 -25 184 -60 184 -135c0 -95 -85 -163 -215 -163c-114 0 -195 52 -195 136c0 55 34 96 94 131c-41 14 -59 31 -59 60c0 39 32 61 66 77
c-50 27 -81 76 -81 140c0 100 78 166 177 166c36 0 70 -8 97 -24c16 15 23 32 23 51c0 18 -6 34 -18 45v23h78c3 -4 10 -20 10 -38c0 -38 -24 -72 -71 -96c36 -29 58 -72 58 -125c0 -100 -75 -164 -178 -164c-21 0 -40 3 -58 8c-33 -15 -41 -27 -41 -43
c0 -22 22 -28 129 -49zM218 456c-63 0 -97 -52 -97 -115c0 -69 40 -145 117 -145c63 0 95 50 95 113c0 69 -38 147 -115 147zM244 -169c88 0 136 40 136 96c0 58 -52 72 -143 91c-30 6 -56 12 -78 18c-48 -27 -70 -57 -70 -96c0 -66 63 -109 155 -109z" />
    <glyph glyph-name="uni0123" unicode="&#x123;" horiz-adv-x="470" 
d="M235 550c-26 0 -51 23 -51 59c0 54 36 84 78 97l6 -17c-24 -9 -39 -19 -39 -37c0 -31 47 -25 47 -64c0 -21 -16 -38 -41 -38zM256 78c131 -25 184 -60 184 -135c0 -95 -85 -163 -215 -163c-114 0 -195 52 -195 136c0 55 34 96 94 131c-41 14 -59 31 -59 60
c0 39 32 61 66 77c-50 27 -81 76 -81 140c0 100 78 166 177 166c36 0 70 -8 97 -24c16 15 23 32 23 51c0 18 -6 34 -18 45v23h78c3 -4 10 -20 10 -38c0 -38 -24 -72 -71 -96c36 -29 58 -72 58 -125c0 -100 -75 -164 -178 -164c-21 0 -40 3 -58 8c-33 -15 -41 -27 -41 -43
c0 -22 22 -28 129 -49zM218 456c-63 0 -97 -52 -97 -115c0 -69 40 -145 117 -145c63 0 95 50 95 113c0 69 -38 147 -115 147zM244 -169c88 0 136 40 136 96c0 58 -52 72 -143 91c-30 6 -56 12 -78 18c-48 -27 -70 -57 -70 -96c0 -66 63 -109 155 -109z" />
    <glyph glyph-name="gdotaccent" unicode="&#x121;" horiz-adv-x="470" 
d="M224 586c-30 0 -55 25 -55 56c0 30 25 55 55 55c31 0 56 -25 56 -55c0 -31 -25 -56 -56 -56zM256 78c131 -25 184 -60 184 -135c0 -95 -85 -163 -215 -163c-114 0 -195 52 -195 136c0 55 34 96 94 131c-41 14 -59 31 -59 60c0 39 32 61 66 77c-50 27 -81 76 -81 140
c0 100 78 166 177 166c36 0 70 -8 97 -24c16 15 23 32 23 51c0 18 -6 34 -18 45v23h78c3 -4 10 -20 10 -38c0 -38 -24 -72 -71 -96c36 -29 58 -72 58 -125c0 -100 -75 -164 -178 -164c-21 0 -40 3 -58 8c-33 -15 -41 -27 -41 -43c0 -22 22 -28 129 -49zM218 456
c-63 0 -97 -52 -97 -115c0 -69 40 -145 117 -145c63 0 95 50 95 113c0 69 -38 147 -115 147zM244 -169c88 0 136 40 136 96c0 58 -52 72 -143 91c-30 6 -56 12 -78 18c-48 -27 -70 -57 -70 -96c0 -66 63 -109 155 -109z" />
    <glyph glyph-name="h" unicode="h" horiz-adv-x="582" 
d="M40 0v28c13 0 70 2 70 52v519c0 46 -26 65 -80 65v28l120 38h30v-338h6c31 55 84 98 158 98c86 0 143 -53 143 -148v-262c0 -50 57 -52 70 -52v-28h-210v28c13 0 70 2 70 52v239c0 75 -31 114 -93 114c-56 0 -112 -29 -144 -99v-254c0 -50 57 -52 70 -52v-28h-210z" />
    <glyph glyph-name="hbar" unicode="&#x127;" horiz-adv-x="582" 
d="M487 342v-262c0 -50 57 -52 70 -52v-28h-210v28c13 0 70 2 70 52v239c0 75 -31 114 -93 114c-56 0 -112 -29 -144 -99v-254c0 -50 57 -52 70 -52v-28h-210v28c13 0 70 2 70 52v474h-99v36h99v9c0 46 -26 65 -80 65v28l120 38h30v-140h136v-36h-136v-162h6
c31 55 84 98 158 98c86 0 143 -53 143 -148z" />
    <glyph glyph-name="i" unicode="i" horiz-adv-x="254" 
d="M127 596c-30 0 -54 24 -54 55c0 30 24 54 54 54c31 0 55 -24 55 -54c0 -31 -24 -55 -55 -55zM31 0v28c13 0 70 2 70 52v265c0 54 -12 65 -70 65v28l110 40h30v-398c0 -50 57 -52 70 -52v-28h-210z" />
    <glyph glyph-name="dotlessi" unicode="&#x131;" horiz-adv-x="254" 
d="M31 0v28c13 0 70 2 70 52v264c0 54 -12 65 -70 65v28l110 40h30v-397c0 -50 57 -52 70 -52v-28h-210z" />
    <glyph glyph-name="iacute" unicode="&#xed;" horiz-adv-x="254" 
d="M239 683l-155 -150l-22 20l94 150h83v-20zM31 0v28c13 0 70 2 70 52v264c0 54 -12 65 -70 65v28l110 40h30v-397c0 -50 57 -52 70 -52v-28h-210z" />
    <glyph glyph-name="icircumflex" unicode="&#xee;" horiz-adv-x="254" 
d="M103 703h38l126 -148l-19 -22l-126 99l-126 -99l-19 22zM31 0v28c13 0 70 2 70 52v264c0 54 -12 65 -70 65v28l110 40h30v-397c0 -50 57 -52 70 -52v-28h-210z" />
    <glyph glyph-name="idieresis" unicode="&#xef;" horiz-adv-x="254" 
d="M35 585c-29 0 -54 25 -54 56c0 29 25 54 54 54c31 0 56 -25 56 -54c0 -31 -25 -56 -56 -56zM207 585c-29 0 -54 25 -54 56c0 29 25 54 54 54c31 0 56 -25 56 -54c0 -31 -25 -56 -56 -56zM31 0v28c13 0 70 2 70 52v264c0 54 -12 65 -70 65v28l110 40h30v-397
c0 -50 57 -52 70 -52v-28h-210z" />
    <glyph glyph-name="i.loclTRK" horiz-adv-x="254" 
d="M121 585c-30 0 -55 25 -55 56c0 30 25 55 55 55c31 0 56 -25 56 -55c0 -31 -25 -56 -56 -56zM31 0v28c13 0 70 2 70 52v264c0 54 -12 65 -70 65v28l110 40h30v-397c0 -50 57 -52 70 -52v-28h-210z" />
    <glyph glyph-name="igrave" unicode="&#xec;" horiz-adv-x="254" 
d="M158 553l-22 -20l-155 150v20h83zM31 0v28c13 0 70 2 70 52v264c0 54 -12 65 -70 65v28l110 40h30v-397c0 -50 57 -52 70 -52v-28h-210z" />
    <glyph glyph-name="ij" unicode="&#x133;" horiz-adv-x="480" 
d="M127 596c-30 0 -54 24 -54 55c0 30 24 54 54 54c31 0 55 -24 55 -54c0 -31 -24 -55 -55 -55zM365 596c-30 0 -54 24 -54 55c0 30 24 54 54 54c31 0 55 -24 55 -54c0 -31 -24 -55 -55 -55zM31 0v28c13 0 70 2 70 52v265c0 54 -12 65 -70 65v28l110 40h30v-398
c0 -50 57 -52 70 -52v-28h-210zM267 -220l-8 27c78 30 80 92 80 213v330c0 54 -12 60 -70 60v28l110 40h30v-478c0 -136 -41 -202 -142 -220z" />
    <glyph glyph-name="imacron" unicode="&#x12b;" horiz-adv-x="254" 
d="M-22 592v43h288v-43h-288zM31 0v28c13 0 70 2 70 52v264c0 54 -12 65 -70 65v28l110 40h30v-397c0 -50 57 -52 70 -52v-28h-210z" />
    <glyph glyph-name="iogonek" unicode="&#x12f;" horiz-adv-x="254" 
d="M121 585c-30 0 -55 25 -55 56c0 30 25 55 55 55c31 0 56 -25 56 -55c0 -31 -25 -56 -56 -56zM241 0h-61c-84 -64 -87 -99 -87 -121c0 -31 17 -51 49 -51c26 0 55 14 89 42l9 -26c-25 -29 -65 -65 -120 -65c-56 0 -93 36 -93 85c0 42 21 87 107 136h-103v28
c13 0 70 2 70 52v265c0 54 -12 65 -70 65v28l110 40h30v-398c0 -50 57 -52 70 -52v-28z" />
    <glyph glyph-name="j" unicode="j" horiz-adv-x="226" 
d="M111 596c-30 0 -54 24 -54 55c0 30 24 54 54 54c31 0 55 -24 55 -54c0 -31 -24 -55 -55 -55zM13 -220l-8 27c78 30 80 92 80 213v330c0 54 -12 60 -70 60v28l110 40h30v-478c0 -136 -41 -202 -142 -220z" />
    <glyph glyph-name="uni0237" unicode="&#x237;" horiz-adv-x="215" 
d="M13 -212l-8 27c78 30 80 84 80 205v330c0 54 -12 60 -70 60v28l110 40h30v-478c0 -136 -41 -194 -142 -212z" />
    <glyph glyph-name="uni006A0301" horiz-adv-x="215" 
d="M231 684l-155 -150l-22 20l94 150h83v-20zM13 -212l-8 27c78 30 80 84 80 205v330c0 54 -12 60 -70 60v28l110 40h30v-478c0 -136 -41 -194 -142 -212z" />
    <glyph glyph-name="k" unicode="k" horiz-adv-x="511" 
d="M269 291l125 -179c41 -59 60 -84 107 -84v-28h-118l-162 240l-51 -53v-107c0 -50 57 -52 70 -52v-28h-210v28c13 0 70 2 70 52v519c0 54 -12 63 -70 63v28l110 40h30v-494l131 143c43 48 40 71 -7 71v28h190v-28c-54 0 -90 -26 -138 -77z" />
    <glyph glyph-name="uni0137" unicode="&#x137;" horiz-adv-x="511" 
d="M269 291l125 -179c41 -59 60 -84 107 -84v-28h-118l-162 240l-51 -53v-107c0 -50 57 -52 70 -52v-28h-210v28c13 0 70 2 70 52v519c0 54 -12 63 -70 63v28l110 40h30v-494l131 143c43 48 40 71 -7 71v28h190v-28c-54 0 -90 -26 -138 -77zM287 -37c26 0 51 -23 51 -59
c0 -54 -36 -84 -78 -97l-6 17c24 9 39 19 39 37c0 31 -47 25 -47 64c0 21 16 38 41 38z" />
    <glyph glyph-name="l" unicode="l" horiz-adv-x="265" 
d="M30 0v28c13 0 70 2 70 52v519c0 54 -12 63 -70 63v28l110 40h30v-650c0 -50 57 -52 70 -52v-28h-210z" />
    <glyph glyph-name="lacute" unicode="&#x13a;" horiz-adv-x="233" 
d="M211 811l-197 -88l-14 26l140 109l78 -28zM30 0v28c13 0 70 2 70 52v519c0 54 -12 63 -70 63v28l110 40h30v-650c0 -50 57 -52 70 -52v-28h-210z" />
    <glyph glyph-name="lcaron" unicode="&#x13e;" horiz-adv-x="360" 
d="M30 0v28c13 0 70 2 70 52v519c0 54 -12 63 -70 63v28l110 40h30v-650c0 -50 57 -52 70 -52v-28h-210zM246 730h76c0 -62 -21 -126 -56 -188h-34c12 62 14 126 14 188z" />
    <glyph glyph-name="uni013C" unicode="&#x13c;" horiz-adv-x="265" 
d="M30 0v28c13 0 70 2 70 52v519c0 54 -12 63 -70 63v28l110 40h30v-650c0 -50 57 -52 70 -52v-28h-210zM96 -193l-6 17c24 9 39 19 39 37c0 31 -47 25 -47 64c0 21 16 38 41 38c26 0 51 -23 51 -59c0 -54 -36 -84 -78 -97z" />
    <glyph glyph-name="ldot" unicode="&#x140;" horiz-adv-x="365" 
d="M30 0v28c13 0 70 2 70 52v519c0 54 -12 63 -70 63v28l110 40h30v-650c0 -50 57 -52 70 -52v-28h-210zM310 295c-29 0 -55 24 -55 55s26 55 55 55s55 -24 55 -55s-26 -55 -55 -55z" />
    <glyph glyph-name="lslash" unicode="&#x142;" horiz-adv-x="265" 
d="M170 401v-321c0 -50 57 -52 70 -52v-28h-210v28c13 0 70 2 70 52v274l-68 -46l-20 29l88 60v202c0 54 -12 63 -70 63v28l110 40h30v-286l71 48l21 -29z" />
    <glyph glyph-name="m" unicode="m" horiz-adv-x="860" 
d="M765 342v-262c0 -50 57 -52 70 -52v-28h-210v28c13 0 70 2 70 52v239c0 75 -31 114 -93 114c-51 0 -104 -28 -134 -97v-256c0 -50 57 -52 70 -52v-28h-210v28c13 0 70 2 70 52v239c0 75 -31 114 -93 114c-52 0 -104 -29 -134 -99v-254c0 -50 57 -52 70 -52v-28h-210v28
c13 0 70 2 70 52v264c0 56 -18 70 -70 70v28l102 47l34 -97h6c29 55 79 98 152 98c69 0 120 -35 137 -98h7c29 55 80 98 153 98c86 0 143 -53 143 -148z" />
    <glyph glyph-name="n" unicode="n" horiz-adv-x="573" 
d="M31 0v28c13 0 70 2 70 52v264c0 56 -18 70 -70 70v28l102 47l34 -97h6c31 55 84 98 162 98c86 0 143 -53 143 -148v-262c0 -50 57 -52 70 -52v-28h-210v28c13 0 70 2 70 52v239c0 75 -31 114 -93 114c-56 0 -112 -29 -144 -99v-254c0 -50 57 -52 70 -52v-28h-210z" />
    <glyph glyph-name="nacute" unicode="&#x144;" horiz-adv-x="573" 
d="M398 684l-155 -150l-22 20l94 150h83v-20zM31 0v28c13 0 70 2 70 52v264c0 56 -18 70 -70 70v28l102 47l34 -97h6c31 55 84 98 162 98c86 0 143 -53 143 -148v-262c0 -50 57 -52 70 -52v-28h-210v28c13 0 70 2 70 52v239c0 75 -31 114 -93 114c-56 0 -112 -29 -144 -99
v-254c0 -50 57 -52 70 -52v-28h-210z" />
    <glyph glyph-name="ncaron" unicode="&#x148;" horiz-adv-x="573" 
d="M426 686l-126 -148h-38l-126 148l19 22l126 -99l126 99zM31 0v28c13 0 70 2 70 52v264c0 56 -18 70 -70 70v28l102 47l34 -97h6c31 55 84 98 162 98c86 0 143 -53 143 -148v-262c0 -50 57 -52 70 -52v-28h-210v28c13 0 70 2 70 52v239c0 75 -31 114 -93 114
c-56 0 -112 -29 -144 -99v-254c0 -50 57 -52 70 -52v-28h-210z" />
    <glyph glyph-name="uni0146" unicode="&#x146;" horiz-adv-x="573" 
d="M31 0v28c13 0 70 2 70 52v264c0 56 -18 70 -70 70v28l102 47l34 -97h6c31 55 84 98 162 98c86 0 143 -53 143 -148v-262c0 -50 57 -52 70 -52v-28h-210v28c13 0 70 2 70 52v239c0 75 -31 114 -93 114c-56 0 -112 -29 -144 -99v-254c0 -50 57 -52 70 -52v-28h-210z
M247 -193l-6 17c24 9 39 19 39 37c0 31 -47 25 -47 64c0 21 16 38 41 38c26 0 51 -23 51 -59c0 -54 -36 -84 -78 -97z" />
    <glyph glyph-name="ntilde" unicode="&#xf1;" horiz-adv-x="573" 
d="M152 563l-22 15c32 66 63 87 98 87c47 0 88 -39 122 -39c23 0 34 9 56 39l19 -15c-32 -63 -67 -84 -94 -84c-51 0 -86 37 -120 37c-26 0 -43 -15 -59 -40zM31 0v28c13 0 70 2 70 52v264c0 56 -18 70 -70 70v28l102 47l34 -97h6c31 55 84 98 162 98c86 0 143 -53 143 -148
v-262c0 -50 57 -52 70 -52v-28h-210v28c13 0 70 2 70 52v239c0 75 -31 114 -93 114c-56 0 -112 -29 -144 -99v-254c0 -50 57 -52 70 -52v-28h-210z" />
    <glyph glyph-name="o" unicode="o" horiz-adv-x="537" 
d="M268 -12c-135 0 -224 106 -224 246c0 147 90 256 225 256c128 0 224 -100 224 -250c0 -142 -85 -252 -225 -252zM281 32c84 0 137 70 137 190c0 128 -58 224 -157 224c-83 0 -142 -67 -142 -192c0 -126 63 -222 162 -222z" />
    <glyph glyph-name="oacute" unicode="&#xf3;" horiz-adv-x="537" 
d="M386 684l-155 -150l-22 20l94 150h83v-20zM268 -12c-135 0 -224 106 -224 246c0 147 90 256 225 256c128 0 224 -100 224 -250c0 -142 -85 -252 -225 -252zM281 32c84 0 137 70 137 190c0 128 -58 224 -157 224c-83 0 -142 -67 -142 -192c0 -126 63 -222 162 -222z" />
    <glyph glyph-name="ocircumflex" unicode="&#xf4;" horiz-adv-x="537" 
d="M250 704h38l126 -148l-19 -22l-126 99l-126 -99l-19 22zM268 -12c-135 0 -224 106 -224 246c0 147 90 256 225 256c128 0 224 -100 224 -250c0 -142 -85 -252 -225 -252zM281 32c84 0 137 70 137 190c0 128 -58 224 -157 224c-83 0 -142 -67 -142 -192
c0 -126 63 -222 162 -222z" />
    <glyph glyph-name="odieresis" unicode="&#xf6;" horiz-adv-x="537" 
d="M182 586c-29 0 -54 25 -54 56c0 29 25 54 54 54c31 0 56 -25 56 -54c0 -31 -25 -56 -56 -56zM354 586c-29 0 -54 25 -54 56c0 29 25 54 54 54c31 0 56 -25 56 -54c0 -31 -25 -56 -56 -56zM268 -12c-135 0 -224 106 -224 246c0 147 90 256 225 256
c128 0 224 -100 224 -250c0 -142 -85 -252 -225 -252zM281 32c84 0 137 70 137 190c0 128 -58 224 -157 224c-83 0 -142 -67 -142 -192c0 -126 63 -222 162 -222z" />
    <glyph glyph-name="ograve" unicode="&#xf2;" horiz-adv-x="537" 
d="M305 554l-22 -20l-155 150v20h83zM268 -12c-135 0 -224 106 -224 246c0 147 90 256 225 256c128 0 224 -100 224 -250c0 -142 -85 -252 -225 -252zM281 32c84 0 137 70 137 190c0 128 -58 224 -157 224c-83 0 -142 -67 -142 -192c0 -126 63 -222 162 -222z" />
    <glyph glyph-name="ohungarumlaut" unicode="&#x151;" horiz-adv-x="537" 
d="M332 684l-129 -145l-27 15l76 150h80v-20zM452 684l-132 -147l-25 17l75 150h82v-20zM268 -12c-135 0 -224 106 -224 246c0 147 90 256 225 256c128 0 224 -100 224 -250c0 -142 -85 -252 -225 -252zM281 32c84 0 137 70 137 190c0 128 -58 224 -157 224
c-83 0 -142 -67 -142 -192c0 -126 63 -222 162 -222z" />
    <glyph glyph-name="omacron" unicode="&#x14d;" horiz-adv-x="537" 
d="M125 593v43h288v-43h-288zM268 -12c-135 0 -224 106 -224 246c0 147 90 256 225 256c128 0 224 -100 224 -250c0 -142 -85 -252 -225 -252zM281 32c84 0 137 70 137 190c0 128 -58 224 -157 224c-83 0 -142 -67 -142 -192c0 -126 63 -222 162 -222z" />
    <glyph glyph-name="oslash" unicode="&#xf8;" horiz-adv-x="537" 
d="M474 465l-40 -50c37 -43 59 -103 59 -175c0 -142 -85 -252 -225 -252c-55 0 -103 18 -140 48l-37 -46l-27 22l39 49c-38 44 -59 104 -59 173c0 147 90 256 225 256c54 0 102 -18 140 -49l37 46zM119 254c0 -52 11 -99 30 -136l220 274c-26 34 -63 54 -108 54
c-83 0 -142 -67 -142 -192zM281 32c84 0 137 70 137 190c0 53 -10 101 -29 138l-220 -273c28 -34 66 -55 112 -55z" />
    <glyph glyph-name="otilde" unicode="&#xf5;" horiz-adv-x="537" 
d="M140 563l-22 15c32 66 63 87 98 87c47 0 88 -39 122 -39c23 0 34 9 56 39l19 -15c-32 -63 -67 -84 -94 -84c-51 0 -86 37 -120 37c-26 0 -43 -15 -59 -40zM268 -12c-135 0 -224 106 -224 246c0 147 90 256 225 256c128 0 224 -100 224 -250c0 -142 -85 -252 -225 -252z
M281 32c84 0 137 70 137 190c0 128 -58 224 -157 224c-83 0 -142 -67 -142 -192c0 -126 63 -222 162 -222z" />
    <glyph glyph-name="oe" unicode="&#x153;" horiz-adv-x="867" 
d="M827 267h-339v-7c0 -125 62 -210 167 -210c70 0 121 38 148 88l24 -15c-43 -89 -110 -135 -192 -135c-76 0 -144 40 -183 109c-34 -68 -96 -111 -184 -111c-135 0 -224 106 -224 248c0 147 90 256 225 256c83 0 148 -42 184 -112c40 72 111 112 188 112
c103 0 197 -69 186 -223zM281 30c84 0 137 70 137 192c0 128 -58 224 -157 224c-83 0 -142 -67 -142 -192c0 -128 63 -224 162 -224zM626 446c-69 0 -122 -48 -135 -141h256c1 78 -42 141 -121 141z" />
    <glyph glyph-name="p" unicode="p" horiz-adv-x="563" 
d="M31 -208v28c13 0 70 2 70 52v469c0 45 -9 78 -71 72v28l103 48l33 -96h6c37 58 90 97 159 97c102 0 188 -86 188 -231c0 -169 -118 -271 -243 -271c-42 0 -79 9 -105 24v-140c0 -50 57 -52 70 -52v-28h-210zM281 40c104 0 163 82 163 202c0 125 -56 191 -136 191
c-59 0 -105 -36 -137 -92v-263c27 -25 73 -38 110 -38z" />
    <glyph glyph-name="thorn" unicode="&#xfe;" horiz-adv-x="562" 
d="M30 -208v28c13 0 70 2 70 52v727c0 54 -12 63 -70 63v28l110 40h30v-338h6c37 58 85 97 154 97c102 0 188 -88 188 -233c0 -169 -118 -269 -243 -269c-42 0 -79 9 -105 24v-139c0 -50 74 -52 91 -52v-28h-231zM280 39c104 0 159 82 159 202c0 125 -52 191 -132 191
c-59 0 -105 -36 -137 -92v-263c27 -25 73 -38 110 -38z" />
    <glyph glyph-name="q" unicode="q" horiz-adv-x="538" 
d="M301 -208v28c17 0 91 2 91 52v209h-6c-37 -57 -85 -93 -154 -93c-102 0 -188 84 -188 229c0 169 118 273 243 273c36 0 74 -9 110 -23l50 22l15 -12v-605c0 -50 57 -52 70 -52v-28h-231zM255 51c59 0 105 29 137 85v267c-33 27 -81 38 -110 38c-104 0 -163 -81 -163 -207
c0 -125 56 -183 136 -183z" />
    <glyph glyph-name="r" unicode="r" horiz-adv-x="369" 
d="M31 0v28c13 0 70 2 70 52v264c0 56 -18 70 -70 70v28l102 47l34 -115h5c25 55 67 116 128 116c26 0 46 -8 50 -12v-119h-26c-3 29 -20 51 -52 51c-43 0 -101 -77 -101 -136v-194c0 -50 74 -52 91 -52v-28h-231z" />
    <glyph glyph-name="racute" unicode="&#x155;" horiz-adv-x="369" 
d="M302 684l-155 -150l-22 20l94 150h83v-20zM31 0v28c13 0 70 2 70 52v264c0 56 -18 70 -70 70v28l102 47l34 -115h5c25 55 67 116 128 116c26 0 46 -8 50 -12v-119h-26c-3 29 -20 51 -52 51c-43 0 -101 -77 -101 -136v-194c0 -50 74 -52 91 -52v-28h-231z" />
    <glyph glyph-name="rcaron" unicode="&#x159;" horiz-adv-x="369" 
d="M330 686l-126 -148h-38l-126 148l19 22l126 -99l126 99zM31 0v28c13 0 70 2 70 52v264c0 56 -18 70 -70 70v28l102 47l34 -115h5c25 55 67 116 128 116c26 0 46 -8 50 -12v-119h-26c-3 29 -20 51 -52 51c-43 0 -101 -77 -101 -136v-194c0 -50 74 -52 91 -52v-28h-231z
" />
    <glyph glyph-name="uni0157" unicode="&#x157;" horiz-adv-x="369" 
d="M31 0v28c13 0 70 2 70 52v264c0 56 -18 70 -70 70v28l102 47l34 -115h5c25 55 67 116 128 116c26 0 46 -8 50 -12v-119h-26c-3 29 -20 51 -52 51c-43 0 -101 -77 -101 -136v-194c0 -50 74 -52 91 -52v-28h-231zM111 -193l-6 17c24 9 39 19 39 37c0 31 -47 25 -47 64
c0 21 16 38 41 38c26 0 51 -23 51 -59c0 -54 -36 -84 -78 -97z" />
    <glyph glyph-name="s" unicode="s" horiz-adv-x="401" 
d="M199 -12c-83 0 -139 30 -164 45l11 123h29c4 -91 51 -126 130 -126c67 0 105 36 105 82c0 141 -272 76 -272 248c0 74 70 130 159 130c54 0 104 -13 146 -38l-5 -113h-29c-4 80 -52 111 -115 111c-58 0 -98 -27 -98 -72c0 -111 275 -64 275 -243
c0 -78 -60 -147 -172 -147z" />
    <glyph glyph-name="sacute" unicode="&#x15b;" horiz-adv-x="401" 
d="M316 684l-155 -150l-22 20l94 150h83v-20zM199 -12c-83 0 -139 30 -164 45l11 123h29c4 -91 51 -126 130 -126c67 0 105 36 105 82c0 141 -272 76 -272 248c0 74 70 130 159 130c54 0 104 -13 146 -38l-5 -113h-29c-4 80 -52 111 -115 111c-58 0 -98 -27 -98 -72
c0 -111 275 -64 275 -243c0 -78 -60 -147 -172 -147z" />
    <glyph glyph-name="scaron" unicode="&#x161;" horiz-adv-x="401" 
d="M344 686l-126 -148h-38l-126 148l19 22l126 -99l126 99zM199 -12c-83 0 -139 30 -164 45l11 123h29c4 -91 51 -126 130 -126c67 0 105 36 105 82c0 141 -272 76 -272 248c0 74 70 130 159 130c54 0 104 -13 146 -38l-5 -113h-29c-4 80 -52 111 -115 111
c-58 0 -98 -27 -98 -72c0 -111 275 -64 275 -243c0 -78 -60 -147 -172 -147z" />
    <glyph glyph-name="scedilla" unicode="&#x15f;" horiz-adv-x="401" 
d="M371 135c0 -74 -54 -140 -156 -146l-5 -35c57 -13 91 -39 91 -87c0 -51 -38 -87 -93 -87c-42 0 -73 21 -87 36l15 32c18 -19 42 -31 67 -31c27 0 42 16 42 38c0 37 -32 51 -81 54l16 80c-73 4 -122 30 -145 44l11 123h29c4 -91 51 -126 130 -126c67 0 105 36 105 82
c0 141 -272 76 -272 248c0 74 70 130 159 130c54 0 104 -13 146 -38l-5 -113h-29c-4 80 -52 111 -115 111c-58 0 -98 -27 -98 -72c0 -111 275 -64 275 -243z" />
    <glyph glyph-name="uni0219" unicode="&#x219;" horiz-adv-x="401" 
d="M199 -12c-83 0 -139 30 -164 45l11 123h29c4 -91 51 -126 130 -126c67 0 105 36 105 82c0 141 -272 76 -272 248c0 74 70 130 159 130c54 0 104 -13 146 -38l-5 -113h-29c-4 80 -52 111 -115 111c-58 0 -98 -27 -98 -72c0 -111 275 -64 275 -243
c0 -78 -60 -147 -172 -147zM169 -193l-6 17c24 9 39 19 39 37c0 31 -47 25 -47 64c0 21 16 38 41 38c26 0 51 -23 51 -59c0 -54 -36 -84 -78 -97z" />
    <glyph glyph-name="germandbls" unicode="&#xdf;" horiz-adv-x="587" 
d="M332 368c0 -100 225 -61 225 -228c0 -86 -60 -152 -164 -152c-70 0 -127 30 -152 45l11 112h29c4 -80 47 -115 114 -115s101 36 101 84c0 126 -229 95 -229 236c0 105 129 136 129 229c0 53 -42 99 -112 99c-82 0 -113 -64 -113 -166v-512h-140v28c13 0 70 2 70 52v360
h-70v25l70 12v25c0 134 72 228 191 228c99 0 173 -64 173 -142c0 -105 -133 -144 -133 -220z" />
    <glyph glyph-name="t" unicode="t" horiz-adv-x="343" 
d="M311 478v-38h-158v-293c0 -71 16 -100 64 -100c38 0 71 29 94 55l17 -18c-30 -52 -83 -96 -139 -96c-73 0 -106 49 -106 145v307h-68v28c66 14 100 77 110 142h28v-132h158z" />
    <glyph glyph-name="tcaron" unicode="&#x165;" horiz-adv-x="358" 
d="M229 730h76c0 -62 -21 -126 -56 -188h-34c12 62 14 126 14 188zM311 478v-38h-158v-293c0 -71 16 -100 64 -100c38 0 71 29 94 55l17 -18c-30 -52 -83 -96 -139 -96c-73 0 -106 49 -106 145v307h-68v28c66 14 100 77 110 142h28v-132h158z" />
    <glyph glyph-name="uni0163" unicode="&#x163;" horiz-adv-x="343" 
d="M209 -10l-5 -36c57 -13 91 -39 91 -87c0 -51 -38 -87 -93 -87c-42 0 -73 21 -87 36l15 32c18 -19 42 -31 67 -31c27 0 42 16 42 38c0 37 -32 51 -81 54l16 80c-63 6 -91 55 -91 144v307h-68v28c66 14 100 77 110 142h28v-132h158v-38h-158v-293c0 -71 16 -100 64 -100
c38 0 71 29 94 55l17 -18c-26 -46 -70 -85 -119 -94z" />
    <glyph glyph-name="uni021B" unicode="&#x21b;" horiz-adv-x="343" 
d="M311 478v-38h-158v-293c0 -71 16 -100 64 -100c38 0 71 29 94 55l17 -18c-30 -52 -83 -96 -139 -96c-73 0 -106 49 -106 145v307h-68v28c66 14 100 77 110 142h28v-132h158zM163 -193l-6 17c24 9 39 19 39 37c0 31 -47 25 -47 64c0 21 16 38 41 38c26 0 51 -23 51 -59
c0 -54 -36 -84 -78 -97z" />
    <glyph glyph-name="u" unicode="u" horiz-adv-x="541" 
d="M225 -12c-76 0 -140 52 -140 152v207c0 54 -12 63 -70 63v28l110 40h30v-315c0 -78 30 -117 88 -117c50 0 98 29 132 96v205c0 54 -12 63 -70 63v28l110 40h30v-345c0 -46 12 -72 70 -68v-28l-102 -49l-34 98h-6c-25 -44 -76 -98 -148 -98z" />
    <glyph glyph-name="uacute" unicode="&#xfa;" horiz-adv-x="541" 
d="M388 684l-155 -150l-22 20l94 150h83v-20zM225 -12c-76 0 -140 52 -140 152v207c0 54 -12 63 -70 63v28l110 40h30v-315c0 -78 30 -117 88 -117c50 0 98 29 132 96v205c0 54 -12 63 -70 63v28l110 40h30v-345c0 -46 12 -72 70 -68v-28l-102 -49l-34 98h-6
c-25 -44 -76 -98 -148 -98z" />
    <glyph glyph-name="ucircumflex" unicode="&#xfb;" horiz-adv-x="541" 
d="M252 704h38l126 -148l-19 -22l-126 99l-126 -99l-19 22zM225 -12c-76 0 -140 52 -140 152v207c0 54 -12 63 -70 63v28l110 40h30v-315c0 -78 30 -117 88 -117c50 0 98 29 132 96v205c0 54 -12 63 -70 63v28l110 40h30v-345c0 -46 12 -72 70 -68v-28l-102 -49l-34 98h-6
c-25 -44 -76 -98 -148 -98z" />
    <glyph glyph-name="udieresis" unicode="&#xfc;" horiz-adv-x="541" 
d="M184 586c-29 0 -54 25 -54 56c0 29 25 54 54 54c31 0 56 -25 56 -54c0 -31 -25 -56 -56 -56zM356 586c-29 0 -54 25 -54 56c0 29 25 54 54 54c31 0 56 -25 56 -54c0 -31 -25 -56 -56 -56zM225 -12c-76 0 -140 52 -140 152v207c0 54 -12 63 -70 63v28l110 40h30v-315
c0 -78 30 -117 88 -117c50 0 98 29 132 96v205c0 54 -12 63 -70 63v28l110 40h30v-345c0 -46 12 -72 70 -68v-28l-102 -49l-34 98h-6c-25 -44 -76 -98 -148 -98z" />
    <glyph glyph-name="ugrave" unicode="&#xf9;" horiz-adv-x="541" 
d="M307 554l-22 -20l-155 150v20h83zM225 -12c-76 0 -140 52 -140 152v207c0 54 -12 63 -70 63v28l110 40h30v-315c0 -78 30 -117 88 -117c50 0 98 29 132 96v205c0 54 -12 63 -70 63v28l110 40h30v-345c0 -46 12 -72 70 -68v-28l-102 -49l-34 98h-6
c-25 -44 -76 -98 -148 -98z" />
    <glyph glyph-name="uhungarumlaut" unicode="&#x171;" horiz-adv-x="541" 
d="M334 684l-129 -145l-27 15l76 150h80v-20zM454 684l-132 -147l-25 17l75 150h82v-20zM225 -12c-76 0 -140 52 -140 152v207c0 54 -12 63 -70 63v28l110 40h30v-315c0 -78 30 -117 88 -117c50 0 98 29 132 96v205c0 54 -12 63 -70 63v28l110 40h30v-345
c0 -46 12 -72 70 -68v-28l-102 -49l-34 98h-6c-25 -44 -76 -98 -148 -98z" />
    <glyph glyph-name="umacron" unicode="&#x16b;" horiz-adv-x="541" 
d="M127 593v43h288v-43h-288zM225 -12c-76 0 -140 52 -140 152v207c0 54 -12 63 -70 63v28l110 40h30v-315c0 -78 30 -117 88 -117c50 0 98 29 132 96v205c0 54 -12 63 -70 63v28l110 40h30v-345c0 -46 12 -72 70 -68v-28l-102 -49l-34 98h-6c-25 -44 -76 -98 -148 -98z" />
    <glyph glyph-name="uogonek" unicode="&#x173;" horiz-adv-x="541" 
d="M519 -130l9 -26c-25 -29 -65 -65 -120 -65c-56 0 -93 36 -93 85c0 44 25 89 94 135l-30 87h-6c-25 -44 -76 -98 -148 -98c-76 0 -140 52 -140 152v207c0 54 -12 63 -70 63v28l110 40h30v-315c0 -78 30 -117 88 -117c50 0 98 29 132 96v205c0 54 -12 63 -70 63v28l110 40
h30v-345c0 -46 12 -72 70 -68v-28c-123 -79 -134 -132 -134 -158c0 -31 17 -51 49 -51c26 0 55 14 89 42z" />
    <glyph glyph-name="uring" unicode="&#x16f;" horiz-adv-x="541" 
d="M270 544c-48 0 -84 36 -84 81c0 44 36 80 84 80c49 0 85 -36 85 -80c0 -45 -36 -81 -85 -81zM270 573c33 0 52 24 52 52s-19 52 -52 52c-32 0 -52 -24 -52 -52c0 -29 20 -52 52 -52zM225 -12c-76 0 -140 52 -140 152v207c0 54 -12 63 -70 63v28l110 40h30v-315
c0 -78 30 -117 88 -117c50 0 98 29 132 96v205c0 54 -12 63 -70 63v28l110 40h30v-345c0 -46 12 -72 70 -68v-28l-102 -49l-34 98h-6c-25 -44 -76 -98 -148 -98z" />
    <glyph glyph-name="v" unicode="v" horiz-adv-x="505" 
d="M325 450v28h170v-28c-35 -7 -49 -32 -68 -78l-156 -372c-13 -7 -24 -10 -35 -11l-174 422c-14 33 -28 39 -52 39v28h197v-28c-56 0 -74 -21 -52 -75l112 -279l110 279c25 64 -3 72 -52 75z" />
    <glyph glyph-name="w" unicode="w" horiz-adv-x="782" 
d="M591 450v28h181v-28c-32 0 -51 -21 -69 -67l-146 -380c-12 -8 -24 -10 -36 -11l-131 367l-131 -356c-12 -8 -24 -10 -36 -11l-161 419c-13 33 -28 39 -52 39v28h200v-28c-58 0 -75 -19 -55 -75l97 -271l136 363c12 4 23 5 35 5l129 -368l99 271c21 57 -5 75 -60 75z" />
    <glyph glyph-name="wacute" unicode="&#x1e83;" horiz-adv-x="782" 
d="M508 704v-20l-155 -150l-22 20l94 150h83zM591 450v28h181v-28c-32 0 -51 -21 -69 -67l-146 -380c-12 -8 -24 -10 -36 -11l-131 367l-131 -356c-12 -8 -24 -10 -36 -11l-161 419c-13 33 -28 39 -52 39v28h200v-28c-58 0 -75 -19 -55 -75l97 -271l136 363c12 4 23 5 35 5
l129 -368l99 271c21 57 -5 75 -60 75z" />
    <glyph glyph-name="wcircumflex" unicode="&#x175;" horiz-adv-x="782" 
d="M517 534l-126 99l-126 -99l-19 22l126 148h38l126 -148zM591 450v28h181v-28c-32 0 -51 -21 -69 -67l-146 -380c-12 -8 -24 -10 -36 -11l-131 367l-131 -356c-12 -8 -24 -10 -36 -11l-161 419c-13 33 -28 39 -52 39v28h200v-28c-58 0 -75 -19 -55 -75l97 -271l136 363
c12 4 23 5 35 5l129 -368l99 271c21 57 -5 75 -60 75z" />
    <glyph glyph-name="wdieresis" unicode="&#x1e85;" horiz-adv-x="782" 
d="M304 586c-29 0 -54 25 -54 56c0 29 25 54 54 54c31 0 56 -25 56 -54c0 -31 -25 -56 -56 -56zM476 586c-29 0 -54 25 -54 56c0 29 25 54 54 54c31 0 56 -25 56 -54c0 -31 -25 -56 -56 -56zM591 450v28h181v-28c-32 0 -51 -21 -69 -67l-146 -380c-12 -8 -24 -10 -36 -11
l-131 367l-131 -356c-12 -8 -24 -10 -36 -11l-161 419c-13 33 -28 39 -52 39v28h200v-28c-58 0 -75 -19 -55 -75l97 -271l136 363c12 4 23 5 35 5l129 -368l99 271c21 57 -5 75 -60 75z" />
    <glyph glyph-name="wgrave" unicode="&#x1e81;" horiz-adv-x="782" 
d="M333 704l94 -150l-22 -20l-155 150v20h83zM591 450v28h181v-28c-32 0 -51 -21 -69 -67l-146 -380c-12 -8 -24 -10 -36 -11l-131 367l-131 -356c-12 -8 -24 -10 -36 -11l-161 419c-13 33 -28 39 -52 39v28h200v-28c-58 0 -75 -19 -55 -75l97 -271l136 363c12 4 23 5 35 5
l129 -368l99 271c21 57 -5 75 -60 75z" />
    <glyph glyph-name="x" unicode="x" horiz-adv-x="492" 
d="M279 250l108 -157c27 -39 66 -65 95 -65v-28h-186v28h10c41 0 37 18 19 44l-86 125l-90 -125c-18 -25 0 -44 34 -44h11v-28h-184v28c14 0 53 7 84 48l119 157l-125 181c-16 23 -48 36 -63 36v28h181v-28c-39 0 -54 -17 -21 -65l70 -102l72 102c33 47 16 65 -21 65v28h164
v-28c-25 0 -54 -13 -70 -35z" />
    <glyph glyph-name="y" unicode="y" horiz-adv-x="503" 
d="M323 450v28h170v-28c-28 -4 -49 -31 -68 -78l-152 -369c-57 -139 -134 -214 -230 -223l-32 93l21 11c13 -17 36 -22 55 -22c65 0 110 72 143 144l-168 405c-14 33 -28 39 -52 39v28h194v-28c-57 -2 -69 -22 -48 -75l112 -279l108 279c22 56 5 71 -53 75z" />
    <glyph glyph-name="yacute" unicode="&#xfd;" horiz-adv-x="503" 
d="M379 704v-20l-155 -150l-22 20l94 150h83zM323 450v28h170v-28c-28 -4 -49 -31 -68 -78l-152 -369c-57 -139 -134 -214 -230 -223l-32 93l21 11c13 -17 36 -22 55 -22c65 0 110 72 143 144l-168 405c-14 33 -28 39 -52 39v28h194v-28c-57 -2 -69 -22 -48 -75l112 -279
l108 279c22 56 5 71 -53 75z" />
    <glyph glyph-name="ycircumflex" unicode="&#x177;" horiz-adv-x="503" 
d="M388 534l-126 99l-126 -99l-19 22l126 148h38l126 -148zM323 450v28h170v-28c-28 -4 -49 -31 -68 -78l-152 -369c-57 -139 -134 -214 -230 -223l-32 93l21 11c13 -17 36 -22 55 -22c65 0 110 72 143 144l-168 405c-14 33 -28 39 -52 39v28h194v-28
c-57 -2 -69 -22 -48 -75l112 -279l108 279c22 56 5 71 -53 75z" />
    <glyph glyph-name="ydieresis" unicode="&#xff;" horiz-adv-x="503" 
d="M175 586c-29 0 -54 25 -54 56c0 29 25 54 54 54c31 0 56 -25 56 -54c0 -31 -25 -56 -56 -56zM347 586c-29 0 -54 25 -54 56c0 29 25 54 54 54c31 0 56 -25 56 -54c0 -31 -25 -56 -56 -56zM323 450v28h170v-28c-28 -4 -49 -31 -68 -78l-152 -369
c-57 -139 -134 -214 -230 -223l-32 93l21 11c13 -17 36 -22 55 -22c65 0 110 72 143 144l-168 405c-14 33 -28 39 -52 39v28h194v-28c-57 -2 -69 -22 -48 -75l112 -279l108 279c22 56 5 71 -53 75z" />
    <glyph glyph-name="ygrave" unicode="&#x1ef3;" horiz-adv-x="503" 
d="M204 704l94 -150l-22 -20l-155 150v20h83zM323 450v28h170v-28c-28 -4 -49 -31 -68 -78l-152 -369c-57 -139 -134 -214 -230 -223l-32 93l21 11c13 -17 36 -22 55 -22c65 0 110 72 143 144l-168 405c-14 33 -28 39 -52 39v28h194v-28c-57 -2 -69 -22 -48 -75l112 -279
l108 279c22 56 5 71 -53 75z" />
    <glyph glyph-name="z" unicode="z" horiz-adv-x="443" 
d="M380 147h28l-12 -147h-356l-5 19l283 421h-117c-74 0 -111 -17 -130 -102h-28l17 140h342l5 -20l-280 -420h122c63 0 112 18 131 109z" />
    <glyph glyph-name="zacute" unicode="&#x17a;" horiz-adv-x="443" 
d="M339 704v-20l-155 -150l-22 20l94 150h83zM380 147h28l-12 -147h-356l-5 19l283 421h-117c-74 0 -111 -17 -130 -102h-28l17 140h342l5 -20l-280 -420h122c63 0 112 18 131 109z" />
    <glyph glyph-name="zcaron" unicode="&#x17e;" horiz-adv-x="443" 
d="M367 686l-126 -148h-38l-126 148l19 22l126 -99l126 99zM380 147h28l-12 -147h-356l-5 19l283 421h-117c-74 0 -111 -17 -130 -102h-28l17 140h342l5 -20l-280 -420h122c63 0 112 18 131 109z" />
    <glyph glyph-name="zdotaccent" unicode="&#x17c;" horiz-adv-x="443" 
d="M221 586c-30 0 -55 25 -55 56c0 30 25 55 55 55c31 0 56 -25 56 -55c0 -31 -25 -56 -56 -56zM380 147h28l-12 -147h-356l-5 19l283 421h-117c-74 0 -111 -17 -130 -102h-28l17 140h342l5 -20l-280 -420h122c63 0 112 18 131 109z" />
    <glyph glyph-name="ordfeminine" unicode="&#xaa;" horiz-adv-x="302" 
d="M242 512v-80c0 -24 10 -40 39 -35v-22l-80 -25l-19 46h-3c-21 -32 -48 -46 -78 -46c-42 0 -68 25 -68 58c0 45 44 73 147 95v13c0 30 -15 51 -49 51c-29 0 -52 -13 -64 -42l-26 10c10 50 58 75 102 75c68 0 99 -39 99 -98zM130 394c27 0 40 16 50 39v45
c-46 -11 -82 -26 -82 -53c0 -18 13 -31 32 -31z" />
    <glyph glyph-name="ordmasculine" unicode="&#xba;" horiz-adv-x="331" 
d="M166 350c-71 0 -122 52 -122 129c0 74 48 131 121 131c67 0 122 -49 122 -130c0 -77 -49 -130 -121 -130zM173 382c31 0 51 27 51 89c0 77 -32 106 -65 106c-32 0 -54 -28 -54 -89c0 -77 36 -106 68 -106z" />
    <glyph glyph-name="uni0394" unicode="&#x394;" horiz-adv-x="643" 
d="M617 0h-594l-8 32l272 659c13 15 35 25 53 26l288 -685zM299 601l-222 -561h447l-219 561h-6z" />
    <glyph glyph-name="uni03A9" unicode="&#x3a9;" horiz-adv-x="834" 
d="M382 0h-295v150h31c12 -47 56 -110 100 -110h99v50c-96 26 -210 144 -210 304s120 310 310 310s310 -150 310 -310s-114 -278 -210 -304v-50h95c45 0 83 44 100 110h35v-150h-295v120c122 39 185 149 185 279s-75 255 -220 255s-220 -125 -220 -255s63 -240 185 -279
v-120z" />
    <glyph glyph-name="uni03BC" unicode="&#x3bc;" horiz-adv-x="541" 
d="M445 478v-345c0 -46 12 -72 70 -68v-28l-102 -49l-34 98h-6c-25 -44 -76 -98 -148 -98c-27 0 -52 6 -73 19v-171h-67v511c0 54 -12 63 -70 63v28l110 40h30v-315c0 -78 30 -117 88 -117c50 0 98 29 132 96v205c0 54 -12 63 -70 63v28l110 40h30z" />
    <glyph glyph-name="pi" unicode="&#x3c0;" horiz-adv-x="526" 
d="M506 99l9 -26c-29 -48 -88 -73 -124 -73c-71 0 -107 62 -107 156c0 81 23 190 41 264h-94c-12 -150 -53 -314 -115 -420h-86v28c80 57 127 239 137 392h-47c-40 0 -60 -8 -77 -64h-28l32 122h428v-58h-90c-18 -71 -38 -158 -38 -234c0 -94 37 -117 84 -117
c31 0 52 9 75 30z" />
    <glyph glyph-name="zero" unicode="0" horiz-adv-x="570" 
d="M285 -12c-140 0 -245 106 -245 251s105 251 245 251s245 -106 245 -251s-105 -251 -245 -251zM285 28c110 0 160 101 160 211s-50 211 -160 211s-160 -101 -160 -211s50 -211 160 -211z" />
    <glyph glyph-name="one" unicode="1" horiz-adv-x="393" 
d="M70 0v30c78 0 110 29 110 83v234c0 37 -18 45 -46 45c-19 0 -46 -6 -68 -11l-5 32l161 65h28v-365c0 -54 32 -83 110 -83v-30h-290z" />
    <glyph glyph-name="two" unicode="2" horiz-adv-x="425" 
d="M375 142l26 -7l-19 -135h-357l-8 26l138 116c55 46 140 119 140 198c0 55 -40 90 -101 90c-67 0 -107 -41 -128 -103l-29 10c23 95 87 153 177 153c91 0 153 -60 153 -141c0 -95 -87 -166 -154 -216l-96 -73h143c80 0 93 12 115 82z" />
    <glyph glyph-name="three" unicode="3" horiz-adv-x="452" 
d="M248 219c102 0 163 -54 163 -146c0 -142 -139 -264 -371 -293l-5 35c181 30 290 112 290 239c0 69 -34 109 -123 109c-36 0 -65 -7 -85 -15l-20 26l205 244h-153c-62 0 -79 -8 -96 -73l-30 2l30 131h326l16 -27l-209 -239c20 5 42 7 62 7z" />
    <glyph glyph-name="four" unicode="4" horiz-adv-x="528" 
d="M513 47v-47h-96v-128c0 -50 57 -52 70 -52v-28h-217v28c14 0 77 2 77 52v128h-306l-10 21l327 457h59v-431h96zM345 383l-245 -336h247v336h-2z" />
    <glyph glyph-name="five" unicode="5" horiz-adv-x="476" 
d="M279 243c108 0 163 -65 163 -156c0 -144 -139 -270 -377 -307l-6 34c187 34 298 133 298 261c0 74 -37 108 -111 108c-64 0 -107 -26 -150 -56l-28 14l20 337h186c69 0 96 13 116 65h28l-20 -125h-268l-12 -221c32 19 91 46 161 46z" />
    <glyph glyph-name="six" unicode="6" horiz-adv-x="537" 
d="M305 413c113 0 192 -86 192 -202c0 -124 -89 -223 -220 -223c-144 0 -231 119 -231 290c0 202 122 386 373 420l6 -35c-197 -32 -295 -179 -297 -353l5 -3c30 56 86 106 172 106zM284 28c79 0 128 71 128 172c0 92 -41 162 -124 162c-64 0 -125 -41 -151 -136
c1 -103 57 -198 147 -198z" />
    <glyph glyph-name="seven" unicode="7" horiz-adv-x="475" 
d="M41 478h401l16 -27l-294 -659h-90l319 626h-240c-55 0 -75 -8 -94 -101h-30z" />
    <glyph glyph-name="eight" unicode="8" horiz-adv-x="553" 
d="M348 375c81 -39 155 -89 155 -193c0 -121 -100 -194 -229 -194c-125 0 -222 68 -222 180c0 86 58 151 154 191c-69 35 -128 79 -128 164c0 101 84 175 193 175c84 0 195 -44 195 -160c0 -49 -19 -114 -118 -163zM147 548c0 -81 80 -116 164 -155c68 45 82 91 82 135
c0 89 -56 130 -125 130c-70 0 -121 -44 -121 -110zM284 28c89 0 147 57 147 134c0 100 -97 137 -189 179c-85 -42 -114 -104 -114 -163c0 -88 63 -150 156 -150z" />
    <glyph glyph-name="nine" unicode="9" horiz-adv-x="544" 
d="M240 65c-102 0 -194 74 -194 202c0 124 89 223 220 223c144 0 231 -119 231 -290c0 -202 -122 -386 -373 -420l-6 35c197 32 295 179 297 353l-5 3c-30 -56 -86 -106 -170 -106zM259 450c-79 0 -128 -71 -128 -172c0 -92 41 -162 124 -162c64 0 125 41 151 136
c-1 103 -57 198 -147 198z" />
    <glyph glyph-name="zero.lf" horiz-adv-x="650" 
d="M325 -12c-155 0 -275 128 -275 358c0 216 120 352 275 352s275 -136 275 -352c0 -230 -120 -358 -275 -358zM325 26c130 0 195 135 195 320c0 171 -65 314 -195 314s-195 -143 -195 -314c0 -185 65 -320 195 -320z" />
    <glyph glyph-name="one.lf" horiz-adv-x="426" 
d="M73 0v30c78 0 110 29 110 83v442c0 34 -18 47 -46 47c-21 0 -43 -3 -68 -11l-6 30l163 65h29v-573c0 -54 32 -83 110 -83v-30h-292z" />
    <glyph glyph-name="two.lf" horiz-adv-x="572" 
d="M464 0h-408l-8 21c182 148 326 331 326 474c0 95 -63 138 -132 138c-79 0 -137 -56 -155 -143l-29 6c18 135 107 202 209 202c106 0 187 -71 187 -185c0 -172 -182 -347 -297 -441v-5h187c68 0 97 16 128 99h29z" />
    <glyph glyph-name="three.lf" horiz-adv-x="488" 
d="M265 427c102 0 163 -54 163 -146c0 -142 -139 -264 -371 -293l-5 35c181 30 290 112 290 239c0 69 -34 109 -123 109c-36 0 -65 -7 -85 -15l-20 26l205 244h-153c-62 0 -79 -8 -96 -73l-30 2l30 131h326l16 -27l-209 -239c20 5 42 7 62 7z" />
    <glyph glyph-name="four.lf" horiz-adv-x="576" 
d="M513 255v-47h-96v-128c0 -50 57 -52 70 -52v-28h-217v31c14 0 77 2 77 57v120h-316v21l327 457h59v-431h96zM345 591l-245 -336h247v336h-2z" />
    <glyph glyph-name="five.lf" horiz-adv-x="474" 
d="M267 451c108 0 163 -65 163 -156c0 -144 -139 -270 -377 -307l-6 34c187 34 298 133 298 261c0 74 -37 108 -111 108c-64 0 -107 -26 -150 -56l-28 14l20 337h186c69 0 96 13 116 65h28l-20 -125h-268l-12 -221c32 19 91 46 161 46z" />
    <glyph glyph-name="six.lf" horiz-adv-x="537" 
d="M305 413c113 0 192 -86 192 -202c0 -124 -89 -223 -220 -223c-144 0 -231 119 -231 290c0 202 122 386 373 420l6 -35c-197 -32 -295 -179 -297 -353l5 -3c30 56 86 106 172 106zM284 28c79 0 128 71 128 172c0 92 -41 162 -124 162c-64 0 -125 -41 -151 -136
c1 -103 57 -198 147 -198z" />
    <glyph glyph-name="seven.lf" horiz-adv-x="482" 
d="M51 686h401l16 -27l-294 -659h-90l319 626h-240c-55 0 -75 -8 -94 -101h-30z" />
    <glyph glyph-name="eight.lf" horiz-adv-x="575" 
d="M358 375c81 -39 155 -89 155 -193c0 -121 -100 -194 -229 -194c-125 0 -222 68 -222 180c0 86 58 151 154 191c-69 35 -128 79 -128 164c0 101 84 175 193 175c84 0 195 -44 195 -160c0 -49 -19 -114 -118 -163zM157 548c0 -81 80 -116 164 -155c68 45 82 91 82 135
c0 89 -56 130 -125 130c-70 0 -121 -44 -121 -110zM294 28c89 0 147 57 147 134c0 100 -97 137 -189 179c-85 -42 -114 -104 -114 -163c0 -88 63 -150 156 -150z" />
    <glyph glyph-name="nine.lf" horiz-adv-x="537" 
d="M234 273c-102 0 -194 74 -194 202c0 124 89 223 220 223c144 0 231 -119 231 -290c0 -202 -122 -386 -373 -420l-6 35c197 32 295 179 297 353l-5 3c-30 -56 -86 -106 -170 -106zM253 658c-79 0 -128 -71 -128 -172c0 -92 41 -162 124 -162c64 0 125 41 151 136
c-1 103 -57 198 -147 198z" />
    <glyph glyph-name="uni2080" unicode="&#x2080;" horiz-adv-x="359" 
d="M179 -12c-76 0 -139 63 -139 162c0 102 63 162 139 162c77 0 140 -60 140 -162c0 -99 -63 -162 -140 -162zM179 22c44 0 70 51 70 128c0 80 -26 128 -70 128c-43 0 -69 -48 -69 -128c0 -77 26 -128 69 -128z" />
    <glyph glyph-name="uni2081" unicode="&#x2081;" horiz-adv-x="310" 
d="M277 0h-207v26c50 0 70 16 70 53v130c0 26 -12 35 -29 35c-14 0 -30 -5 -44 -10l-6 29l106 42h40v-226c0 -37 20 -53 70 -53v-26z" />
    <glyph glyph-name="uni2082" unicode="&#x2082;" horiz-adv-x="299" 
d="M254 95h21l-14 -95h-239l-5 26l73 61c45 37 90 80 90 124c0 35 -28 50 -56 50c-32 0 -62 -22 -76 -53l-25 13c15 59 63 96 123 96c63 0 100 -42 100 -89c0 -59 -57 -107 -99 -142l-46 -39h72c43 0 66 12 81 48z" />
    <glyph glyph-name="uni2083" unicode="&#x2083;" horiz-adv-x="292" 
d="M167 186c49 0 84 -32 84 -74c0 -65 -87 -121 -215 -126l-3 33c92 6 152 37 152 82c0 25 -19 43 -50 43c-13 0 -27 -3 -38 -8l-8 23l93 99h-75c-34 0 -49 -14 -59 -43l-25 9l21 81h190l8 -37l-79 -82h4z" />
    <glyph glyph-name="uni2084" unicode="&#x2084;" horiz-adv-x="312" 
d="M275 0h-140v26c24 0 40 10 40 25v26h-134l-10 26l149 202h62v-183h55v-45h-55v-26c0 -15 13 -25 33 -25v-26zM175 237l-85 -115h85v115z" />
    <glyph glyph-name="uni2085" unicode="&#x2085;" horiz-adv-x="298" 
d="M179 188c49 0 85 -34 85 -76c0 -65 -74 -121 -202 -126l-3 33c100 6 140 37 140 80c0 32 -25 46 -48 46c-26 0 -43 -7 -62 -20l-24 16l13 164h174l-7 -47h-132l-7 -87c17 10 41 17 73 17z" />
    <glyph glyph-name="uni2086" unicode="&#x2086;" horiz-adv-x="335" 
d="M198 193c62 0 97 -43 97 -97c0 -66 -54 -108 -120 -108c-74 0 -129 53 -129 138c0 106 87 187 206 189l8 -29c-93 -4 -142 -62 -150 -138c22 29 51 45 88 45zM177 22c33 0 57 28 57 63s-23 63 -57 63c-31 0 -55 -22 -66 -48c6 -53 35 -78 66 -78z" />
    <glyph glyph-name="uni2087" unicode="&#x2087;" horiz-adv-x="262" 
d="M34 305h198l13 -26l-131 -279h-71l148 258h-85c-26 0 -41 -11 -50 -59h-27z" />
    <glyph glyph-name="uni2088" unicode="&#x2088;" horiz-adv-x="328" 
d="M205 170c37 -19 73 -43 73 -89c0 -56 -53 -93 -115 -93c-60 0 -111 34 -111 84c0 37 27 65 69 83c-31 18 -58 39 -58 75c0 46 42 80 102 80c55 0 96 -28 96 -70c0 -24 -13 -49 -56 -70zM162 277c-26 0 -43 -14 -43 -35c0 -27 27 -42 58 -58c30 20 31 38 31 48
c0 29 -19 45 -46 45zM174 21c34 0 50 22 50 46c0 37 -38 56 -77 75c-32 -17 -37 -41 -37 -57c0 -35 24 -64 64 -64z" />
    <glyph glyph-name="uni2089" unicode="&#x2089;" horiz-adv-x="342" 
d="M166 320c74 0 129 -53 129 -138c0 -106 -87 -187 -206 -189l-8 29c93 4 142 62 150 138c-22 -29 -51 -45 -88 -45c-62 0 -97 43 -97 97c0 66 54 108 120 108zM164 160c31 0 55 22 66 48c-6 53 -35 78 -66 78c-33 0 -57 -28 -57 -63s23 -63 57 -63z" />
    <glyph glyph-name="zero.dnom" horiz-adv-x="359" 
d="M179 -12c-76 0 -139 63 -139 162c0 102 63 162 139 162c77 0 140 -60 140 -162c0 -99 -63 -162 -140 -162zM179 22c44 0 70 51 70 128c0 80 -26 128 -70 128c-43 0 -69 -48 -69 -128c0 -77 26 -128 69 -128z" />
    <glyph glyph-name="one.dnom" horiz-adv-x="310" 
d="M277 0h-207v26c50 0 70 16 70 53v130c0 26 -12 35 -29 35c-14 0 -30 -5 -44 -10l-6 29l106 42h40v-226c0 -37 20 -53 70 -53v-26z" />
    <glyph glyph-name="two.dnom" horiz-adv-x="299" 
d="M254 95h21l-14 -95h-239l-5 26l73 61c45 37 90 80 90 124c0 35 -28 50 -56 50c-32 0 -62 -22 -76 -53l-25 13c15 59 63 96 123 96c63 0 100 -42 100 -89c0 -59 -57 -107 -99 -142l-46 -39h72c43 0 66 12 81 48z" />
    <glyph glyph-name="three.dnom" horiz-adv-x="292" 
d="M167 186c49 0 84 -32 84 -74c0 -65 -87 -121 -215 -126l-3 33c92 6 152 37 152 82c0 25 -19 43 -50 43c-13 0 -27 -3 -38 -8l-8 23l93 99h-75c-34 0 -49 -14 -59 -43l-25 9l21 81h190l8 -37l-79 -82h4z" />
    <glyph glyph-name="four.dnom" horiz-adv-x="312" 
d="M275 0h-140v26c24 0 40 10 40 25v26h-134l-10 26l149 202h62v-183h55v-45h-55v-26c0 -15 13 -25 33 -25v-26zM175 237l-85 -115h85v115z" />
    <glyph glyph-name="five.dnom" horiz-adv-x="298" 
d="M179 188c49 0 85 -34 85 -76c0 -65 -74 -121 -202 -126l-3 33c100 6 140 37 140 80c0 32 -25 46 -48 46c-26 0 -43 -7 -62 -20l-24 16l13 164h174l-7 -47h-132l-7 -87c17 10 41 17 73 17z" />
    <glyph glyph-name="six.dnom" horiz-adv-x="335" 
d="M198 193c62 0 97 -43 97 -97c0 -66 -54 -108 -120 -108c-74 0 -129 53 -129 138c0 106 87 187 206 189l8 -29c-93 -4 -142 -62 -150 -138c22 29 51 45 88 45zM177 22c33 0 57 28 57 63s-23 63 -57 63c-31 0 -55 -22 -66 -48c6 -53 35 -78 66 -78z" />
    <glyph glyph-name="seven.dnom" horiz-adv-x="262" 
d="M34 305h198l13 -26l-131 -279h-71l148 258h-85c-26 0 -41 -11 -50 -59h-27z" />
    <glyph glyph-name="eight.dnom" horiz-adv-x="328" 
d="M205 170c37 -19 73 -43 73 -89c0 -56 -53 -93 -115 -93c-60 0 -111 34 -111 84c0 37 27 65 69 83c-31 18 -58 39 -58 75c0 46 42 80 102 80c55 0 96 -28 96 -70c0 -24 -13 -49 -56 -70zM162 277c-26 0 -43 -14 -43 -35c0 -27 27 -42 58 -58c30 20 31 38 31 48
c0 29 -19 45 -46 45zM174 21c34 0 50 22 50 46c0 37 -38 56 -77 75c-32 -17 -37 -41 -37 -57c0 -35 24 -64 64 -64z" />
    <glyph glyph-name="nine.dnom" horiz-adv-x="342" 
d="M166 320c74 0 129 -53 129 -138c0 -106 -87 -187 -206 -189l-8 29c93 4 142 62 150 138c-22 -29 -51 -45 -88 -45c-62 0 -97 43 -97 97c0 66 54 108 120 108zM164 160c31 0 55 22 66 48c-6 53 -35 78 -66 78c-33 0 -57 -28 -57 -63s23 -63 57 -63z" />
    <glyph glyph-name="zero.numr" horiz-adv-x="359" 
d="M179 380c-76 0 -139 63 -139 162c0 102 63 162 139 162c77 0 140 -60 140 -162c0 -99 -63 -162 -140 -162zM179 414c44 0 70 51 70 128c0 80 -26 128 -70 128c-43 0 -69 -48 -69 -128c0 -77 26 -128 69 -128z" />
    <glyph glyph-name="one.numr" horiz-adv-x="310" 
d="M277 387h-207v26c50 0 70 16 70 53v130c0 26 -12 35 -29 35c-14 0 -30 -5 -44 -10l-6 29l106 42h40v-226c0 -37 20 -53 70 -53v-26z" />
    <glyph glyph-name="two.numr" horiz-adv-x="299" 
d="M254 482h21l-14 -95h-239l-5 26l73 61c45 37 90 80 90 124c0 35 -28 50 -56 50c-32 0 -62 -22 -76 -53l-25 13c15 59 63 96 123 96c63 0 100 -42 100 -89c0 -59 -57 -107 -99 -142l-46 -39h72c43 0 66 12 81 48z" />
    <glyph glyph-name="three.numr" horiz-adv-x="292" 
d="M167 573c49 0 84 -32 84 -74c0 -65 -87 -121 -215 -126l-3 33c92 6 152 37 152 82c0 25 -19 43 -50 43c-13 0 -27 -3 -38 -8l-8 23l93 99h-75c-34 0 -49 -14 -59 -43l-25 9l21 81h190l8 -37l-79 -82h4z" />
    <glyph glyph-name="four.numr" horiz-adv-x="312" 
d="M275 387h-140v26c24 0 40 10 40 25v26h-134l-10 26l149 202h62v-183h55v-45h-55v-26c0 -15 13 -25 33 -25v-26zM175 624l-85 -115h85v115z" />
    <glyph glyph-name="five.numr" horiz-adv-x="298" 
d="M179 575c49 0 85 -34 85 -76c0 -65 -74 -121 -202 -126l-3 33c100 6 140 37 140 80c0 32 -25 46 -48 46c-26 0 -43 -7 -62 -20l-24 16l13 164h174l-7 -47h-132l-7 -87c17 10 41 17 73 17z" />
    <glyph glyph-name="six.numr" horiz-adv-x="335" 
d="M198 583c62 0 97 -43 97 -97c0 -66 -54 -108 -120 -108c-74 0 -129 53 -129 138c0 106 87 187 206 189l8 -29c-93 -4 -142 -62 -150 -138c22 29 51 45 88 45zM177 412c33 0 57 28 57 63s-23 63 -57 63c-31 0 -55 -22 -66 -48c6 -53 35 -78 66 -78z" />
    <glyph glyph-name="seven.numr" horiz-adv-x="262" 
d="M34 692h198l13 -26l-131 -279h-71l148 258h-85c-26 0 -41 -11 -50 -59h-27z" />
    <glyph glyph-name="eight.numr" horiz-adv-x="328" 
d="M205 564c37 -19 73 -43 73 -89c0 -56 -53 -93 -115 -93c-60 0 -111 34 -111 84c0 37 27 65 69 83c-31 18 -58 39 -58 75c0 46 42 80 102 80c55 0 96 -28 96 -70c0 -24 -13 -49 -56 -70zM162 671c-26 0 -43 -14 -43 -35c0 -27 27 -42 58 -58c30 20 31 38 31 48
c0 29 -19 45 -46 45zM174 415c34 0 50 22 50 46c0 37 -38 56 -77 75c-32 -17 -37 -41 -37 -57c0 -35 24 -64 64 -64z" />
    <glyph glyph-name="nine.numr" horiz-adv-x="342" 
d="M166 705c74 0 129 -53 129 -138c0 -106 -87 -187 -206 -189l-8 29c93 4 142 62 150 138c-22 -29 -51 -45 -88 -45c-62 0 -97 43 -97 97c0 66 54 108 120 108zM164 545c31 0 55 22 66 48c-6 53 -35 78 -66 78c-33 0 -57 -28 -57 -63s23 -63 57 -63z" />
    <glyph glyph-name="uni2070" unicode="&#x2070;" horiz-adv-x="359" 
d="M179 380c-76 0 -139 63 -139 162c0 102 63 162 139 162c77 0 140 -60 140 -162c0 -99 -63 -162 -140 -162zM179 414c44 0 70 51 70 128c0 80 -26 128 -70 128c-43 0 -69 -48 -69 -128c0 -77 26 -128 69 -128z" />
    <glyph glyph-name="uni00B9" unicode="&#xb9;" horiz-adv-x="310" 
d="M277 387h-207v26c50 0 70 16 70 53v130c0 26 -12 35 -29 35c-14 0 -30 -5 -44 -10l-6 29l106 42h40v-226c0 -37 20 -53 70 -53v-26z" />
    <glyph glyph-name="uni00B2" unicode="&#xb2;" horiz-adv-x="299" 
d="M254 482h21l-14 -95h-239l-5 26l73 61c45 37 90 80 90 124c0 35 -28 50 -56 50c-32 0 -62 -22 -76 -53l-25 13c15 59 63 96 123 96c63 0 100 -42 100 -89c0 -59 -57 -107 -99 -142l-46 -39h72c43 0 66 12 81 48z" />
    <glyph glyph-name="uni00B3" unicode="&#xb3;" horiz-adv-x="292" 
d="M167 573c49 0 84 -32 84 -74c0 -65 -87 -121 -215 -126l-3 33c92 6 152 37 152 82c0 25 -19 43 -50 43c-13 0 -27 -3 -38 -8l-8 23l93 99h-75c-34 0 -49 -14 -59 -43l-25 9l21 81h190l8 -37l-79 -82h4z" />
    <glyph glyph-name="uni2074" unicode="&#x2074;" horiz-adv-x="312" 
d="M275 387h-140v26c24 0 40 10 40 25v26h-134l-10 26l149 202h62v-183h55v-45h-55v-26c0 -15 13 -25 33 -25v-26zM175 624l-85 -115h85v115z" />
    <glyph glyph-name="uni2075" unicode="&#x2075;" horiz-adv-x="298" 
d="M179 575c49 0 85 -34 85 -76c0 -65 -74 -121 -202 -126l-3 33c100 6 140 37 140 80c0 32 -25 46 -48 46c-26 0 -43 -7 -62 -20l-24 16l13 164h174l-7 -47h-132l-7 -87c17 10 41 17 73 17z" />
    <glyph glyph-name="uni2076" unicode="&#x2076;" horiz-adv-x="335" 
d="M198 583c62 0 97 -43 97 -97c0 -66 -54 -108 -120 -108c-74 0 -129 53 -129 138c0 106 87 187 206 189l8 -29c-93 -4 -142 -62 -150 -138c22 29 51 45 88 45zM177 412c33 0 57 28 57 63s-23 63 -57 63c-31 0 -55 -22 -66 -48c6 -53 35 -78 66 -78z" />
    <glyph glyph-name="uni2077" unicode="&#x2077;" horiz-adv-x="262" 
d="M34 692h198l13 -26l-131 -279h-71l148 258h-85c-26 0 -41 -11 -50 -59h-27z" />
    <glyph glyph-name="uni2078" unicode="&#x2078;" horiz-adv-x="328" 
d="M205 564c37 -19 73 -43 73 -89c0 -56 -53 -93 -115 -93c-60 0 -111 34 -111 84c0 37 27 65 69 83c-31 18 -58 39 -58 75c0 46 42 80 102 80c55 0 96 -28 96 -70c0 -24 -13 -49 -56 -70zM162 671c-26 0 -43 -14 -43 -35c0 -27 27 -42 58 -58c30 20 31 38 31 48
c0 29 -19 45 -46 45zM174 415c34 0 50 22 50 46c0 37 -38 56 -77 75c-32 -17 -37 -41 -37 -57c0 -35 24 -64 64 -64z" />
    <glyph glyph-name="uni2079" unicode="&#x2079;" horiz-adv-x="342" 
d="M166 705c74 0 129 -53 129 -138c0 -106 -87 -187 -206 -189l-8 29c93 4 142 62 150 138c-22 -29 -51 -45 -88 -45c-62 0 -97 43 -97 97c0 66 54 108 120 108zM164 545c31 0 55 22 66 48c-6 53 -35 78 -66 78c-33 0 -57 -28 -57 -63s23 -63 57 -63z" />
    <glyph glyph-name="fraction" unicode="&#x2044;" horiz-adv-x="229" 
d="M-190 -40l560 762h49l-560 -762h-49z" />
    <glyph glyph-name="onehalf" unicode="&#xbd;" horiz-adv-x="768" 
d="M90 -40l560 762h49l-560 -762h-49zM70 387v26c50 0 70 16 70 53v130c0 26 -12 35 -29 35c-14 0 -30 -5 -44 -10l-6 29l106 42h40v-226c0 -37 20 -53 70 -53v-26h-207zM723 95h21l-14 -95h-239l-5 26l73 61c45 37 90 80 90 124c0 35 -28 50 -56 50c-32 0 -62 -22 -76 -53
l-25 13c15 59 63 96 123 96c63 0 100 -42 100 -89c0 -59 -57 -107 -99 -142l-46 -39h72c43 0 66 12 81 48z" />
    <glyph glyph-name="onequarter" unicode="&#xbc;" horiz-adv-x="761" 
d="M90 -40l560 762h49l-560 -762h-49zM277 387h-207v26c50 0 70 16 70 53v130c0 26 -12 35 -29 35c-14 0 -30 -5 -44 -10l-6 29l106 42h40v-226c0 -37 20 -53 70 -53v-26zM724 0h-140v26c24 0 40 10 40 25v26h-134l-10 26l149 202h62v-183h55v-45h-55v-26
c0 -15 13 -25 33 -25v-26zM624 237l-85 -115h85v115z" />
    <glyph glyph-name="threequarters" unicode="&#xbe;" horiz-adv-x="713" 
d="M42 -40l560 762h49l-560 -762h-49zM251 499c0 -65 -87 -121 -215 -126l-3 33c92 6 152 37 152 82c0 25 -19 43 -50 43c-13 0 -27 -3 -38 -8l-8 23l93 99h-75c-34 0 -49 -14 -59 -43l-25 9l21 81h190l8 -37l-79 -82h4c49 0 84 -32 84 -74zM698 122v-45h-55v-26
c0 -15 13 -25 33 -25v-26h-140v26c24 0 40 10 40 25v26h-134l-10 26l149 202h62v-183h55zM491 122h85v115z" />
    <glyph glyph-name="oneeighth" unicode="&#x215b;" horiz-adv-x="767" 
d="M90 -40l560 762h49l-560 -762h-49zM70 387v26c50 0 70 16 70 53v130c0 26 -12 35 -29 35c-14 0 -30 -5 -44 -10l-6 29l106 42h40v-226c0 -37 20 -53 70 -53v-26h-207zM644 170c37 -19 73 -43 73 -89c0 -56 -53 -93 -115 -93c-60 0 -111 34 -111 84c0 37 27 65 69 83
c-31 18 -58 39 -58 75c0 46 42 80 102 80c55 0 96 -28 96 -70c0 -24 -13 -49 -56 -70zM601 277c-26 0 -43 -14 -43 -35c0 -27 27 -42 58 -58c30 20 31 38 31 48c0 29 -19 45 -46 45zM613 21c34 0 50 22 50 46c0 37 -38 56 -77 75c-32 -17 -37 -41 -37 -57
c0 -35 24 -64 64 -64z" />
    <glyph glyph-name="threeeighths" unicode="&#x215c;" horiz-adv-x="719" 
d="M42 -40l560 762h49l-560 -762h-49zM251 499c0 -65 -87 -121 -215 -126l-3 33c92 6 152 37 152 82c0 25 -19 43 -50 43c-13 0 -27 -3 -38 -8l-8 23l93 99h-75c-34 0 -49 -14 -59 -43l-25 9l21 81h190l8 -37l-79 -82h4c49 0 84 -32 84 -74zM596 170c37 -19 73 -43 73 -89
c0 -56 -53 -93 -115 -93c-60 0 -111 34 -111 84c0 37 27 65 69 83c-31 18 -58 39 -58 75c0 46 42 80 102 80c55 0 96 -28 96 -70c0 -24 -13 -49 -56 -70zM553 277c-26 0 -43 -14 -43 -35c0 -27 27 -42 58 -58c30 20 31 38 31 48c0 29 -19 45 -46 45zM565 21
c34 0 50 22 50 46c0 37 -38 56 -77 75c-32 -17 -37 -41 -37 -57c0 -35 24 -64 64 -64z" />
    <glyph glyph-name="fiveeighths" unicode="&#x215d;" horiz-adv-x="755" 
d="M78 -40l560 762h49l-560 -762h-49zM264 499c0 -65 -74 -121 -202 -126l-3 33c100 6 140 37 140 80c0 32 -25 46 -48 46c-26 0 -43 -7 -62 -20l-24 16l13 164h174l-7 -47h-132l-7 -87c17 10 41 17 73 17c49 0 85 -34 85 -76zM632 170c37 -19 73 -43 73 -89
c0 -56 -53 -93 -115 -93c-60 0 -111 34 -111 84c0 37 27 65 69 83c-31 18 -58 39 -58 75c0 46 42 80 102 80c55 0 96 -28 96 -70c0 -24 -13 -49 -56 -70zM589 277c-26 0 -43 -14 -43 -35c0 -27 27 -42 58 -58c30 20 31 38 31 48c0 29 -19 45 -46 45zM601 21
c34 0 50 22 50 46c0 37 -38 56 -77 75c-32 -17 -37 -41 -37 -57c0 -35 24 -64 64 -64z" />
    <glyph glyph-name="seveneighths" unicode="&#x215e;" horiz-adv-x="699" 
d="M22 -40l560 762h49l-560 -762h-49zM191 645h-85c-26 0 -41 -11 -50 -59h-27l5 106h198l13 -26l-131 -279h-71zM576 170c37 -19 73 -43 73 -89c0 -56 -53 -93 -115 -93c-60 0 -111 34 -111 84c0 37 27 65 69 83c-31 18 -58 39 -58 75c0 46 42 80 102 80
c55 0 96 -28 96 -70c0 -24 -13 -49 -56 -70zM533 277c-26 0 -43 -14 -43 -35c0 -27 27 -42 58 -58c30 20 31 38 31 48c0 29 -19 45 -46 45zM545 21c34 0 50 22 50 46c0 37 -38 56 -77 75c-32 -17 -37 -41 -37 -57c0 -35 24 -64 64 -64z" />
    <glyph glyph-name="period" unicode="." horiz-adv-x="226" 
d="M115 -12c-29 0 -55 24 -55 55s26 55 55 55s55 -24 55 -55s-26 -55 -55 -55z" />
    <glyph glyph-name="comma" unicode="," horiz-adv-x="198" 
d="M50 -118l-10 22c34 13 66 58 67 84c-49 -7 -71 22 -71 53c0 29 20 57 56 57c32 0 58 -25 58 -73c0 -63 -40 -125 -100 -143z" />
    <glyph glyph-name="colon" unicode=":" horiz-adv-x="230" 
d="M115 352c-29 0 -55 24 -55 55s26 55 55 55s55 -24 55 -55s-26 -55 -55 -55zM115 -14c-29 0 -55 24 -55 55s26 55 55 55s55 -24 55 -55s-26 -55 -55 -55z" />
    <glyph glyph-name="semicolon" unicode=";" horiz-adv-x="207" 
d="M91 351c-29 0 -55 24 -55 55s26 55 55 55s55 -24 55 -55s-26 -55 -55 -55zM51 -118l-10 22c34 13 66 58 67 84c-49 -7 -71 22 -71 53c0 29 20 57 56 57c32 0 58 -25 58 -73c0 -63 -40 -125 -100 -143z" />
    <glyph glyph-name="ellipsis" unicode="&#x2026;" horiz-adv-x="606" 
d="M115 -12c-29 0 -55 24 -55 55s26 55 55 55s55 -24 55 -55s-26 -55 -55 -55zM305 -12c-29 0 -55 24 -55 55s26 55 55 55s55 -24 55 -55s-26 -55 -55 -55zM495 -12c-29 0 -55 24 -55 55s26 55 55 55s55 -24 55 -55s-26 -55 -55 -55z" />
    <glyph glyph-name="exclam" unicode="!" horiz-adv-x="230" 
d="M138 179h-28l-36 467c-3 36 20 59 50 59c28 0 52 -22 49 -59zM123 -12c-29 0 -55 24 -55 55s26 55 55 55s55 -24 55 -55s-26 -55 -55 -55z" />
    <glyph glyph-name="exclamdown" unicode="&#xa1;" horiz-adv-x="230" 
d="M123 526c29 0 55 -24 55 -55s-26 -55 -55 -55s-55 24 -55 55s26 55 55 55zM74 -132l36 467h28l35 -467c3 -37 -21 -59 -49 -59c-30 0 -53 23 -50 59z" />
    <glyph glyph-name="question" unicode="?" horiz-adv-x="482" 
d="M225 188l-25 -11c-28 31 -33 71 -33 96c0 138 203 163 203 287c0 60 -50 100 -125 100c-98 0 -161 -60 -153 -158h-35l-7 124c40 40 103 78 200 78c127 0 183 -71 183 -156c0 -165 -220 -188 -220 -313c0 -20 5 -35 12 -47zM216 -12c-29 0 -55 24 -55 55s26 55 55 55
s55 -24 55 -55s-26 -55 -55 -55z" />
    <glyph glyph-name="questiondown" unicode="&#xbf;" horiz-adv-x="482" 
d="M266 526c29 0 55 -24 55 -55s-26 -55 -55 -55s-55 24 -55 55s26 55 55 55zM257 326l25 11c28 -31 33 -71 33 -96c0 -138 -203 -163 -203 -287c0 -60 50 -100 125 -100c98 0 161 60 153 158h35l7 -124c-40 -40 -103 -78 -200 -78c-127 0 -183 71 -183 156
c0 165 220 188 220 313c0 20 -5 35 -12 47z" />
    <glyph glyph-name="periodcentered" unicode="&#xb7;" horiz-adv-x="210" 
d="M105 245c-29 0 -55 24 -55 55s26 55 55 55s55 -24 55 -55s-26 -55 -55 -55z" />
    <glyph glyph-name="bullet" unicode="&#x2022;" horiz-adv-x="243" 
d="M122 213c-38 0 -72 32 -72 72s34 71 72 71c37 0 71 -31 71 -71s-34 -72 -71 -72z" />
    <glyph glyph-name="asterisk" unicode="*" horiz-adv-x="461" 
d="M401 589c0 -25 -30 -40 -62 -42l-98 -4l83 -65c18 -15 30 -31 30 -47c0 -19 -20 -37 -39 -37c-23 0 -40 22 -50 47l-35 94l-36 -92c-11 -26 -28 -47 -49 -47c-19 0 -39 16 -39 35c0 16 12 33 31 48l83 64l-98 6c-32 1 -62 16 -62 41s19 39 42 39c14 0 32 -5 44 -14
l76 -59l-28 103c-2 11 -5 20 -5 27c0 24 15 44 41 44c29 0 42 -20 42 -44c0 -8 -3 -16 -5 -27l-30 -103l78 59c12 9 30 14 43 14c21 0 43 -12 43 -40z" />
    <glyph glyph-name="numbersign" unicode="#" horiz-adv-x="606" 
d="M586 477v-32h-136l-40 -198h146v-32h-153l-43 -215h-44l43 215h-166l-43 -215h-44l43 215h-129v32h136l40 198h-146v32h153l43 215h44l-43 -215h166l43 215h44l-43 -215h129zM200 247h166l40 198h-166z" />
    <glyph glyph-name="slash" unicode="/" horiz-adv-x="339" 
d="M10 -100l270 842h49l-270 -842h-49z" />
    <glyph glyph-name="backslash" unicode="\" horiz-adv-x="339" 
d="M10 742h49l270 -842h-49z" />
    <glyph glyph-name="exclamdown.case" horiz-adv-x="230" 
d="M123 704c29 0 55 -24 55 -55s-26 -55 -55 -55s-55 24 -55 55s26 55 55 55zM74 46l36 467h28l35 -467c3 -37 -21 -59 -49 -59c-30 0 -53 23 -50 59z" />
    <glyph glyph-name="questiondown.case" horiz-adv-x="482" 
d="M266 704c29 0 55 -24 55 -55s-26 -55 -55 -55s-55 24 -55 55s26 55 55 55zM257 504l25 11c28 -31 33 -71 33 -96c0 -138 -203 -163 -203 -287c0 -60 50 -100 125 -100c98 0 161 60 153 158h35l7 -124c-40 -40 -103 -78 -200 -78c-127 0 -183 71 -183 156
c0 165 220 188 220 313c0 20 -5 35 -12 47z" />
    <glyph glyph-name="periodcentered.loclCAT.case" horiz-adv-x="210" 
d="M105 245c-29 0 -55 24 -55 55s26 55 55 55s55 -24 55 -55s-26 -55 -55 -55z" />
    <glyph glyph-name="periodcentered.loclCAT" horiz-adv-x="100" 
d="M45 295c-29 0 -55 24 -55 55s26 55 55 55s55 -24 55 -55s-26 -55 -55 -55z" />
    <glyph glyph-name="parenleft" unicode="(" horiz-adv-x="355" 
d="M120 290c0 -217 75 -365 195 -450l-17 -20c-159 80 -258 231 -258 470s99 390 258 470l17 -20c-120 -85 -195 -232 -195 -450z" />
    <glyph glyph-name="parenright" unicode=")" horiz-adv-x="355" 
d="M235 290c0 218 -75 365 -195 450l17 20c159 -80 258 -231 258 -470s-99 -390 -258 -470l-17 20c120 85 195 233 195 450z" />
    <glyph glyph-name="braceleft" unicode="{" horiz-adv-x="298" 
d="M160 600v-194c0 -57 -38 -106 -64 -113v-4c26 -8 64 -41 64 -97v-212c0 -84 18 -131 98 -137v-23c-111 0 -168 63 -168 160v203c0 35 -3 75 -50 100v12c47 25 50 65 50 100v205c0 97 78 160 168 160v-23c-63 -10 -98 -53 -98 -137z" />
    <glyph glyph-name="braceright" unicode="}" horiz-adv-x="298" 
d="M138 406v194c0 84 -35 127 -98 137v23c90 0 168 -63 168 -160v-205c0 -35 3 -75 50 -100v-12c-47 -25 -50 -65 -50 -100v-203c0 -97 -57 -160 -168 -160v23c80 6 98 53 98 137v212c0 56 38 89 64 97v4c-26 7 -64 56 -64 113z" />
    <glyph glyph-name="bracketleft" unicode="[" horiz-adv-x="270" 
d="M260 760v-24h-45c-36 0 -65 -21 -65 -64v-765c0 -32 17 -63 65 -63h45v-24h-180v940h180z" />
    <glyph glyph-name="bracketright" unicode="]" horiz-adv-x="270" 
d="M55 736h-45v24h180v-940h-180v24h45c48 0 65 31 65 63v765c0 43 -29 64 -65 64z" />
    <glyph glyph-name="parenleft.case" horiz-adv-x="355" 
d="M120 330c0 -217 75 -365 195 -450l-17 -20c-159 80 -258 231 -258 470s99 390 258 470l17 -20c-120 -85 -195 -232 -195 -450z" />
    <glyph glyph-name="parenright.case" horiz-adv-x="355" 
d="M235 330c0 218 -75 365 -195 450l17 20c159 -80 258 -231 258 -470s-99 -390 -258 -470l-17 20c120 85 195 233 195 450z" />
    <glyph glyph-name="braceleft.case" horiz-adv-x="298" 
d="M160 640v-194c0 -57 -38 -106 -64 -113v-4c26 -8 64 -41 64 -97v-212c0 -84 18 -131 98 -137v-23c-111 0 -168 63 -168 160v203c0 35 -3 75 -50 100v12c47 25 50 65 50 100v205c0 97 78 160 168 160v-23c-63 -10 -98 -53 -98 -137z" />
    <glyph glyph-name="braceright.case" horiz-adv-x="298" 
d="M138 446v194c0 84 -35 127 -98 137v23c90 0 168 -63 168 -160v-205c0 -35 3 -75 50 -100v-12c-47 -25 -50 -65 -50 -100v-203c0 -97 -57 -160 -168 -160v23c80 6 98 53 98 137v212c0 56 38 89 64 97v4c-26 7 -64 56 -64 113z" />
    <glyph glyph-name="bracketleft.case" horiz-adv-x="270" 
d="M260 800v-24h-45c-36 0 -65 -21 -65 -64v-765c0 -32 17 -63 65 -63h45v-24h-180v940h180z" />
    <glyph glyph-name="bracketright.case" horiz-adv-x="270" 
d="M55 776h-45v24h180v-940h-180v24h45c48 0 65 31 65 63v765c0 43 -29 64 -65 64z" />
    <glyph glyph-name="hyphen" unicode="-" horiz-adv-x="340" 
d="M40 196v66h260v-66h-260z" />
    <glyph glyph-name="uni00AD" unicode="&#xad;" horiz-adv-x="340" 
d="M40 196v66h260v-66h-260z" />
    <glyph glyph-name="endash" unicode="&#x2013;" horiz-adv-x="505" 
d="M465 253h-425v40h425v-40z" />
    <glyph glyph-name="emdash" unicode="&#x2014;" horiz-adv-x="775" 
d="M735 253h-695v40h695v-40z" />
    <glyph glyph-name="underscore" unicode="_" horiz-adv-x="418" 
d="M418 -60h-418v40h418v-40z" />
    <glyph glyph-name="quotesinglbase" unicode="&#x201a;" horiz-adv-x="201" 
d="M50 -118l-10 22c34 13 66 58 67 84c-49 -7 -71 22 -71 53c0 29 20 57 56 57c32 0 58 -25 58 -73c0 -63 -40 -125 -100 -143z" />
    <glyph glyph-name="quotedblbase" unicode="&#x201e;" horiz-adv-x="351" 
d="M50 -118l-10 22c34 13 66 58 67 84c-49 -7 -71 22 -71 53c0 29 20 57 56 57c32 0 58 -25 58 -73c0 -63 -40 -125 -100 -143zM200 -118l-10 22c34 13 66 58 67 84c-49 -7 -71 22 -71 53c0 29 20 57 56 57c32 0 58 -25 58 -73c0 -63 -40 -125 -100 -143z" />
    <glyph glyph-name="quotedblleft" unicode="&#x201c;" horiz-adv-x="333" 
d="M125 715l9 -20c-31 -11 -59 -52 -60 -75c44 6 64 -20 64 -48c0 -26 -18 -51 -51 -51c-29 0 -52 22 -52 66c0 56 36 112 90 128zM275 715l9 -20c-31 -11 -59 -52 -60 -75c44 6 64 -20 64 -48c0 -26 -18 -51 -51 -51c-29 0 -52 22 -52 66c0 56 36 112 90 128z" />
    <glyph glyph-name="quotedblright" unicode="&#x201d;" horiz-adv-x="333" 
d="M58 521l-9 20c31 11 59 52 60 75c-44 -6 -64 20 -64 48c0 26 18 51 51 51c29 0 52 -22 52 -65c0 -57 -36 -113 -90 -129zM208 521l-9 20c31 11 59 52 60 75c-44 -6 -64 20 -64 48c0 26 18 51 51 51c29 0 52 -22 52 -65c0 -57 -36 -113 -90 -129z" />
    <glyph glyph-name="quoteleft" unicode="&#x2018;" horiz-adv-x="183" 
d="M125 715l9 -20c-31 -11 -59 -52 -60 -75c44 6 64 -20 64 -48c0 -26 -18 -51 -51 -51c-29 0 -52 22 -52 66c0 56 36 112 90 128z" />
    <glyph glyph-name="quoteright" unicode="&#x2019;" horiz-adv-x="183" 
d="M58 521l-9 20c31 11 59 52 60 75c-44 -6 -64 20 -64 48c0 26 18 51 51 51c29 0 52 -22 52 -65c0 -57 -36 -113 -90 -129z" />
    <glyph glyph-name="guillemotleft" unicode="&#xab;" horiz-adv-x="555" 
d="M305 82l-30 -18c-52 62 -106 101 -205 153v54c99 52 153 91 205 153l30 -18c-39 -71 -88 -112 -148 -161v-2c60 -49 109 -90 148 -161zM475 82l-30 -18c-52 62 -106 101 -205 153v54c99 52 153 91 205 153l30 -18c-39 -71 -88 -112 -148 -161v-2c60 -49 109 -90 148 -161
z" />
    <glyph glyph-name="guillemotright" unicode="&#xbb;" horiz-adv-x="555" 
d="M110 64l-30 18c39 71 88 112 148 161v2c-60 49 -109 90 -148 161l30 18c52 -62 106 -101 205 -153v-54c-99 -52 -153 -91 -205 -153zM280 64l-30 18c39 71 88 112 148 161v2c-60 49 -109 90 -148 161l30 18c52 -62 106 -101 205 -153v-54c-99 -52 -153 -91 -205 -153z
" />
    <glyph glyph-name="guilsinglleft" unicode="&#x2039;" horiz-adv-x="385" 
d="M305 82l-30 -18c-52 62 -106 101 -205 153v54c99 52 153 91 205 153l30 -18c-39 -71 -88 -112 -148 -161v-2c60 -49 109 -90 148 -161z" />
    <glyph glyph-name="guilsinglright" unicode="&#x203a;" horiz-adv-x="385" 
d="M110 64l-30 18c39 71 88 112 148 161v2c-60 49 -109 90 -148 161l30 18c52 -62 106 -101 205 -153v-54c-99 -52 -153 -91 -205 -153z" />
    <glyph glyph-name="quotedbl" unicode="&#x22;" horiz-adv-x="375" 
d="M118 528h-19c-19 54 -39 111 -39 147c0 33 18 56 48 56s49 -23 49 -56c0 -36 -20 -93 -39 -147zM273 528h-19c-19 54 -39 111 -39 147c0 33 18 56 48 56s49 -23 49 -56c0 -36 -20 -93 -39 -147z" />
    <glyph glyph-name="quotesingle" unicode="'" horiz-adv-x="217" 
d="M118 528h-19c-19 54 -39 111 -39 147c0 33 18 56 48 56s49 -23 49 -56c0 -36 -20 -93 -39 -147z" />
    <glyph glyph-name="uni2001" unicode="&#x2001;" horiz-adv-x="1000" 
 />
    <glyph glyph-name="uni2003" unicode="&#x2003;" horiz-adv-x="1000" 
 />
    <glyph glyph-name="uni2000" unicode="&#x2000;" horiz-adv-x="500" 
 />
    <glyph glyph-name="uni2002" unicode="&#x2002;" horiz-adv-x="500" 
 />
    <glyph glyph-name="uni2007" unicode="&#x2007;" horiz-adv-x="570" 
 />
    <glyph glyph-name="uni2005" unicode="&#x2005;" horiz-adv-x="250" 
 />
    <glyph glyph-name="uni200A" unicode="&#x200a;" horiz-adv-x="143" 
 />
    <glyph glyph-name="uni202F" unicode="&#x202f;" horiz-adv-x="160" 
 />
    <glyph glyph-name="uni2008" unicode="&#x2008;" horiz-adv-x="226" 
 />
    <glyph glyph-name="uni2006" unicode="&#x2006;" horiz-adv-x="167" 
 />
    <glyph glyph-name="uni00A0" unicode="&#xa0;" horiz-adv-x="210" 
 />
    <glyph glyph-name="uni2009" unicode="&#x2009;" horiz-adv-x="200" 
 />
    <glyph glyph-name="uni2004" unicode="&#x2004;" horiz-adv-x="333" 
 />
    <glyph glyph-name="uni200B" unicode="&#x200b;" 
 />
    <glyph glyph-name="uni0E3F" unicode="&#xe3f;" horiz-adv-x="633" 
d="M370 345v-6c131 -5 202 -69 202 -162c0 -86 -62 -177 -217 -177h-29v-90h-32v90h-249v32c58 0 85 29 85 63v460c0 34 -27 63 -85 63v32h249v80h32v-80h17c119 0 195 -58 195 -144c0 -71 -46 -155 -168 -161zM294 360v250h-89v-250h89zM453 492c0 85 -55 113 -127 117
v-249c75 1 127 40 127 132zM205 320v-280h89v280h-89zM326 40h9c98 0 152 49 152 137c0 90 -63 143 -148 143h-13v-280z" />
    <glyph glyph-name="cent" unicode="&#xa2;" horiz-adv-x="435" 
d="M380 119l20 -13c-27 -67 -84 -112 -154 -117v-79h-32v79c-105 9 -179 96 -179 205c0 116 73 198 179 212v114h32v-112h1c45 0 86 -12 120 -33l11 -118h-27c-19 85 -67 104 -105 107v-317h6c59 0 105 29 128 72zM105 214c0 -85 42 -146 109 -162v311
c-66 -9 -109 -63 -109 -149z" />
    <glyph glyph-name="colonmonetary" unicode="&#x20a1;" horiz-adv-x="585" 
d="M523 113l22 -24c-56 -73 -127 -101 -202 -101h-4l-14 -89h-39l14 92c-19 3 -37 8 -55 14l-16 -106h-39l19 123c-95 53 -155 164 -155 296c0 174 104 308 253 336l13 87h39l-13 -82c7 1 13 1 20 1c12 0 25 -1 37 -2l13 83h39l-14 -88c30 -6 58 -14 81 -25v-165h-31
c-7 72 -28 112 -58 134l-86 -555c7 -1 15 -1 22 -1c72 0 120 32 154 72zM340 617l-84 -544c16 -11 34 -19 53 -24l87 564c-13 4 -27 5 -41 5c-5 0 -10 0 -15 -1zM139 337c0 -102 30 -184 82 -236l79 510c-96 -27 -161 -124 -161 -274z" />
    <glyph glyph-name="uni20A2" unicode="&#x20a2;" horiz-adv-x="615" 
d="M553 113l22 -24c-60 -73 -136 -101 -217 -101c-179 0 -304 143 -304 330c0 192 134 342 329 342c55 0 122 -12 169 -32v-165h-31c-13 124 -74 155 -151 155c-134 0 -231 -104 -231 -281c0 -143 65 -254 175 -286v183c0 56 -18 70 -70 70v28l96 47l34 -115h5
c22 55 59 116 117 116c17 0 30 -5 37 -11v-113h-26c-2 29 -16 51 -40 51c-42 0 -89 -69 -89 -143v-123h7c78 0 131 32 168 72z" />
    <glyph glyph-name="currency" unicode="&#xa4;" horiz-adv-x="576" 
d="M471 244c0 -45 -15 -87 -41 -120l67 -67l-22 -22l-67 67c-31 -28 -73 -45 -120 -45s-89 17 -120 45l-67 -67l-22 22l67 67c-26 33 -41 75 -41 120s15 87 41 120l-67 67l22 22l67 -67c31 28 73 45 120 45s89 -17 120 -45l67 67l22 -22l-67 -67c26 -33 41 -75 41 -120z
M288 87c90 0 150 72 150 157c0 84 -60 157 -150 157s-150 -73 -150 -157c0 -85 60 -157 150 -157z" />
    <glyph glyph-name="dollar" unicode="$" horiz-adv-x="524" 
d="M474 181c0 -106 -74 -181 -193 -192v-79h-32v78c-88 0 -162 32 -199 56l5 157h32c2 -117 69 -167 162 -171v281c-91 38 -189 74 -189 184c0 89 69 159 189 165v80h32v-80c53 -3 102 -18 158 -44l-3 -143h-30c0 95 -54 137 -125 145v-242c93 -37 193 -75 193 -195z
M128 519c0 -69 55 -102 121 -130v231c-78 -1 -121 -41 -121 -101zM281 297v-266c81 6 125 54 125 124c0 76 -57 113 -125 142z" />
    <glyph glyph-name="Euro" unicode="&#x20ac;" horiz-adv-x="607" 
d="M553 113l22 -24c-56 -73 -127 -101 -202 -101c-153 0 -265 116 -286 276h-67v32h65c-1 7 -1 15 -1 22c0 16 1 32 3 48h-67v32h72c30 154 149 262 304 262c52 0 113 -12 156 -32v-165h-31c-12 124 -67 155 -136 155c-110 0 -193 -80 -212 -220h287v-32h-290
c-1 -9 -1 -19 -1 -29c0 -14 1 -28 2 -41h289v-32h-285c21 -135 104 -223 224 -223c72 0 120 32 154 72z" />
    <glyph glyph-name="florin" unicode="&#x192;" horiz-adv-x="308" 
d="M216 668c-44 0 -69 -37 -69 -94c0 -40 9 -71 24 -96h124v-38h-124v-440c0 -136 -41 -202 -142 -220l-8 27c78 30 80 92 80 213v420h-70v25l70 13v75c0 123 63 177 141 177c29 0 48 -7 63 -15v-111h-25c-7 35 -13 64 -64 64z" />
    <glyph glyph-name="franc" unicode="&#x20a3;" horiz-adv-x="599" 
d="M366 612h-156v-268h80c60 0 91 35 99 100h26v-217h-26c-8 44 -39 77 -99 77h-80v-138h270v-32h-270v-39c0 -34 32 -63 102 -63v-32h-262v32c58 0 85 29 85 63v39h-75v32h75v391c0 34 -27 63 -85 63v32h482l27 -201h-30c-19 74 -47 161 -163 161z" />
    <glyph glyph-name="lira" unicode="&#x20a4;" horiz-adv-x="600" 
d="M494 149h26c0 -127 -87 -161 -152 -161c-62 0 -109 30 -176 30c-36 0 -81 -9 -124 -30l-18 24c88 96 115 161 115 216v8h-105v32h100c-5 23 -14 45 -23 68h-77v32h64c-11 28 -19 59 -19 95c0 105 71 197 209 197c63 0 111 -17 157 -47l-4 -153h-32
c0 102 -53 157 -132 157c-85 0 -119 -64 -119 -136c0 -45 13 -79 26 -113h180v-32h-168c7 -21 12 -43 13 -68h155v-32h-156c-8 -64 -43 -132 -99 -176l2 -3c26 16 53 24 92 24c72 0 105 -27 156 -27c66 0 109 45 109 95z" />
    <glyph glyph-name="uni20A6" unicode="&#x20a6;" horiz-adv-x="748" 
d="M698 650v-32c-58 0 -85 -29 -85 -63v-157h82v-32h-82v-68h82v-32h-82v-266h-40l-189 266h-209v-171c0 -34 32 -63 102 -63v-32h-227v32c58 0 85 29 85 63v171h-70v32h70v68h-70v32h70v195c-24 14 -52 21 -85 25v32h163l177 -252h183v157c0 34 -32 63 -102 63v32h227z
M290 398l-115 161v-161h115zM175 366v-68h186l-49 68h-137zM461 298h112v68h-160zM571 141h2v125h-90z" />
    <glyph glyph-name="peseta" unicode="&#x20a7;" horiz-adv-x="669" 
d="M578 477h72v-32h-72c-6 -80 -72 -169 -234 -169h-120v-181c0 -34 32 -63 102 -63v-32h-262v32c58 0 85 29 85 63v350h-99v32h99v78c0 34 -27 63 -85 63v32h284c157 0 221 -93 230 -173zM324 610h-100v-133h262c-7 82 -65 133 -162 133zM224 316h101c111 0 157 55 162 129
h-263v-129z" />
    <glyph glyph-name="uni20B1" unicode="&#x20b1;" horiz-adv-x="681" 
d="M566 525h84v-32h-75c3 -12 4 -24 4 -35s-1 -22 -3 -33h74v-32h-84c-27 -62 -95 -117 -222 -117h-120v-181c0 -34 32 -63 102 -63v-32h-262v32c58 0 85 29 85 63v298h-99v32h99v68h-99v32h99v30c0 34 -27 63 -85 63v32h284c126 0 192 -60 218 -125zM324 610h-100v-85h251
c-23 53 -75 85 -151 85zM487 458c0 12 -1 24 -3 35h-260v-68h260c2 11 3 22 3 33zM224 316h101c83 0 129 30 150 77h-251v-77z" />
    <glyph glyph-name="uni20A8" unicode="&#x20a8;" horiz-adv-x="1065" 
d="M363 296v-6c169 -10 174 -255 280 -258v-32h-121c-91 138 -109 280 -244 280h-68v-185c0 -34 27 -63 85 -63v-32h-245v32c58 0 85 29 85 63v462c0 34 -27 63 -85 63v32h301c160 0 224 -82 224 -170c0 -105 -88 -175 -212 -186zM210 612v-292h106c116 0 167 66 167 148
s-50 144 -158 144h-115zM760 342c0 -103 275 -51 275 -211c0 -73 -58 -143 -176 -143c-77 0 -135 30 -160 45l11 123h29c3 -83 46 -126 126 -126c76 0 109 39 109 81c0 121 -272 63 -272 210c0 73 68 129 165 129c46 0 98 -13 140 -38l-5 -113h-29c-4 80 -52 111 -114 111
c-63 0 -99 -31 -99 -68z" />
    <glyph glyph-name="uni20B9" unicode="&#x20b9;" horiz-adv-x="583" 
d="M523 650v-32h-164c54 -31 79 -80 83 -134h81v-32h-82c-10 -91 -91 -155 -207 -161v-6c162 -11 170 -249 276 -253v-32h-121c-91 158 -109 280 -244 280h-102v32h140c107 0 159 65 166 140h-306v32h307c-6 76 -56 134 -158 134h-149v32h480z" />
    <glyph glyph-name="uni20AA" unicode="&#x20aa;" horiz-adv-x="739" 
d="M380 576h-245v-576h-50v597l44 55h246c71 0 110 -37 110 -105v-347h-50v321c0 35 -20 55 -55 55zM604 76v576h50v-597l-44 -55h-246c-71 0 -110 37 -110 105v347h50v-321c0 -35 20 -55 55 -55h245z" />
    <glyph glyph-name="sterling" unicode="&#xa3;" horiz-adv-x="570" 
d="M494 149h26c0 -127 -86 -161 -155 -161c-59 0 -99 30 -179 30c-30 0 -83 -12 -118 -30l-18 24c88 96 115 158 115 224c0 20 -5 39 -13 60h-92v32h80c-17 40 -35 84 -35 135c0 105 71 197 209 197c63 0 111 -17 157 -47l-4 -153h-32c0 106 -56 157 -131 157
c-86 0 -120 -73 -120 -138c0 -59 25 -101 40 -151h166v-32h-158c2 -11 3 -23 3 -36c0 -69 -36 -150 -100 -200l2 -3c26 16 53 24 92 24c72 0 102 -27 160 -27c61 0 105 45 105 95z" />
    <glyph glyph-name="uni20AE" unicode="&#x20ae;" horiz-adv-x="597" 
d="M532 670h24l21 -230h-29c-37 144 -50 170 -93 170h-119v-206l101 58l16 -26l-117 -68v-64l101 58l16 -26l-117 -68v-173c0 -34 32 -63 102 -63v-32h-279v32c70 0 102 29 102 63v130l-93 -54l-17 26l110 63v65l-93 -54l-17 26l110 63v250h-119c-43 0 -56 -26 -93 -170h-29
l21 230h24c19 -16 28 -20 47 -20h373c20 0 27 3 47 20z" />
    <glyph glyph-name="uni20A9" unicode="&#x20a9;" horiz-adv-x="1021" 
d="M1006 650v-32c-35 0 -70 -26 -80 -58l-47 -145h86v-32h-96l-22 -68h118v-32h-128l-91 -281c-15 -14 -31 -22 -50 -26l-97 307h-155l-77 -281c-15 -14 -31 -22 -50 -26l-104 307h-138v32h128l-23 68h-105v32h94l-49 145c-11 32 -46 58 -81 58v32h238v-32
c-70 0 -83 -26 -72 -58l47 -145h183l58 222c24 18 48 27 72 25l76 -247h189l44 144c10 33 -4 59 -74 59v32h206zM558 415l-42 132l-36 -132h78zM427 383h-164l22 -68h124zM471 383l-18 -68h136l-21 68h-97zM671 315h129l21 68h-171zM351 113h6l44 170h-106zM733 113h6
l51 170h-109z" />
    <glyph glyph-name="yen" unicode="&#xa5;" horiz-adv-x="583" 
d="M387 620v30h186v-30c-21 0 -48 -19 -71 -57l-137 -222h101v-32h-121l-15 -25v-43h136v-32h-136v-114c0 -34 30 -63 94 -63v-32h-256v32c63 0 93 29 93 63v114h-136v32h136v38l-19 30h-117v32h97l-136 219c-30 48 -51 60 -76 60v30h224v-30c-88 0 -82 -25 -59 -63
l135 -223h5l128 215c33 55 6 71 -56 71z" />
    <glyph glyph-name="florin.001" horiz-adv-x="308" 
d="M216 668c-44 0 -69 -37 -69 -94c0 -40 9 -71 24 -96h124v-38h-124v-481c0 -123 -63 -177 -141 -177c-29 0 -48 7 -63 15v111h25c7 -35 13 -64 64 -64c44 0 69 37 69 94c0 40 -9 71 -24 96v406h-70v25l70 13v75c0 123 63 177 141 177c29 0 48 -7 63 -15v-111h-25
c-7 35 -13 64 -64 64z" />
    <glyph glyph-name="plus" unicode="+" horiz-adv-x="541" 
d="M291 293h180v-40h-180v-181h-44v181h-177v40h177v181h44v-181z" />
    <glyph glyph-name="minus" unicode="&#x2212;" horiz-adv-x="541" 
d="M70 253v40h401v-40h-401z" />
    <glyph glyph-name="multiply" unicode="&#xd7;" horiz-adv-x="541" 
d="M413 463l28 -28l-143 -142l142 -142l-28 -28l-142 142l-142 -142l-28 28l142 142l-142 142l28 28l142 -142z" />
    <glyph glyph-name="divide" unicode="&#xf7;" horiz-adv-x="541" 
d="M270 385c-27 0 -49 22 -49 50c0 27 22 49 49 49c28 0 50 -22 50 -49c0 -28 -22 -50 -50 -50zM70 253v40h401v-40h-401zM270 62c-27 0 -49 22 -49 50c0 27 22 49 49 49c28 0 50 -22 50 -49c0 -28 -22 -50 -50 -50z" />
    <glyph glyph-name="equal" unicode="=" horiz-adv-x="541" 
d="M471 328h-401v40h401v-40zM471 178h-401v40h401v-40z" />
    <glyph glyph-name="notequal" unicode="&#x2260;" horiz-adv-x="541" 
d="M471 368v-40h-144l-67 -110h211v-40h-235l-64 -105l-30 23l50 82h-122v40h146l67 110h-213v40h237l68 112l31 -23l-54 -89h119z" />
    <glyph glyph-name="greater" unicode="&#x3e;" horiz-adv-x="541" 
d="M75 475v48l401 -197v-46l-401 -197v48l354 172z" />
    <glyph glyph-name="less" unicode="&#x3c;" horiz-adv-x="541" 
d="M65 326l401 197v-48l-354 -172l354 -172v-48l-401 197v46z" />
    <glyph glyph-name="greaterequal" unicode="&#x2265;" horiz-adv-x="541" 
d="M75 475v48l401 -197v-46l-401 -197v48l354 172zM471 0h-401v40h401v-40z" />
    <glyph glyph-name="lessequal" unicode="&#x2264;" horiz-adv-x="541" 
d="M112 303l354 -172v-48l-401 197v46l401 197v-48zM70 0v40h401v-40h-401z" />
    <glyph glyph-name="plusminus" unicode="&#xb1;" horiz-adv-x="600" 
d="M291 497v-181h180v-40h-180v-181h-44v181h-177v40h177v181h44zM471 0h-401v40h401v-40z" />
    <glyph glyph-name="approxequal" unicode="&#x2248;" horiz-adv-x="568" 
d="M103 292l-33 16c24 61 68 93 128 93c81 0 114 -59 182 -59c36 0 65 17 88 56l30 -20c-24 -57 -69 -82 -121 -82c-80 0 -118 61 -185 61c-40 0 -66 -21 -89 -65zM103 142l-33 16c24 61 68 93 128 93c81 0 114 -59 182 -59c36 0 65 17 88 56l30 -20
c-24 -57 -69 -82 -121 -82c-80 0 -118 61 -185 61c-40 0 -66 -21 -89 -65z" />
    <glyph glyph-name="asciitilde" unicode="~" horiz-adv-x="575" 
d="M105 208l-35 16c24 74 73 109 130 109c83 0 118 -76 180 -76c41 0 67 32 90 76l35 -20c-26 -60 -75 -102 -133 -102c-77 0 -113 76 -180 76c-38 0 -64 -25 -87 -79z" />
    <glyph glyph-name="logicalnot" unicode="&#xac;" horiz-adv-x="600" 
d="M471 142h-44v186h-357v40h401v-226z" />
    <glyph glyph-name="asciicircum" unicode="^" horiz-adv-x="540" 
d="M290 645l180 -401h-50l-150 340l-150 -340h-50l180 401h40z" />
    <glyph glyph-name="emptyset" unicode="&#x2205;" horiz-adv-x="701" 
d="M609 595l26 -28l-85 -79c35 -43 55 -99 55 -159c0 -140 -109 -254 -254 -254c-69 0 -129 26 -174 68l-86 -80l-25 28l85 79c-34 44 -54 99 -54 159c0 140 109 254 254 254c68 0 129 -25 173 -67zM143 329c0 -49 15 -94 40 -129l310 288c-36 34 -86 55 -142 55
c-120 0 -208 -94 -208 -214zM559 329c0 49 -15 94 -41 130l-310 -288c36 -35 86 -56 143 -56c120 0 208 94 208 214z" />
    <glyph glyph-name="infinity" unicode="&#x221e;" horiz-adv-x="766" 
d="M555 584c103 0 171 -80 171 -204c0 -125 -62 -209 -156 -209c-83 0 -142 43 -182 131c-38 -69 -86 -127 -173 -127c-101 0 -175 87 -175 202c0 90 46 207 166 207c57 0 119 -28 166 -147c41 77 90 147 183 147zM560 240c76 0 126 62 126 150c0 76 -55 125 -111 125
c-87 0 -125 -90 -169 -177c43 -75 97 -98 154 -98zM190 243c83 0 123 80 165 162c-49 87 -98 106 -145 106c-84 0 -130 -62 -130 -134c0 -80 44 -134 110 -134z" />
    <glyph glyph-name="integral" unicode="&#x222b;" horiz-adv-x="510" 
d="M420 704c27 0 56 -7 80 -25v-111h-25c-8 38 -32 64 -61 64c-44 0 -69 -38 -81 -94l-125 -581c-27 -124 -91 -177 -189 -177c-36 0 -65 11 -80 19v111h25c8 -38 28 -74 71 -74c32 0 76 24 95 111l126 580c27 123 86 177 164 177z" />
    <glyph glyph-name="uni2126" unicode="&#x2126;" horiz-adv-x="834" 
d="M382 0h-295v150h31c12 -47 56 -110 100 -110h99v50c-96 26 -210 144 -210 304s120 310 310 310s310 -150 310 -310s-114 -278 -210 -304v-50h95c45 0 83 44 100 110h35v-150h-295v120c122 39 185 149 185 279s-75 255 -220 255s-220 -125 -220 -255s63 -240 185 -279
v-120z" />
    <glyph glyph-name="uni2206" unicode="&#x2206;" horiz-adv-x="643" 
d="M617 0h-594l-8 32l272 659c13 15 35 25 53 26l288 -685zM299 601l-222 -561h447l-219 561h-6z" />
    <glyph glyph-name="product" unicode="&#x220f;" horiz-adv-x="665" 
d="M635 692v-32c-58 0 -85 -29 -85 -63v-622c0 -34 27 -63 85 -63v-32h-245v32c58 0 85 29 85 63v685h-285v-685c0 -34 27 -63 85 -63v-32h-245v32c58 0 85 29 85 63v622c0 34 -27 63 -85 63v32h605z" />
    <glyph glyph-name="summation" unicode="&#x2211;" horiz-adv-x="638" 
d="M538 95h30l-30 -215h-506l-11 19l300 380l-296 390l9 24h484l30 -205h-30c-19 74 -50 165 -166 165h-214l257 -343v-13l-295 -377h272c68 0 127 31 166 175z" />
    <glyph glyph-name="radical" unicode="&#x221a;" horiz-adv-x="568" 
d="M314 83l274 675h50l-317 -758c-13 -7 -24 -10 -35 -11l-169 343c-15 31 -45 47 -92 37v28l126 37z" />
    <glyph glyph-name="partialdiff" unicode="&#x2202;" horiz-adv-x="563" 
d="M297 704c130 0 216 -123 216 -307c0 -245 -120 -409 -301 -409c-103 0 -172 77 -172 192c0 128 94 281 257 281c39 0 91 -15 131 -39v12c0 128 -61 214 -152 214c-62 0 -108 -33 -139 -74l-21 18c36 64 99 112 181 112zM235 27c116 0 193 136 193 340v22
c-34 18 -75 30 -105 30c-136 0 -198 -123 -198 -235c0 -94 44 -157 110 -157z" />
    <glyph glyph-name="uni00B5" unicode="&#xb5;" horiz-adv-x="541" 
d="M445 478v-345c0 -46 12 -72 70 -68v-28l-102 -49l-34 98h-6c-25 -44 -76 -98 -148 -98c-27 0 -52 6 -73 19v-171h-67v511c0 54 -12 63 -70 63v28l110 40h30v-315c0 -78 30 -117 88 -117c50 0 98 29 132 96v205c0 54 -12 63 -70 63v28l110 40h30z" />
    <glyph glyph-name="percent" unicode="%" horiz-adv-x="869" 
d="M233 347c-99 0 -163 77 -163 179c0 107 65 186 163 186c92 0 163 -72 163 -181c0 -104 -63 -184 -163 -184zM240 0h-49l450 704h49zM241 386c61 0 94 44 94 132c0 79 -36 156 -108 156c-61 0 -96 -42 -96 -133c0 -79 39 -155 110 -155zM636 -12c-99 0 -163 77 -163 179
c0 107 65 186 163 186c92 0 163 -72 163 -181c0 -104 -63 -184 -163 -184zM644 27c61 0 94 44 94 132c0 79 -36 156 -108 156c-61 0 -96 -42 -96 -133c0 -79 39 -155 110 -155z" />
    <glyph glyph-name="perthousand" unicode="&#x2030;" horiz-adv-x="1252" 
d="M233 347c-99 0 -163 77 -163 179c0 107 65 186 163 186c92 0 163 -72 163 -181c0 -104 -63 -184 -163 -184zM240 0h-49l450 704h49zM241 386c61 0 94 44 94 132c0 79 -36 156 -108 156c-61 0 -96 -42 -96 -133c0 -79 39 -155 110 -155zM636 -12c-99 0 -163 77 -163 179
c0 107 65 186 163 186c92 0 163 -72 163 -181c0 -104 -63 -184 -163 -184zM1019 -12c-99 0 -163 77 -163 179c0 107 65 186 163 186c92 0 163 -72 163 -181c0 -104 -63 -184 -163 -184zM644 27c61 0 94 44 94 132c0 79 -36 156 -108 156c-61 0 -96 -42 -96 -133
c0 -79 39 -155 110 -155zM1027 27c61 0 94 44 94 132c0 79 -36 156 -108 156c-61 0 -96 -42 -96 -133c0 -79 39 -155 110 -155z" />
    <glyph glyph-name="arrowup" unicode="&#x2191;" horiz-adv-x="531" 
d="M287 651l199 -218l-13 -17l-186 128l32 -441c3 -37 -21 -59 -49 -59c-30 0 -53 23 -50 59l33 440l-194 -127l-14 17l210 218h32z" />
    <glyph glyph-name="uni2197" unicode="&#x2197;" horiz-adv-x="600" 
d="M193 564l303 6l22 -23l-13 -294l-21 -3l-42 222l-289 -335c-24 -28 -56 -27 -76 -7c-21 21 -21 54 6 77l335 288l-227 47z" />
    <glyph glyph-name="arrowright" unicode="&#x2192;" horiz-adv-x="702" 
d="M427 554l17 14l218 -210v-32l-218 -199l-17 13l128 186l-441 -32c-37 -3 -59 21 -59 49c0 30 23 53 59 50l440 -33z" />
    <glyph glyph-name="uni2198" unicode="&#x2198;" horiz-adv-x="598" 
d="M488 445l22 -2l6 -303l-23 -22l-294 13l-3 21l222 42l-335 289c-28 24 -27 56 -7 76c21 21 54 21 77 -6l288 -335z" />
    <glyph glyph-name="arrowdown" unicode="&#x2193;" horiz-adv-x="531" 
d="M287 148l186 128l13 -17l-199 -218h-32l-210 218l14 17l194 -127l-33 440c-3 36 20 59 50 59c28 0 52 -22 49 -59z" />
    <glyph glyph-name="uni2199" unicode="&#x2199;" horiz-adv-x="598" 
d="M522 556c20 -20 21 -52 -7 -76l-335 -289l222 -42l-3 -21l-294 -13l-23 22l6 303l22 2l47 -227l288 335c23 27 56 27 77 6z" />
    <glyph glyph-name="arrowleft" unicode="&#x2190;" horiz-adv-x="702" 
d="M148 360l440 33c36 3 59 -20 59 -50c0 -28 -22 -52 -59 -49l-441 32l128 -186l-17 -13l-218 199v32l218 210l17 -14z" />
    <glyph glyph-name="uni2196" unicode="&#x2196;" horiz-adv-x="600" 
d="M182 495l335 -288c27 -23 27 -56 6 -77c-20 -20 -52 -21 -76 7l-289 335l-42 -222l-21 3l-13 294l22 23l303 -6l2 -22z" />
    <glyph glyph-name="uni25CF" unicode="&#x25cf;" horiz-adv-x="800" 
d="M755 346c0 -200 -155 -358 -355 -358s-355 158 -355 358s155 358 355 358s355 -156 355 -358z" />
    <glyph glyph-name="circle" unicode="&#x25cb;" horiz-adv-x="796" 
d="M751 346c0 -198 -154 -358 -353 -358c-202 0 -353 158 -353 358s151 358 353 358s353 -157 353 -358zM700 346c0 176 -122 312 -302 312s-302 -136 -302 -312c0 -175 122 -312 302 -312s302 137 302 312z" />
    <glyph glyph-name="lozenge" unicode="&#x25ca;" horiz-adv-x="576" 
d="M311 -42h-46l-195 376l195 376h46l195 -376zM127 334l161 -316l161 316l-161 315z" />
    <glyph glyph-name="filledbox" unicode="&#x25a0;" horiz-adv-x="892" 
d="M100 0v692h692v-692h-692z" />
    <glyph glyph-name="uni25A1" unicode="&#x25a1;" horiz-adv-x="892" 
d="M100 0v692h692v-692h-692zM743 646h-594v-600h594v600z" />
    <glyph glyph-name="at" unicode="@" horiz-adv-x="893" 
d="M533 396v33h67v-207c0 -72 16 -109 71 -109c73 0 129 67 129 188c0 215 -150 288 -330 288c-259 0 -377 -151 -377 -342c0 -220 142 -340 359 -340c104 0 202 31 286 84l14 -29c-74 -47 -173 -90 -306 -90c-254 0 -390 155 -390 374c0 289 238 377 416 377
c132 0 365 -48 365 -320c0 -138 -68 -224 -175 -224c-71 0 -108 30 -122 75c-21 -44 -56 -74 -117 -74c-85 0 -144 57 -144 161c0 135 70 191 159 191c40 0 69 -13 95 -36zM433 119c61 0 91 50 100 106v132c-24 20 -48 34 -83 34c-65 0 -104 -32 -104 -144
c0 -67 25 -128 87 -128z" />
    <glyph glyph-name="ampersand" unicode="&#x26;" horiz-adv-x="787" 
d="M741 88l21 -18c-44 -64 -95 -82 -141 -82c-45 0 -101 17 -171 94l-19 21c-48 -65 -104 -115 -200 -115c-120 0 -201 77 -201 196c0 92 48 158 138 209l-1 2c-36 40 -55 88 -55 135c0 103 89 174 198 174c46 0 89 -12 139 -35v-130h-30c-23 99 -75 125 -126 125
c-80 0 -111 -63 -111 -109s32 -94 69 -135l198 -217l77 128c26 42 -21 40 -35 40v28h197v-28c-13 0 -86 3 -114 -39l-102 -155l37 -40c41 -45 91 -82 148 -82c35 0 67 14 84 33zM259 52c66 0 108 30 147 79l-216 238c-66 -53 -79 -107 -79 -156c0 -92 48 -161 148 -161z" />
    <glyph glyph-name="paragraph" unicode="&#xb6;" horiz-adv-x="607" 
d="M292 -130h-50v479c-130 0 -202 82 -202 172c0 89 72 171 202 171h285v-32h-75v-790h-50v790h-110v-790z" />
    <glyph glyph-name="section" unicode="&#xa7;" horiz-adv-x="501" 
d="M346 69c45 -35 78 -76 78 -135c0 -92 -70 -154 -175 -154c-59 0 -117 18 -162 45v133h33c3 -82 56 -136 138 -136c62 0 103 38 103 94c0 133 -311 174 -311 347c0 62 39 125 105 153c-43 32 -74 71 -74 128c0 94 82 160 188 160c54 0 110 -9 151 -32v-146h-33
c-4 83 -56 136 -132 136c-67 0 -112 -37 -112 -93c0 -144 308 -156 308 -345c0 -76 -41 -132 -105 -155zM114 293c0 -94 109 -140 197 -199c47 13 76 53 76 100c0 103 -109 144 -197 198c-42 -13 -76 -50 -76 -99z" />
    <glyph glyph-name="copyright" unicode="&#xa9;" horiz-adv-x="862" 
d="M431 -40c-223 0 -386 173 -386 386c0 214 163 386 386 386c224 0 386 -172 386 -386c0 -213 -162 -386 -386 -386zM431 -10c204 0 353 153 353 356c0 204 -149 356 -353 356c-203 0 -353 -152 -353 -356c0 -203 150 -356 353 -356zM441 125c-119 0 -203 97 -203 216
c0 123 90 229 227 229c36 0 81 -6 117 -21v-110h-31c-8 77 -65 84 -95 84c-84 0 -142 -62 -142 -173c0 -104 50 -171 143 -171c56 0 96 25 121 50l21 -19c-22 -34 -71 -85 -158 -85z" />
    <glyph glyph-name="registered" unicode="&#xae;" horiz-adv-x="648" 
d="M324 741c166 0 279 -129 279 -278c0 -148 -113 -278 -279 -278c-165 0 -279 130 -279 278c0 149 114 278 279 278zM324 215c142 0 246 107 246 248c0 142 -104 248 -246 248c-141 0 -246 -106 -246 -248c0 -141 105 -248 246 -248zM342 473v-3c68 -4 78 -109 119 -111
v-18h-68c-35 63 -55 122 -95 122h-17v-79c0 -14 13 -25 41 -25v-18h-123v18c23 0 34 11 34 25v186c0 13 -11 25 -34 25v17h138c70 0 95 -36 95 -72c0 -39 -33 -65 -90 -67zM281 488h32c46 0 65 20 65 52s-19 47 -62 47h-35v-99z" />
    <glyph glyph-name="trademark" unicode="&#x2122;" horiz-adv-x="784" 
d="M296 622h19l9 -100h-22c-14 56 -19 67 -36 67h-50v-198c0 -14 13 -25 40 -25v-23h-129v23c28 0 40 11 40 25v198h-49c-17 0 -22 -11 -37 -67h-21l8 100h20c7 -6 11 -8 18 -8h172c7 0 10 1 18 8zM666 561l11 -155c2 -30 16 -38 37 -40v-23h-118v23c23 3 39 10 37 36
l-12 175l-86 -224c-6 -6 -17 -11 -25 -13l-100 236l-9 -174c-2 -29 6 -36 41 -36v-23h-114v23c31 1 39 13 41 40l10 150c1 19 -6 34 -33 36v22h96l89 -211h1l80 211h91v-22c-32 0 -38 -13 -37 -31z" />
    <glyph glyph-name="degree" unicode="&#xb0;" horiz-adv-x="398" 
d="M199 478c-65 0 -114 49 -114 116s49 117 114 117c66 0 113 -50 113 -117c0 -66 -47 -116 -113 -116zM199 506c46 0 83 32 83 88s-37 88 -83 88s-83 -32 -83 -88s37 -88 83 -88z" />
    <glyph glyph-name="bar" unicode="|" horiz-adv-x="200" 
d="M120 -110h-40v840h40v-840z" />
    <glyph glyph-name="brokenbar" unicode="&#xa6;" horiz-adv-x="200" 
d="M120 360h-40v370h40v-370zM120 -110h-40v370h40v-370z" />
    <glyph glyph-name="dagger" unicode="&#x2020;" horiz-adv-x="469" 
d="M401 547h28v-172h-28c0 42 -19 70 -57 70h-41c-29 0 -50 -26 -50 -50v-36c0 -38 28 -56 70 -69v-30c-34 -37 -64 -115 -74 -332h-29c-10 217 -40 295 -74 332v30c42 13 70 31 70 69v36c0 24 -21 50 -50 50h-41c-38 0 -57 -28 -57 -70h-28v172h28c0 -42 29 -70 57 -70h41
c29 0 50 26 50 50v36c0 31 -28 62 -70 62v28h177v-28c-42 0 -70 -31 -70 -62v-36c0 -24 21 -50 50 -50h41c38 0 57 28 57 70z" />
    <glyph glyph-name="uni2113" unicode="&#x2113;" horiz-adv-x="505" 
d="M304 38c31 0 64 12 99 55l26 -24c-34 -49 -89 -81 -152 -81c-70 0 -139 50 -162 189c-34 -14 -69 -25 -105 -32v34c35 8 69 19 100 32c-3 24 -4 50 -4 79c0 287 109 414 218 414c71 0 121 -53 121 -133c0 -127 -109 -276 -265 -363c17 -119 60 -170 124 -170zM173 332
c0 -31 1 -60 3 -86c127 79 202 204 202 317c0 58 -28 97 -69 97c-77 0 -136 -108 -136 -328z" />
    <glyph glyph-name="daggerdbl" unicode="&#x2021;" horiz-adv-x="469" 
d="M323 -72h-177v28c42 0 70 31 70 62v36c0 24 -21 50 -50 50h-41c-38 0 -57 -28 -57 -70h-28v172h28c0 -42 19 -70 57 -70h41c29 0 50 26 50 50v60c0 20 -10 30 -30 30h-50v29h50c20 0 30 10 30 30v60c0 24 -21 50 -50 50h-41c-38 0 -57 -28 -57 -70h-28v172h28
c0 -42 29 -70 57 -70h41c29 0 50 26 50 50v36c0 31 -28 62 -70 62v28h177v-28c-42 0 -70 -31 -70 -62v-36c0 -24 21 -50 50 -50h41c38 0 57 28 57 70h28v-172h-28c0 42 -19 70 -57 70h-41c-29 0 -50 -25 -50 -50v-60c0 -20 10 -30 30 -30h50v-29h-50c-20 0 -30 -10 -30 -30
v-60c0 -24 21 -50 50 -50h41c38 0 57 28 57 70h28v-172h-28c0 42 -29 70 -57 70h-41c-29 0 -50 -26 -50 -50v-36c0 -31 27 -62 70 -62v-28z" />
    <glyph glyph-name="estimated" unicode="&#x212e;" horiz-adv-x="752" 
d="M391 -12c-178 0 -337 129 -337 324s151 328 323 328c161 0 321 -109 321 -326v-8h-511v-206c21 -35 113 -80 204 -80c85 0 163 20 227 99l24 -20c-58 -77 -149 -111 -251 -111zM187 526v-188h380v188c-30 47 -100 82 -190 82s-150 -35 -190 -82z" />
    <glyph glyph-name="uni2116" unicode="&#x2116;" horiz-adv-x="1087" 
d="M924 442c-71 0 -122 52 -122 129c0 74 48 131 121 131c67 0 122 -49 122 -130c0 -77 -49 -130 -121 -130zM496 692h227v-32c-58 0 -85 -29 -85 -63v-597h-40l-428 601v-506c0 -34 32 -63 102 -63v-32h-227v32c58 0 85 29 85 63v540c-24 14 -52 21 -85 25v32h163l388 -551
h2v456c0 34 -32 63 -102 63v32zM917 669c-32 0 -54 -28 -54 -89c0 -77 36 -106 68 -106c31 0 51 27 51 89c0 77 -32 106 -65 106zM1033 348h-247v40h247v-40z" />
    <glyph glyph-name="uni02BC" unicode="&#x2bc;" horiz-adv-x="600" 
 />
    <glyph glyph-name="uni0308" unicode="&#x308;" 
d="M-280 586c-29 0 -54 25 -54 56c0 29 25 54 54 54c31 0 56 -25 56 -54c0 -31 -25 -56 -56 -56zM-108 586c-29 0 -54 25 -54 56c0 29 25 54 54 54c31 0 56 -25 56 -54c0 -31 -25 -56 -56 -56z" />
    <glyph glyph-name="uni0307" unicode="&#x307;" 
d="M-95 585c-30 0 -55 25 -55 56c0 30 25 55 55 55c31 0 56 -25 56 -55c0 -31 -25 -56 -56 -56z" />
    <glyph glyph-name="gravecomb" unicode="&#x300;" 
d="M-51 554l-22 -20l-155 150v20h83z" />
    <glyph glyph-name="acutecomb" unicode="&#x301;" 
d="M-50 684l-155 -150l-22 20l94 150h83v-20z" />
    <glyph glyph-name="uni030B" unicode="&#x30b;" 
d="M-206 684l-129 -145l-27 15l76 150h80v-20zM-86 684l-132 -147l-25 17l75 150h82v-20z" />
    <glyph glyph-name="uni030C.alt" 
d="M-228 730h76c0 -62 -21 -126 -56 -188h-34c12 62 14 126 14 188z" />
    <glyph glyph-name="uni0302" unicode="&#x302;" 
d="M-184 704h38l126 -148l-19 -22l-126 99l-126 -99l-19 22z" />
    <glyph glyph-name="uni030C" unicode="&#x30c;" 
d="M-20 685l-126 -148h-38l-126 148l19 22l126 -99l126 99z" />
    <glyph glyph-name="uni0306" unicode="&#x306;" 
d="M-202 553c-66 0 -112 37 -112 119h28c3 -45 32 -63 84 -63c58 0 80 13 83 63h28c0 -94 -56 -119 -111 -119z" />
    <glyph glyph-name="uni030A" unicode="&#x30a;" 
d="M-164 543c-48 0 -84 36 -84 81c0 44 36 80 84 80c49 0 85 -36 85 -80c0 -45 -36 -81 -85 -81zM-164 572c33 0 52 24 52 52s-19 52 -52 52c-32 0 -52 -24 -52 -52c0 -29 20 -52 52 -52z" />
    <glyph glyph-name="tildecomb" unicode="&#x303;" 
d="M-342 563l-22 15c32 66 63 87 98 87c47 0 88 -39 122 -39c23 0 34 9 56 39l19 -15c-32 -63 -67 -84 -94 -84c-51 0 -86 37 -120 37c-26 0 -43 -15 -59 -40z" />
    <glyph glyph-name="uni0304" unicode="&#x304;" 
d="M-338 593v43h288v-43h-288z" />
    <glyph glyph-name="uni0312" unicode="&#x312;" 
d="M-69 705l6 -17c-24 -9 -39 -19 -39 -37c0 -31 47 -25 47 -64c0 -21 -16 -38 -41 -38c-26 0 -51 23 -51 59c0 54 36 84 78 97z" />
    <glyph glyph-name="uni0326" unicode="&#x326;" 
d="M-123 -205l-6 17c24 9 39 19 39 37c0 31 -47 25 -47 64c0 21 16 38 41 38c26 0 51 -23 51 -59c0 -54 -36 -84 -78 -97z" />
    <glyph glyph-name="uni0327" unicode="&#x327;" 
d="M-209 -91l18 91h35l-7 -46c57 -13 91 -39 91 -87c0 -51 -38 -87 -93 -87c-42 0 -73 21 -87 36l15 32c18 -19 42 -31 67 -31c27 0 42 16 42 38c0 37 -32 51 -81 54z" />
    <glyph glyph-name="uni0328" unicode="&#x328;" 
d="M-130 -220c-56 0 -93 36 -93 85c0 57 41 115 164 174l36 -1c-123 -79 -134 -132 -134 -158c0 -31 17 -51 49 -51c26 0 55 14 89 42l9 -26c-25 -29 -65 -65 -120 -65z" />
    <glyph glyph-name="uni0335" unicode="&#x335;" 
d="M-185 554v36h305v-36h-305z" />
    <glyph glyph-name="uni0337" unicode="&#x337;" 
d="M-260 250l-20 29l229 155l21 -29z" />
    <glyph glyph-name="uni0338" unicode="&#x338;" 
d="M-510 -10l-27 22l382 475l28 -22z" />
    <glyph glyph-name="dieresis" unicode="&#xa8;" horiz-adv-x="399" 
d="M119 586c-29 0 -54 25 -54 56c0 29 25 54 54 54c31 0 56 -25 56 -54c0 -31 -25 -56 -56 -56zM291 586c-29 0 -54 25 -54 56c0 29 25 54 54 54c31 0 56 -25 56 -54c0 -31 -25 -56 -56 -56z" />
    <glyph glyph-name="dotaccent" unicode="&#x2d9;" horiz-adv-x="189" 
d="M94 585c-30 0 -55 25 -55 56c0 30 25 55 55 55c31 0 56 -25 56 -55c0 -31 -25 -56 -56 -56z" />
    <glyph glyph-name="grave" unicode="`" horiz-adv-x="255" 
d="M204 554l-22 -20l-155 150v20h83z" />
    <glyph glyph-name="acute" unicode="&#xb4;" horiz-adv-x="277" 
d="M227 684l-155 -150l-22 20l94 150h83v-20z" />
    <glyph glyph-name="hungarumlaut" unicode="&#x2dd;" horiz-adv-x="344" 
d="M242 684l-129 -145l-27 15l76 150h80v-20zM362 684l-132 -147l-25 17l75 150h82v-20z" />
    <glyph glyph-name="circumflex" unicode="&#x2c6;" horiz-adv-x="330" 
d="M146 704h38l126 -148l-19 -22l-126 99l-126 -99l-19 22z" />
    <glyph glyph-name="caron" unicode="&#x2c7;" horiz-adv-x="330" 
d="M310 685l-126 -148h-38l-126 148l19 22l126 -99l126 99z" />
    <glyph glyph-name="breve" unicode="&#x2d8;" horiz-adv-x="404" 
d="M202 553c-66 0 -112 37 -112 119h28c3 -45 32 -63 84 -63c58 0 80 13 83 63h28c0 -94 -56 -119 -111 -119z" />
    <glyph glyph-name="ring" unicode="&#x2da;" horiz-adv-x="308" 
d="M144 543c-48 0 -84 36 -84 81c0 44 36 80 84 80c49 0 85 -36 85 -80c0 -45 -36 -81 -85 -81zM144 572c33 0 52 24 52 52s-19 52 -52 52c-32 0 -52 -24 -52 -52c0 -29 20 -52 52 -52z" />
    <glyph glyph-name="tilde" unicode="&#x2dc;" horiz-adv-x="434" 
d="M92 563l-22 15c32 66 63 87 98 87c47 0 88 -39 122 -39c23 0 34 9 56 39l19 -15c-32 -63 -67 -84 -94 -84c-51 0 -86 37 -120 37c-26 0 -43 -15 -59 -40z" />
    <glyph glyph-name="macron" unicode="&#xaf;" horiz-adv-x="388" 
d="M50 593v43h288v-43h-288z" />
    <glyph glyph-name="cedilla" unicode="&#xb8;" horiz-adv-x="308" 
d="M99 -91l18 91h35l-7 -46c57 -13 91 -39 91 -87c0 -51 -38 -87 -93 -87c-42 0 -73 21 -87 36l15 32c18 -19 42 -31 67 -31c27 0 42 16 42 38c0 37 -32 51 -81 54z" />
    <glyph glyph-name="ogonek" unicode="&#x2db;" horiz-adv-x="347" 
d="M160 -220c-56 0 -93 36 -93 85c0 57 41 115 164 174l36 -1c-123 -79 -134 -132 -134 -158c0 -31 17 -51 49 -51c26 0 55 14 89 42l9 -26c-25 -29 -65 -65 -120 -65z" />
    <glyph glyph-name="uni0308.case" 
d="M-281 761c-30 0 -56 26 -56 58c0 30 26 56 56 56c32 0 58 -26 58 -56c0 -32 -26 -58 -58 -58zM-103 761c-30 0 -56 26 -56 58c0 30 26 56 56 56c32 0 58 -26 58 -56c0 -32 -26 -58 -58 -58z" />
    <glyph glyph-name="uni0307.case" 
d="M-96 765c-30 0 -55 25 -55 56c0 30 25 55 55 55c31 0 56 -25 56 -55c0 -31 -25 -56 -56 -56z" />
    <glyph glyph-name="gravecomb.case" 
d="M-45 774l-21 -25l-167 96v25h92z" />
    <glyph glyph-name="acutecomb.case" 
d="M-45 840l-167 -96l-21 25l96 96h92v-25z" />
    <glyph glyph-name="uni030B.case" 
d="M-195 845l-126 -101l-21 25l79 96h68v-20zM-45 845l-126 -101l-21 25l79 96h68v-20z" />
    <glyph glyph-name="uni0302.case" 
d="M-180 808l-123 -64l-12 25l113 96h44l113 -96l-12 -25z" />
    <glyph glyph-name="uni030C.case" 
d="M-315 840l12 25l123 -64l123 64l12 -25l-113 -96h-44z" />
    <glyph glyph-name="uni0306.case" 
d="M-180 745c-80 0 -135 37 -135 120h30c0 -40 45 -59 105 -59s105 19 105 59h30c0 -85 -55 -120 -135 -120z" />
    <glyph glyph-name="uni030A.case" 
d="M-130 718c-48 0 -84 36 -84 81c0 44 36 80 84 80c49 0 85 -36 85 -80c0 -45 -36 -81 -85 -81zM-130 747c33 0 52 24 52 52s-19 52 -52 52c-32 0 -52 -24 -52 -52c0 -29 20 -52 52 -52z" />
    <glyph glyph-name="tildecomb.case" 
d="M-334 772l-22 15c32 66 63 87 98 87c47 0 104 -39 138 -39c23 0 34 9 56 39l19 -15c-32 -63 -67 -84 -94 -84c-51 0 -102 37 -136 37c-26 0 -43 -15 -59 -40z" />
    <glyph glyph-name="uni0304.case" 
d="M-337 778v40h292v-40h-292z" />
    <glyph glyph-name="uni0328.case" 
d="M-130 -220c-56 0 -93 36 -93 85c0 57 41 115 164 174l24 -12c-113 -72 -122 -121 -122 -147c0 -31 17 -51 49 -51c26 0 55 14 89 42l9 -26c-25 -29 -65 -65 -120 -65z" />
    <glyph glyph-name="uni0335.case" 
d="M-216 339h-349v40h349v-40z" />
    <glyph glyph-name="uni0336.case" 
d="M-735 474v36h665v-36h-665z" />
    <glyph glyph-name="uni0337.case" 
d="M-328 221l-23 31l282 215l24 -31z" />
    <glyph glyph-name="uni0338.case" 
d="M-490 10l-27 22l552 655l28 -22z" />
    <glyph glyph-name="_corner.serifleft" horiz-adv-x="594" 
 />
    <glyph glyph-name="_corner.serifright" horiz-adv-x="200" 
 />
    </font>
</defs>
</svg>
